<svg width="15" height="15" viewBox="0 0 15 15" fill="none" xmlns="http://www.w3.org/2000/svg">
<path fill-rule="evenodd" clip-rule="evenodd" d="M1.689 9H1.5C1.10218 9 0.720644 8.84196 0.43934 8.56066C0.158035 8.27936 0 7.89782 0 7.5C0 7.10218 0.158035 6.72064 0.43934 6.43934C0.720644 6.15804 1.10218 6 1.5 6H1.689C1.83075 5.4495 2.049 4.92975 2.331 4.452L2.196 4.31775C1.91474 4.03629 1.75681 3.65462 1.75695 3.25672C1.75709 2.85881 1.91529 2.47726 2.19675 2.196C2.47821 1.91474 2.85988 1.75681 3.25778 1.75695C3.65569 1.75709 4.03724 1.91529 4.3185 2.19675L4.452 2.331C4.93521 2.04521 5.45636 1.82908 6 1.689V1.5C6 1.10218 6.15804 0.720644 6.43934 0.43934C6.72064 0.158035 7.10218 0 7.5 0C7.89782 0 8.27936 0.158035 8.56066 0.43934C8.84196 0.720644 9 1.10218 9 1.5V1.689C9.5505 1.83075 10.0702 2.049 10.548 2.331L10.6823 2.196C10.9637 1.91474 11.3454 1.75681 11.7433 1.75695C11.9403 1.75702 12.1354 1.79589 12.3174 1.87135C12.4994 1.94681 12.6647 2.05738 12.804 2.19675C12.9433 2.33612 13.0537 2.50155 13.1291 2.6836C13.2044 2.86565 13.2431 3.06076 13.2431 3.25778C13.243 3.4548 13.2041 3.64988 13.1286 3.83188C13.0532 4.01388 12.9426 4.17923 12.8032 4.3185L12.669 4.452C12.9518 4.92975 13.1692 5.4495 13.311 6H13.5C13.8978 6 14.2794 6.15804 14.5607 6.43934C14.842 6.72064 15 7.10218 15 7.5C15 7.89782 14.842 8.27936 14.5607 8.56066C14.2794 8.84196 13.8978 9 13.5 9H13.311C13.1709 9.54364 12.9548 10.0648 12.669 10.548L12.804 10.6823C12.9433 10.8216 13.0537 10.987 13.1291 11.1691C13.2044 11.3512 13.2431 11.5463 13.2431 11.7433C13.243 11.9403 13.2041 12.1354 13.1286 12.3174C13.0532 12.4994 12.9426 12.6647 12.8032 12.804C12.6639 12.9433 12.4985 13.0537 12.3164 13.1291C12.1344 13.2044 11.9392 13.2431 11.7422 13.2431C11.5452 13.243 11.3501 13.2041 11.1681 13.1286C10.9861 13.0532 10.8208 12.9426 10.6815 12.8032L10.548 12.669C10.0648 12.9548 9.54364 13.1709 9 13.311V13.5C9 13.8978 8.84196 14.2794 8.56066 14.5607C8.27936 14.842 7.89782 15 7.5 15C7.10218 15 6.72064 14.842 6.43934 14.5607C6.15804 14.2794 6 13.8978 6 13.5V13.311C5.45636 13.1709 4.93521 12.9548 4.452 12.669L4.31775 12.804C4.17838 12.9433 4.01295 13.0537 3.8309 13.1291C3.64885 13.2044 3.45374 13.2431 3.25672 13.2431C3.0597 13.243 2.86462 13.2041 2.68262 13.1286C2.50062 13.0532 2.33527 12.9426 2.196 12.8032C2.05673 12.6639 1.94628 12.4985 1.87095 12.3164C1.79561 12.1344 1.75688 11.9392 1.75695 11.7422C1.75702 11.5452 1.79589 11.3501 1.87135 11.1681C1.94681 10.9861 2.05738 10.8208 2.19675 10.6815L2.331 10.548C2.04521 10.0648 1.82908 9.54364 1.689 9V9ZM5.25 6L3.75 7.5L6.75 10.5L11.25 6L9.75 4.5L6.75 7.5L5.25 6Z" fill="url(#paint0_linear_8_10222)"/>
<defs>
<linearGradient id="paint0_linear_8_10222" x1="7.48201" y1="-1.56909e-06" x2="7.48201" y2="15" gradientUnits="userSpaceOnUse">
<stop stop-color="#1D4AD5"/>
<stop offset="1" stop-color="#5A08A8"/>
</linearGradient>
</defs>
</svg>
