<svg width="187" height="342" viewBox="0 0 187 342" fill="none" xmlns="http://www.w3.org/2000/svg">
<g clip-path="url(#clip0_8_6241)">
<path d="M60.9672 46.9623C56.1041 46.9623 52.1618 43.0199 52.1618 38.1568C52.1618 33.2937 56.1041 29.3514 60.9672 29.3514C65.8303 29.3514 69.7726 33.2937 69.7726 38.1568C69.7726 43.0199 65.8303 46.9623 60.9672 46.9623Z" fill="white"/>
<path d="M31.616 17.6108C26.7529 17.6108 22.8105 13.6685 22.8105 8.80542C22.8105 3.94232 26.7529 0 31.616 0C36.4791 0 40.4214 3.94232 40.4214 8.80542C40.4214 13.6685 36.4791 17.6108 31.616 17.6108Z" fill="white"/>
<path d="M2.26416 46.9623C-2.59894 46.9623 -6.54126 43.0199 -6.54126 38.1568C-6.54126 33.2937 -2.59894 29.3514 2.26416 29.3514C7.12726 29.3514 11.0696 33.2937 11.0696 38.1568C11.0696 43.0199 7.12726 46.9623 2.26416 46.9623Z" fill="white"/>
<path d="M119.67 105.665C114.807 105.665 110.864 101.723 110.864 96.8596C110.864 91.9965 114.807 88.0542 119.67 88.0542C124.533 88.0542 128.475 91.9965 128.475 96.8596C128.475 101.723 124.533 105.665 119.67 105.665Z" fill="white"/>
<path d="M90.3184 76.3137C85.4553 76.3137 81.513 72.3713 81.513 67.5082C81.513 62.6451 85.4553 58.7028 90.3184 58.7028C95.1815 58.7028 99.1238 62.6451 99.1238 67.5082C99.1238 72.3713 95.1815 76.3137 90.3184 76.3137Z" fill="white"/>
<path d="M60.9672 105.665C56.1041 105.665 52.1618 101.723 52.1618 96.8596C52.1618 91.9965 56.1041 88.0542 60.9672 88.0542C65.8303 88.0542 69.7726 91.9965 69.7726 96.8596C69.7726 101.723 65.8303 105.665 60.9672 105.665Z" fill="white"/>
<path d="M31.616 76.3137C26.7529 76.3137 22.8105 72.3713 22.8105 67.5082C22.8105 62.6451 26.7529 58.7028 31.616 58.7028C36.4791 58.7028 40.4214 62.6451 40.4214 67.5082C40.4214 72.3713 36.4791 76.3137 31.616 76.3137Z" fill="white"/>
<path d="M2.26416 105.665C-2.59894 105.665 -6.54126 101.723 -6.54126 96.8596C-6.54126 91.9965 -2.59894 88.0542 2.26416 88.0542C7.12726 88.0542 11.0696 91.9965 11.0696 96.8596C11.0696 101.723 7.12726 105.665 2.26416 105.665Z" fill="white"/>
<path d="M178.373 164.368C173.51 164.368 169.567 160.426 169.567 155.562C169.567 150.699 173.51 146.757 178.373 146.757C183.236 146.757 187.178 150.699 187.178 155.562C187.178 160.426 183.236 164.368 178.373 164.368Z" fill="white"/>
<path d="M149.021 135.016C144.158 135.016 140.216 131.074 140.216 126.211C140.216 121.348 144.158 117.406 149.021 117.406C153.885 117.406 157.827 121.348 157.827 126.211C157.827 131.074 153.885 135.016 149.021 135.016Z" fill="white"/>
<path d="M119.67 164.368C114.807 164.368 110.864 160.426 110.864 155.562C110.864 150.699 114.807 146.757 119.67 146.757C124.533 146.757 128.475 150.699 128.475 155.562C128.475 160.426 124.533 164.368 119.67 164.368Z" fill="white"/>
<path d="M90.3184 135.016C85.4553 135.016 81.513 131.074 81.513 126.211C81.513 121.348 85.4553 117.406 90.3184 117.406C95.1815 117.406 99.1238 121.348 99.1238 126.211C99.1238 131.074 95.1815 135.016 90.3184 135.016Z" fill="white"/>
<path d="M60.9672 164.368C56.1041 164.368 52.1618 160.426 52.1618 155.562C52.1618 150.699 56.1041 146.757 60.9672 146.757C65.8303 146.757 69.7726 150.699 69.7726 155.562C69.7726 160.426 65.8303 164.368 60.9672 164.368Z" fill="white"/>
<path d="M31.616 135.016C26.7529 135.016 22.8105 131.074 22.8105 126.211C22.8105 121.348 26.7529 117.406 31.616 117.406C36.4791 117.406 40.4214 121.348 40.4214 126.211C40.4214 131.074 36.4791 135.016 31.616 135.016Z" fill="white"/>
<path d="M2.26416 164.368C-2.59894 164.368 -6.54126 160.426 -6.54126 155.562C-6.54126 150.699 -2.59894 146.757 2.26416 146.757C7.12726 146.757 11.0696 150.699 11.0696 155.562C11.0696 160.426 7.12726 164.368 2.26416 164.368Z" fill="white"/>
<path d="M149.021 193.719C144.158 193.719 140.216 189.777 140.216 184.914C140.216 180.051 144.158 176.108 149.021 176.108C153.885 176.108 157.827 180.051 157.827 184.914C157.827 189.777 153.885 193.719 149.021 193.719Z" fill="white"/>
<path d="M119.67 223.071C114.807 223.071 110.864 219.128 110.864 214.265C110.864 209.402 114.807 205.46 119.67 205.46C124.533 205.46 128.475 209.402 128.475 214.265C128.475 219.128 124.533 223.071 119.67 223.071Z" fill="white"/>
<path d="M90.3184 193.719C85.4553 193.719 81.513 189.777 81.513 184.914C81.513 180.051 85.4553 176.108 90.3184 176.108C95.1815 176.108 99.1238 180.051 99.1238 184.914C99.1238 189.777 95.1815 193.719 90.3184 193.719Z" fill="white"/>
<path d="M60.9672 223.071C56.1041 223.071 52.1618 219.128 52.1618 214.265C52.1618 209.402 56.1041 205.46 60.9672 205.46C65.8303 205.46 69.7726 209.402 69.7726 214.265C69.7726 219.128 65.8303 223.071 60.9672 223.071Z" fill="white"/>
<path d="M31.616 193.719C26.7529 193.719 22.8105 189.777 22.8105 184.914C22.8105 180.051 26.7529 176.108 31.616 176.108C36.4791 176.108 40.4214 180.051 40.4214 184.914C40.4214 189.777 36.4791 193.719 31.616 193.719Z" fill="white"/>
<path d="M2.26416 223.071C-2.59894 223.071 -6.54126 219.128 -6.54126 214.265C-6.54126 209.402 -2.59894 205.46 2.26416 205.46C7.12726 205.46 11.0696 209.402 11.0696 214.265C11.0696 219.128 7.12726 223.071 2.26416 223.071Z" fill="white"/>
<path d="M90.3184 252.422C85.4553 252.422 81.513 248.48 81.513 243.617C81.513 238.754 85.4553 234.811 90.3184 234.811C95.1815 234.811 99.1238 238.754 99.1238 243.617C99.1238 248.48 95.1815 252.422 90.3184 252.422Z" fill="white"/>
<path d="M60.9672 281.773C56.1041 281.773 52.1618 277.831 52.1618 272.968C52.1618 268.105 56.1041 264.163 60.9672 264.163C65.8303 264.163 69.7726 268.105 69.7726 272.968C69.7726 277.831 65.8303 281.773 60.9672 281.773Z" fill="white"/>
<path d="M31.616 252.422C26.7529 252.422 22.8105 248.48 22.8105 243.617C22.8105 238.754 26.7529 234.811 31.616 234.811C36.4791 234.811 40.4214 238.754 40.4214 243.617C40.4214 248.48 36.4791 252.422 31.616 252.422Z" fill="white"/>
<path d="M2.26416 281.773C-2.59894 281.773 -6.54126 277.831 -6.54126 272.968C-6.54126 268.105 -2.59894 264.163 2.26416 264.163C7.12726 264.163 11.0696 268.105 11.0696 272.968C11.0696 277.831 7.12726 281.773 2.26416 281.773Z" fill="white"/>
<path d="M31.616 311.125C26.7529 311.125 22.8105 307.183 22.8105 302.319C22.8105 297.456 26.7529 293.514 31.616 293.514C36.4791 293.514 40.4214 297.456 40.4214 302.319C40.4214 307.183 36.4791 311.125 31.616 311.125Z" fill="white"/>
<path d="M2.26416 340.476C-2.59894 340.476 -6.54126 336.534 -6.54126 331.671C-6.54126 326.808 -2.59894 322.865 2.26416 322.865C7.12726 322.865 11.0696 326.808 11.0696 331.671C11.0696 336.534 7.12726 340.476 2.26416 340.476Z" fill="white"/>
</g>
<defs>
<clipPath id="clip0_8_6241">
<rect width="187" height="341.077" fill="white" transform="matrix(-1 0 0 1 187 0)"/>
</clipPath>
</defs>
</svg>
