<svg width="59" height="61" viewBox="0 0 59 61" fill="none" xmlns="http://www.w3.org/2000/svg">
<g clip-path="url(#clip0_9_11760)">
<path fill-rule="evenodd" clip-rule="evenodd" d="M57.3372 30.4144C56.6416 30.4144 56.0096 30.9749 56.0096 31.7223C56.0096 46.232 43.9984 58.0644 29.2694 58.0644C14.5404 58.0644 2.59193 46.232 2.59193 31.7223C2.59193 17.8345 13.5916 6.37552 27.4994 5.44187L26.3616 6.31357C25.7927 6.74968 25.666 7.55924 26.1087 8.1196C26.3616 8.43089 26.7407 8.61787 27.1203 8.61787C27.3732 8.61787 27.6892 8.55571 27.879 8.36874L32.1777 5.13054C32.4937 4.88141 32.6835 4.50796 32.6835 4.07185C32.6835 3.63575 32.4306 3.26231 32.1146 3.07533L27.8154 0.210591C27.2465 -0.162844 26.4247 -0.0385373 26.045 0.584026C25.666 1.14444 25.7922 1.954 26.4241 2.32799L27.309 2.8884C12.0113 3.94709 0.00012207 16.4645 0.00012207 31.7225C0.00012207 47.6657 13.1492 60.6185 29.3327 60.6185C45.5167 60.6185 58.6652 47.6651 58.6652 31.7225C58.6652 30.9751 58.0964 30.4147 57.3377 30.4147L57.3372 30.4144ZM57.9686 24.995C57.9686 25.8549 57.261 26.5519 56.3881 26.5519C55.5152 26.5519 54.8076 25.8549 54.8076 24.995C54.8076 24.1351 55.5152 23.438 56.3881 23.438C57.261 23.438 57.9686 24.135 57.9686 24.995ZM54.3017 20.7614C55.1746 20.7614 55.8822 20.0643 55.8822 19.2044C55.8822 18.3445 55.1746 17.6475 54.3017 17.6475C53.4293 17.6475 52.7217 18.3445 52.7217 19.2044C52.7217 20.0643 53.4293 20.7614 54.3017 20.7614ZM52.0898 13.7859C52.0898 14.6458 51.3822 15.3429 50.5093 15.3429C49.6364 15.3429 48.9288 14.6458 48.9288 13.7859C48.9288 12.926 49.6364 12.2289 50.5093 12.2289C51.3822 12.2289 52.0898 12.926 52.0898 13.7859ZM45.262 10.6725C46.1349 10.6725 46.8424 9.97546 46.8424 9.11556C46.8424 8.25565 46.1348 7.55859 45.262 7.55859C44.389 7.55859 43.6815 8.25566 43.6815 9.11556C43.6815 9.97547 44.3891 10.6725 45.262 10.6725ZM40.5845 5.81429C40.5845 6.67419 39.8769 7.37126 39.004 7.37126C38.1311 7.37126 37.4235 6.6742 37.4235 5.81429C37.4235 4.95439 38.1311 4.25732 39.004 4.25732C39.8769 4.25732 40.5845 4.95438 40.5845 5.81429ZM22.0616 36.2677L22.6305 37.2642L22.6304 37.2642C23.1993 38.1981 24.274 38.8212 25.4117 38.8207H26.8655L23.0726 46.4806L21.2393 43.7406L17.6992 44.5502L21.8718 36.0186C21.8718 36.0186 21.9354 36.1434 22.0616 36.2677ZM29.3943 38.0113C29.5841 38.1356 29.837 38.1982 30.0899 38.1982C30.3428 38.1982 30.5326 38.1361 30.7855 38.0113L32.6188 36.9526H34.7677C35.2735 36.9526 35.6525 36.7035 35.9054 36.2673L36.9801 34.3991L38.8134 33.3404C39.2561 33.0913 39.509 32.6552 39.509 32.2196V30.1644L40.5837 28.2961C40.8366 27.86 40.8366 27.3618 40.5837 26.9883L39.509 25.1201V23.0649C39.509 22.5666 39.2561 22.1932 38.8134 21.9441L36.9801 20.8854L35.9054 19.0171C35.6525 18.581 35.2098 18.3319 34.7677 18.3319H32.6182L30.7849 17.2732C30.3422 17.0241 29.8364 17.0241 29.4574 17.2732L27.624 18.3319H25.4746C24.9688 18.3319 24.5897 18.581 24.3369 19.0171L23.2622 20.8232L21.3657 21.8819C20.923 22.131 20.6701 22.5671 20.6701 23.0027V25.1822L19.5954 26.9882C19.4693 27.1752 19.4056 27.4243 19.4056 27.6734C19.4056 27.9226 19.4687 28.1095 19.5954 28.3587L20.6701 30.1647V32.3442C20.6701 32.8425 20.923 33.2159 21.3657 33.465L23.2622 34.5237L24.3369 36.3297C24.5897 36.7659 25.0324 37.015 25.4746 37.015H27.624L29.3943 38.0113ZM27.2449 31.3479L27.6876 28.7944L25.7911 26.9884C25.728 26.9262 25.6649 26.7392 25.728 26.6149C25.7911 26.4906 25.8542 26.4279 25.9809 26.3658L28.573 25.9924L29.7107 23.6881C29.8369 23.4389 30.2165 23.4389 30.3427 23.6881L31.4805 25.9924L34.0725 26.3658C34.1987 26.3658 34.3254 26.4901 34.3254 26.6149C34.3885 26.7392 34.3254 26.8641 34.2623 26.9884L32.3659 28.7944L32.8086 31.3479C32.8086 31.4722 32.8086 31.597 32.6824 31.6592C32.6193 31.7213 32.5562 31.7213 32.4926 31.7213C32.4295 31.7213 32.3664 31.7213 32.3028 31.6592L29.9637 30.4762L27.6246 31.6592C27.4984 31.7213 27.3717 31.7213 27.2455 31.6592C27.2454 31.6419 27.2404 31.6198 27.2346 31.5943C27.2197 31.5279 27.1994 31.438 27.245 31.3479H27.2449ZM42.0382 44.5498L38.4981 43.7402L36.6648 46.4807L32.8719 38.9451L34.7683 38.8203C35.9062 38.8203 36.9808 38.2598 37.5497 37.2633L38.0555 36.3916L42.0382 44.5498Z" fill="url(#paint0_linear_9_11760)"/>
</g>
<defs>
<linearGradient id="paint0_linear_9_11760" x1="29.2623" y1="0.00048194" x2="29.2623" y2="60.6185" gradientUnits="userSpaceOnUse">
<stop stop-color="#1D4AD5"/>
<stop offset="1" stop-color="#5A08A8"/>
</linearGradient>
<clipPath id="clip0_9_11760">
<rect width="58.601" height="60.6218" fill="white"/>
</clipPath>
</defs>
</svg>
