<svg width="84" height="97" viewBox="0 0 84 97" fill="none" xmlns="http://www.w3.org/2000/svg">
<g clip-path="url(#clip0_9_11224)">
<path d="M41.9757 11.1966C42.4043 11.1966 42.8152 11.0281 43.1177 10.7289C43.4203 10.4298 43.5907 10.0236 43.5907 9.60054V1.61852C43.5907 0.737066 42.868 0.0224609 41.9757 0.0224609C41.0842 0.0224609 40.3615 0.737066 40.3615 1.61852V9.60054C40.3615 10.0236 40.5319 10.4298 40.8345 10.7289C41.1371 11.0281 41.5478 11.1966 41.9757 11.1966H41.9757Z" fill="white"/>
<path d="M18.0018 20.0805C18.3027 20.3881 18.716 20.5642 19.149 20.5676C19.582 20.571 19.9979 20.4033 20.3047 20.0999C20.6106 19.7974 20.7811 19.3853 20.7769 18.9572C20.7734 18.5291 20.5962 18.1204 20.2842 17.8229L14.5757 12.1786C14.2749 11.8701 13.8615 11.6948 13.4286 11.6915C12.9956 11.6873 12.5789 11.8558 12.2729 12.1583C11.9661 12.4617 11.7965 12.873 11.7999 13.301C11.8033 13.7291 11.9814 14.1387 12.2925 14.4353L18.0018 20.0805Z" fill="white"/>
<path d="M1.6142 43.1228H9.68693C10.5784 43.1228 11.3011 42.4082 11.3011 41.5267C11.3011 40.6453 10.5784 39.9307 9.68693 39.9307H1.6142C0.722733 39.9307 7.62939e-06 40.6453 7.62939e-06 41.5267C7.62939e-06 42.4082 0.722733 43.1228 1.6142 43.1228Z" fill="white"/>
<path d="M13.4353 71.3422C13.8631 71.3422 14.2739 71.1745 14.5765 70.8745L20.285 65.2301C20.8969 64.604 20.8884 63.6079 20.2654 62.9919C19.6424 62.3767 18.6358 62.3683 18.0026 62.9725L12.2933 68.6178C11.8322 69.0745 11.6941 69.7605 11.9438 70.3571C12.1935 70.9537 12.7816 71.3422 13.4353 71.3422L13.4353 71.3422Z" fill="white"/>
<path d="M70.516 71.3421C71.1689 71.3421 71.7578 70.9537 72.0075 70.357C72.2572 69.7604 72.1191 69.0745 71.6581 68.6177L65.9487 62.9725C65.6478 62.6649 65.2345 62.4896 64.8015 62.4854C64.3685 62.482 63.9518 62.6506 63.6458 62.9531C63.3399 63.2556 63.1694 63.6677 63.1728 64.0958C63.1771 64.5239 63.3543 64.9326 63.6663 65.2301L69.3748 70.8744C69.6773 71.1744 70.0881 71.3421 70.516 71.3421H70.516Z" fill="white"/>
<path d="M74.2666 43.1228H82.3393H82.3385C83.2308 43.1228 83.9535 42.4082 83.9535 41.5267C83.9535 40.6453 83.2308 39.9307 82.3385 39.9307H74.2666C73.3751 39.9307 72.6524 40.6453 72.6524 41.5267C72.6524 42.4082 73.3751 43.1228 74.2666 43.1228H74.2666Z" fill="white"/>
<path d="M64.8084 20.5487C65.2362 20.5487 65.647 20.3802 65.9496 20.081L71.659 14.4358C71.9701 14.1392 72.1473 13.7296 72.1516 13.3015C72.155 12.8734 71.9845 12.4622 71.6786 12.1588C71.3726 11.8563 70.9558 11.6878 70.5229 11.692C70.0899 11.6953 69.6766 11.8706 69.3757 12.1791L63.6672 17.8234C63.2053 18.2802 63.0672 18.967 63.3169 19.5627C63.5666 20.1594 64.1556 20.5487 64.8084 20.5487V20.5487Z" fill="white"/>
<path d="M30.9575 66.4303L30.0285 71.9981C29.9518 72.4607 30.0848 72.9326 30.3916 73.2899C30.6984 73.6472 31.1484 73.8529 31.6223 73.8529H31.8916L32.2691 77.4765H31.6231H31.624C30.7325 77.4765 30.0098 78.1911 30.0098 79.0734V85.9051C30.0098 86.329 30.1794 86.7352 30.482 87.0344C30.7854 87.3335 31.1962 87.5021 31.624 87.5021H33.3141L33.4641 88.9624C33.5212 90.9554 34.4791 92.8178 36.0755 94.0371C37.7519 95.3517 39.8365 96.0545 41.9758 96.0258C46.6318 96.0258 50.426 92.865 50.484 88.9624L50.634 87.502H52.3249C52.7527 87.502 53.1635 87.3335 53.4661 87.0343C53.7695 86.7352 53.9391 86.329 53.9391 85.9051V79.0733C53.9391 78.6495 53.7695 78.2433 53.4661 77.9441C53.1635 77.645 52.7528 77.4764 52.3249 77.4764H51.6789L52.0564 73.8528H52.3266C52.8005 73.8528 53.2505 73.6472 53.5573 73.2899C53.8641 72.9326 53.9971 72.4606 53.9204 71.998L52.9948 66.4302C60.7625 63.0679 66.5247 56.3491 68.6101 48.2237C70.6956 40.0975 68.8709 31.4741 63.6643 24.8579C58.4587 18.241 50.455 14.3706 41.9757 14.3706C33.4974 14.3706 25.4936 18.241 20.2872 24.8579C15.0816 31.4748 13.2567 40.0982 15.3423 48.2237C17.4278 56.3489 23.1901 63.0679 30.9576 66.4302L30.9575 66.4303ZM50.7106 80.6694V84.309H33.2416V80.6694H50.7106ZM47.2622 88.712V88.8713C47.2622 91.0547 44.8938 92.8304 41.9833 92.8304H41.9824C40.5898 92.8506 39.2314 92.4039 38.1285 91.5629C37.2651 90.9259 36.741 89.9357 36.7035 88.8713V88.712L36.5756 87.5019H47.402L47.2622 88.712ZM48.4341 77.4763H35.5179L35.1421 73.8527H48.804L48.4341 77.4763ZM37.1321 47.9126H33.9036C33.0471 47.9126 32.2255 47.5764 31.6203 46.9781C31.0144 46.3789 30.6743 45.5674 30.6743 44.7205C30.6743 43.8735 31.0144 43.0612 31.6203 42.4629C32.2254 41.8637 33.0471 41.5275 33.9036 41.5275C34.7602 41.5275 35.5809 41.8637 36.1869 42.4629C36.792 43.0612 37.1321 43.8735 37.1321 44.7205V47.9126ZM41.9755 17.5831C49.5948 17.5797 56.7726 21.1183 61.3544 27.1376C65.9362 33.156 67.3902 40.9553 65.279 48.194C63.1679 55.4319 57.7382 61.2683 50.6183 63.9507C49.899 64.2212 49.4737 64.956 49.6007 65.706L50.4223 70.6678H46.8188V65.4735C46.8188 64.592 46.096 63.8774 45.2046 63.8774C44.3131 63.8774 43.5904 64.592 43.5904 65.4735V70.662L40.3611 70.6611V51.1063H43.5904V52.7023C43.5904 53.5846 44.3131 54.2992 45.2046 54.2992C46.096 54.2992 46.8188 53.5846 46.8188 52.7023V51.1063H50.0481C51.7612 51.1063 53.4035 50.4338 54.6146 49.2363C55.8257 48.0388 56.5058 46.4141 56.5058 44.7211C56.5058 43.0273 55.8257 41.4034 54.6146 40.2058C53.4035 39.0084 51.7612 38.3351 50.0481 38.3351C48.3349 38.3351 46.6927 39.0084 45.4815 40.2058C44.2705 41.4033 43.5903 43.0272 43.5903 44.7211V47.9141L40.361 47.9133V44.7211C40.361 43.0273 39.6809 41.4034 38.4698 40.2059C37.2587 39.0084 35.6156 38.3351 33.9033 38.3351C32.1902 38.3351 30.5479 39.0084 29.3367 40.2059C28.1257 41.4033 27.4447 43.0272 27.4447 44.7211C27.4447 46.4141 28.1257 48.0388 29.3367 49.2363C30.5478 50.4338 32.1901 51.1063 33.9033 51.1063H37.1326L37.1317 70.6612H33.5282L34.3498 65.6994V65.7002C34.4777 64.9502 34.0524 64.2154 33.3331 63.944C26.2192 61.2584 20.7952 55.4227 18.6876 48.1873C16.5791 40.9519 18.0322 33.1578 22.6105 27.1417C27.1888 21.1248 34.36 17.5847 41.975 17.5829L41.9755 17.5831ZM46.8189 47.9126V44.7205C46.8189 43.8736 47.1589 43.0612 47.7649 42.4629C48.3709 41.8637 49.1916 41.5275 50.0482 41.5275C50.9047 41.5275 51.7254 41.8637 52.3314 42.4629C52.9365 43.0612 53.2775 43.8735 53.2775 44.7205C53.2775 45.5674 52.9365 46.3789 52.3314 46.9781C51.7255 47.5764 50.9047 47.9126 50.0482 47.9126H46.8189Z" fill="white"/>
<path d="M41.9756 23.9677C46.6938 23.9728 51.2167 25.8284 54.5527 29.1267C57.8885 32.425 59.7653 36.8973 59.7712 41.5625C59.7712 42.4439 60.4939 43.1585 61.3854 43.1585C62.2769 43.1585 62.9996 42.4439 62.9996 41.5625C62.9936 36.0512 60.7761 30.7675 56.8351 26.8701C52.8934 22.9736 47.5495 20.7807 41.9758 20.7749C41.0843 20.7749 40.3616 21.4895 40.3616 22.371C40.3616 23.2524 41.0843 23.9679 41.9758 23.9679L41.9756 23.9677Z" fill="white"/>
<path d="M37.132 23.968C37.132 24.8494 36.4093 25.564 35.5178 25.564C34.6264 25.564 33.9036 24.8494 33.9036 23.968C33.9036 23.0857 34.6264 22.3711 35.5178 22.3711C36.4093 22.3711 37.132 23.0857 37.132 23.968Z" fill="white"/>
<path d="M46.8193 59.0866C46.8193 59.9681 46.0966 60.6827 45.2051 60.6827C44.3136 60.6827 43.5909 59.9681 43.5909 59.0866C43.5909 58.2044 44.3136 57.4897 45.2051 57.4897C46.0966 57.4897 46.8193 58.2044 46.8193 59.0866Z" fill="white"/>
</g>
<defs>
<clipPath id="clip0_9_11224">
<rect width="84" height="96" fill="white" transform="translate(0 0.0224609)"/>
</clipPath>
</defs>
</svg>
