<svg width="80" height="90" viewBox="0 0 80 90" fill="none" xmlns="http://www.w3.org/2000/svg">
<g clip-path="url(#clip0_9_11213)">
<path fill-rule="evenodd" clip-rule="evenodd" d="M7.62846 61.3614V84.4537C7.62846 86.9976 9.67743 89.0591 12.2056 89.0591H64.0798C64.9223 89.0591 65.6052 88.3711 65.6052 87.5243C65.6052 86.6766 64.9215 85.9894 64.0798 85.9894H12.2056C11.3631 85.9894 10.6801 85.3014 10.6801 84.4545V76.7785H54.9255C55.7679 76.7785 56.4509 76.0905 56.4509 75.2437C56.4509 74.396 55.7671 73.7088 54.9255 73.7088H10.6801V62.5344C11.7787 62.814 12.9304 62.9631 14.1144 62.9631H25.937C25.9709 62.9631 26.0039 62.9615 26.0361 62.9599C26.3277 63.2946 26.6313 63.6211 26.947 63.9396C34.3013 71.3393 46.0264 71.6862 53.7903 64.9834L55.3407 66.5434C54.8664 67.3911 54.6102 68.3546 54.6102 69.3449C54.6102 70.8587 55.2086 72.311 56.2718 73.3806C60.0203 77.1539 66.4755 83.6474 70.2248 87.4198C71.2879 88.4895 72.7312 89.0917 74.2357 89.0917C75.7402 89.0917 77.1836 88.4895 78.2467 87.4198C79.3097 86.3501 79.9082 84.8979 79.9082 83.3841C79.9082 81.8703 79.3098 80.4181 78.2467 79.3484L64.2937 65.3092C63.2305 64.2395 61.7873 63.6374 60.2827 63.6374C59.2985 63.6374 58.3409 63.8951 57.4984 64.3724L55.956 62.8205C56.1115 62.874 57.0957 62.9032 57.6265 62.9032C66.6343 62.9032 74.1592 56.4678 75.9044 47.9198C76.0735 47.0908 75.5412 46.2788 74.7172 46.107C73.8917 45.9368 73.0846 46.4725 72.9155 47.3031C71.4827 54.3155 65.3969 59.6291 58.0516 59.8268C62.4242 52.2205 61.378 42.311 54.9106 35.803C47.1939 28.0387 34.6642 28.0387 26.9477 35.803C20.4617 42.3291 19.4275 52.2766 23.8444 59.8932H14.1149C8.00747 59.8932 3.0518 54.847 3.0518 48.7018C3.0518 42.6044 7.93592 37.644 13.9788 37.5721C14.7077 37.5631 15.3287 37.0348 15.46 36.3119C15.9513 33.6012 16.9903 31.08 18.4552 28.8693C18.9224 28.1651 18.7331 27.2112 18.0324 26.7404C17.3325 26.2703 16.3845 26.4608 15.9165 27.1658C14.441 29.3919 13.3408 31.8911 12.7078 34.5711C5.57835 35.2818 0 41.3411 0 48.7017C0 54.1866 3.09835 58.9791 7.62887 61.3615L7.62846 61.3614ZM38.1419 78.314C39.826 78.314 41.1936 79.6892 41.1936 81.3846C41.1936 83.0791 39.8268 84.4552 38.1419 84.4552C36.4577 84.4552 35.0901 83.08 35.0901 81.3846C35.0901 79.6901 36.4569 78.314 38.1419 78.314ZM47.5192 47.3258L38.3988 56.5025C37.8036 57.1014 37.8036 58.0747 38.3988 58.6736C38.994 59.2741 39.9613 59.2741 40.5565 58.6736L49.6769 49.4969C50.2737 48.898 50.2737 47.9247 49.6769 47.3258C49.0817 46.7269 48.1144 46.7269 47.5192 47.3258ZM41.3006 41.0688L32.1802 50.2456C31.5834 50.8444 31.5834 51.8177 32.1802 52.4166C32.7754 53.0155 33.7427 53.0155 34.3379 52.4166L43.4584 43.2399C44.0536 42.641 44.0536 41.6677 43.4584 41.0688C42.8632 40.4683 41.8959 40.4683 41.3006 41.0688ZM64.08 0.0230023H12.2058C9.67754 0.0230023 7.62867 2.08463 7.62867 4.62839V30.7268C7.62867 31.5744 8.31246 32.2616 9.15411 32.2616C9.99656 32.2616 10.6796 31.5736 10.6796 30.7268V4.62839C10.6796 3.78073 11.3633 3.09353 12.205 3.09353H18.0805L19.5817 9.63824C20.061 11.7274 21.9102 13.2072 24.0413 13.2072H52.2434C54.3745 13.2072 56.2238 11.7274 56.703 9.63824L58.2043 3.09353H64.0797C64.484 3.09353 64.8731 3.25479 65.1582 3.5433C65.4449 3.83017 65.6052 4.22159 65.6052 4.62841V27.1543C63.1858 25.9995 60.4788 25.3537 57.626 25.3537C56.0579 25.3537 54.5349 25.549 53.0794 25.9152C48.9 20.441 42.3295 16.9086 34.9431 16.9086C29.0266 16.9086 23.6312 19.1761 19.5701 22.8926C18.9476 23.4639 18.9016 24.4355 19.4678 25.062C20.0357 25.6884 21.0013 25.7346 21.6239 25.1649C25.1419 21.9445 29.8173 19.9792 34.9431 19.9792C41.6835 19.9792 47.6429 23.3764 51.2212 28.5587C51.6014 29.1098 52.2957 29.3496 52.9328 29.147C54.4139 28.677 55.9901 28.4242 57.6259 28.4242C65.4222 28.4242 71.8915 34.1868 73.0497 41.7063C73.1777 42.5443 73.959 43.1188 74.7902 42.9884C75.623 42.8595 76.194 42.0734 76.0643 41.2371C75.2919 36.2249 72.5487 31.8666 68.6569 28.9898V4.62783C68.6569 3.40577 68.1745 2.23479 67.3159 1.37176C66.4581 0.507066 65.2943 0.0224609 64.0798 0.0224609L64.08 0.0230023Z" fill="white"/>
</g>
<defs>
<clipPath id="clip0_9_11213">
<rect width="80" height="89" fill="white" transform="translate(0 0.0224609)"/>
</clipPath>
</defs>
</svg>
