<svg width="48" height="45" viewBox="0 0 48 45" fill="none" xmlns="http://www.w3.org/2000/svg">
<g clip-path="url(#clip0_9_11895)">
<path fill-rule="evenodd" clip-rule="evenodd" d="M26.3732 6.00322H27.5285C27.2451 7.84584 26.6833 9.63459 25.8626 11.3088C25.5242 11.9599 25.4289 12.7107 25.5935 13.4255C25.7587 14.141 26.1733 14.7736 26.763 15.2106C27.4777 15.7138 28.3757 15.881 29.2234 15.6674C30.0705 15.4539 30.7834 14.882 31.1744 14.1002C32.4807 11.4796 33.3069 8.64542 33.6126 5.73325C33.7729 4.23416 33.2747 2.73932 32.2469 1.63587C31.2778 0.594185 29.919 0.00193018 28.4962 2.87738e-05H26.245C25.396 -0.00368484 24.5848 0.352217 24.0129 0.980442C23.4405 1.60805 23.1614 2.4492 23.2443 3.29461C23.339 4.05283 23.7109 4.74914 24.2883 5.2499C24.8662 5.75 25.6088 6.01864 26.373 6.00316L26.3732 6.00322ZM40.6275 6.00322H41.7828C41.4988 7.84584 40.9375 9.63459 40.1169 11.3088C39.7784 11.9599 39.6831 12.7107 39.8477 13.4255C40.013 14.141 40.4276 14.7736 41.0173 15.2106C41.732 15.7138 42.63 15.881 43.4777 15.6674C44.3248 15.4539 45.0377 14.882 45.4287 14.1002C46.735 11.4796 47.5611 8.64542 47.8669 5.73325C48.0272 4.23416 47.529 2.73932 46.5012 1.63587C45.5321 0.594185 44.1732 0.00193018 42.7505 2.87738e-05H40.4993C39.6502 -0.00368484 38.8391 0.352217 38.2672 0.980442C37.6948 1.60805 37.4157 2.4492 37.4986 3.29461C37.5933 4.05283 37.9652 4.74914 38.5425 5.2499C39.1205 5.75 39.8631 6.01864 40.6273 6.00316L40.6275 6.00322ZM42.8794 22.6419C43.442 22.0792 44.205 21.7629 45.0014 21.7629L45.0011 21.7623C45.797 21.7623 46.56 22.0786 47.1231 22.6412C47.6856 23.2045 48.0018 23.9677 48.0018 24.7637V34.5188C48.0018 37.3053 46.8954 39.9774 44.9257 41.9475C42.9559 43.9176 40.2846 45.0243 37.4987 45.0243H7.04639C5.05938 45.0186 3.16707 44.1763 1.83229 42.7044C0.497541 41.2325 -0.155922 39.266 0.0315787 37.2879C0.219777 35.5758 1.00005 33.9827 2.23768 32.7857L4.48829 30.5346V10.5064C4.48829 7.7218 5.5934 5.05112 7.56187 3.08094C9.52972 1.11075 12.1993 0.00345235 14.984 0.000976562C15.7798 0.000976562 16.5428 0.317262 17.106 0.880507C17.6685 1.4432 17.9847 2.20699 17.9847 3.00295C17.9847 3.79899 17.6685 4.56215 17.106 5.1254C16.5428 5.68802 15.7798 6.00431 14.984 6.00431C13.7903 6.00431 12.6448 6.47906 11.8008 7.32329C10.9567 8.16751 10.4827 9.3126 10.4827 10.5066V32.5835C10.4839 32.8645 10.3732 33.135 10.1752 33.3343L6.2965 37.2138C5.99205 37.5165 5.90046 37.9726 6.06507 38.3694C6.22968 38.7661 6.61705 39.0236 7.0465 39.0217H37.4988C38.6924 39.0217 39.8373 38.5476 40.682 37.7034C41.526 36.8592 42.0001 35.7134 42.0001 34.5195V24.7643C42.0001 23.9683 42.3163 23.2051 42.8794 22.6419Z" fill="url(#paint0_linear_9_11895)"/>
</g>
<defs>
<linearGradient id="paint0_linear_9_11895" x1="23.9433" y1="-4.70981e-06" x2="23.9433" y2="45.0243" gradientUnits="userSpaceOnUse">
<stop stop-color="#1D4AD5"/>
<stop offset="1" stop-color="#5A08A8"/>
</linearGradient>
<clipPath id="clip0_9_11895">
<rect width="48" height="45" fill="white"/>
</clipPath>
</defs>
</svg>
