<?xml version="1.0" encoding="utf-8"?>
<!-- Generator: Adobe Illustrator 24.3.0, SVG Export Plug-In . SVG Version: 6.00 Build 0)  -->
<svg version="1.1" id="Layer_1" xmlns="http://www.w3.org/2000/svg" xmlns:xlink="http://www.w3.org/1999/xlink" x="0px" y="0px"
	 viewBox="0 0 71 67" style="enable-background:new 0 0 71 67;" xml:space="preserve">
<style type="text/css">
	.st0{fill-rule:evenodd;clip-rule:evenodd;fill:url(#SVGID_1_);}
</style>
<g>
	
		<linearGradient id="SVGID_1_" gradientUnits="userSpaceOnUse" x1="35.2302" y1="94.5" x2="35.2303" y2="30.5" gradientTransform="matrix(1 0 0 -1 0 96)">
		<stop  offset="0" style="stop-color:#5A08A8"/>
		<stop  offset="1" style="stop-color:#1D4AD5"/>
	</linearGradient>
	<path class="st0" d="M35.2,13.5c0.5,0,1.1,0.2,1.4,0.6c0.4,0.4,0.6,0.9,0.6,1.4v8c0,0.5-0.2,1-0.6,1.4c-0.4,0.4-0.9,0.6-1.4,0.6
		c-0.5,0-1.1-0.2-1.4-0.6c-0.4-0.4-0.6-0.9-0.6-1.4v-8c0-0.5,0.2-1,0.6-1.4C34.2,13.7,34.7,13.5,35.2,13.5z M51.4,45.5v-24
		c0-4.2-1.7-8.3-4.7-11.3c-3-3-7.2-4.7-11.4-4.7c-4.3,0-8.4,1.7-11.4,4.7c-3,3-4.7,7.1-4.7,11.3v24c0,4.2,1.7,8.3,4.7,11.3
		c3,3,7.2,4.7,11.4,4.7c4.3,0,8.4-1.7,11.4-4.7C49.7,53.8,51.4,49.7,51.4,45.5z M35.2,1.5c-5.4,0-10.5,2.1-14.3,5.9
		c-3.8,3.8-5.9,8.8-5.9,14.1v24c0,5.3,2.1,10.4,5.9,14.1c3.8,3.8,8.9,5.9,14.3,5.9s10.5-2.1,14.3-5.9c3.8-3.8,5.9-8.8,5.9-14.1v-24
		c0-5.3-2.1-10.4-5.9-14.1C45.7,3.6,40.6,1.5,35.2,1.5L35.2,1.5z"/>
</g>
</svg>
