<svg width="157" height="157" viewBox="0 0 157 157" fill="none" xmlns="http://www.w3.org/2000/svg">
<g filter="url(#filter0_d_8_10327)">
<circle cx="78.5" cy="63.5" r="48.5" fill="url(#paint0_linear_8_10327)"/>
</g>
<g clip-path="url(#clip0_8_10327)">
<path d="M83.31 63.3857C83.2478 63.1264 91.2286 66.0641 91.4327 66.0934L93.2154 64.3107C93.5301 63.9964 93.7072 63.5698 93.7072 63.125C93.7072 62.6802 93.5301 62.2536 93.2154 61.9393L81.2916 50.0154V50.0159C80.9773 49.7007 80.5507 49.524 80.1059 49.524C79.6611 49.524 79.2345 49.7007 78.9202 50.0159L66.9963 61.9397L66.9968 61.9393C66.6816 62.2536 66.5049 62.6801 66.5049 63.125C66.5049 63.5698 66.6816 63.9963 66.9968 64.3107L78.9206 76.2345H78.9202C79.2345 76.5492 79.661 76.7264 80.1059 76.7264C80.5507 76.7264 80.9772 76.5492 81.2916 76.2345L83.915 73.6111L81.3249 66.1777H81.3253C81.1105 65.5354 81.2157 64.8292 81.6081 64.2774C82 63.7252 82.6326 63.394 83.31 63.3856L83.31 63.3857Z" fill="white"/>
<path d="M61.186 82.0447V84.9877C61.186 85.6842 61.7507 86.2488 62.4476 86.2488C63.1441 86.2488 63.7087 85.6842 63.7087 84.9877V82.0447H86.8497L85.9668 79.5221H63.7088V46.7278H96.5031V67.8585L99.0257 68.733V46.7273H101.969C102.658 46.7166 103.21 46.1551 103.21 45.4657C103.21 44.7768 102.658 44.2152 101.968 44.2045H99.0256V41.2616C99.0159 40.5718 98.4539 40.0174 97.764 40.0174C97.0742 40.0174 96.5122 40.5718 96.5029 41.2616V44.2045H63.7086V41.2616C63.7086 40.5651 63.1439 40 62.4474 40C61.7505 40 61.1858 40.5651 61.1858 41.2616V44.2045H58.2429C57.5535 44.2148 56.9999 44.7763 56.9999 45.4661C56.9999 46.1555 57.5535 46.717 58.2429 46.7273H61.1858V79.5216H58.2429C57.554 79.5322 57.0013 80.0938 57.0013 80.7827C57.0013 81.4717 57.554 82.0332 58.2429 82.0443L61.186 82.0447Z" fill="white"/>
<path d="M82.9145 65.6277L91.0013 88.8675C91.0603 89.0375 91.2215 89.1511 91.4012 89.1498C91.581 89.1489 91.7404 89.033 91.7972 88.8626L95.4526 77.8967C95.4944 77.7715 95.5929 77.673 95.7185 77.6308L106.684 73.9758C106.855 73.919 106.97 73.7596 106.972 73.5798C106.973 73.3996 106.859 73.2389 106.689 73.1799L83.4495 65.0926C83.2973 65.0398 83.1277 65.0784 83.0141 65.1925C82.9 65.3066 82.8609 65.4757 82.9142 65.628L82.9145 65.6277Z" fill="white"/>
</g>
<defs>
<filter id="filter0_d_8_10327" x="0" y="0" width="157" height="157" filterUnits="userSpaceOnUse" color-interpolation-filters="sRGB">
<feFlood flood-opacity="0" result="BackgroundImageFix"/>
<feColorMatrix in="SourceAlpha" type="matrix" values="0 0 0 0 0 0 0 0 0 0 0 0 0 0 0 0 0 0 127 0" result="hardAlpha"/>
<feOffset dy="15"/>
<feGaussianBlur stdDeviation="15"/>
<feComposite in2="hardAlpha" operator="out"/>
<feColorMatrix type="matrix" values="0 0 0 0 0.113725 0 0 0 0 0.290196 0 0 0 0 0.835294 0 0 0 0.26 0"/>
<feBlend mode="normal" in2="BackgroundImageFix" result="effect1_dropShadow_8_10327"/>
<feBlend mode="normal" in="SourceGraphic" in2="effect1_dropShadow_8_10327" result="shape"/>
</filter>
<linearGradient id="paint0_linear_8_10327" x1="78.3837" y1="15" x2="78.3837" y2="112" gradientUnits="userSpaceOnUse">
<stop stop-color="#1D4AD5"/>
<stop offset="1" stop-color="#5A08A8"/>
</linearGradient>
<clipPath id="clip0_8_10327">
<rect width="50" height="49.2045" fill="white" transform="translate(57 40)"/>
</clipPath>
</defs>
</svg>
