<svg width="157" height="157" viewBox="0 0 157 157" fill="none" xmlns="http://www.w3.org/2000/svg">
<g filter="url(#filter0_d_8_10324)">
<circle cx="78.5" cy="63.5" r="48.5" fill="url(#paint0_linear_8_10324)"/>
</g>
<g clip-path="url(#clip0_8_10324)">
<path d="M95.7528 60.8167L88.8418 58.0854H88.8422C88.8241 58.0775 88.8051 58.0726 88.7856 58.0717C88.7671 58.0717 88.749 58.0792 88.7357 58.0925C88.7114 58.1186 88.7087 58.1486 88.7286 58.1968L91.4591 65.1096C91.4754 65.1577 91.5143 65.1948 91.5633 65.2085L91.6526 65.1909L92.5695 62.9328L92.57 62.9324C92.7555 62.479 93.1148 62.118 93.5682 61.9306L95.8306 61.012C95.8372 61.0093 95.843 61.0058 95.8483 61.0013C95.8342 60.8546 95.7869 60.8299 95.7528 60.8166L95.7528 60.8167Z" fill="white"/>
<path d="M78.0006 64.3213C78.0006 64.814 77.6011 65.2139 77.108 65.2139C76.6148 65.2139 76.2149 64.814 76.2149 64.3213C76.2149 63.8281 76.6148 63.4282 77.108 63.4282C77.6011 63.4282 78.0006 63.8281 78.0006 64.3213Z" fill="white"/>
<path d="M53.0005 79.5C53.0005 79.9737 53.1888 80.428 53.5237 80.7629C53.8587 81.0974 54.3129 81.2856 54.7862 81.2856H101.216C101.69 81.2856 102.144 81.0974 102.479 80.7629C102.814 80.428 103.002 79.9737 103.002 79.5V75.9283H53.0006L53.0005 79.5ZM76.2155 77.7144H79.7872C80.2803 77.7144 80.6798 78.1138 80.6798 78.607C80.6798 79.1001 80.2803 79.5 79.7872 79.5H76.2155C75.7223 79.5 75.3229 79.1001 75.3229 78.607C75.3229 78.1138 75.7223 77.7144 76.2155 77.7144Z" fill="white"/>
<path d="M69.0718 65.2138C68.7121 65.2134 68.3874 65.429 68.2482 65.7604C68.1085 66.0923 68.1819 66.4749 68.4338 66.7317L68.4444 66.7387L68.4514 66.7494V66.7498C68.6649 66.9557 68.9671 67.0419 69.257 66.98C69.5473 66.9182 69.7877 66.7162 69.8991 66.4414C70.01 66.1661 69.9773 65.8541 69.8116 65.608C69.6459 65.3618 69.3688 65.2142 69.0718 65.2138V65.2138Z" fill="white"/>
<path d="M64.608 55.3925C64.608 55.8857 64.2086 56.2856 63.7154 56.2856C63.2223 56.2856 62.8224 55.8857 62.8224 55.3925C62.8224 54.8994 63.2223 54.4999 63.7154 54.4999C64.2086 54.4999 64.608 54.8994 64.608 55.3925Z" fill="white"/>
<path d="M71.7506 47.3575C71.7506 48.3438 70.9512 49.1431 69.9649 49.1431C68.9787 49.1431 68.1793 48.3437 68.1793 47.3575C68.1793 46.3712 68.9787 45.5718 69.9649 45.5718C70.9512 45.5718 71.7506 46.3712 71.7506 47.3575Z" fill="white"/>
<path d="M101.215 42H54.7856C54.3124 42 53.8581 42.1882 53.5232 42.5232C53.1882 42.8581 53 43.3124 53 43.7856V74.1431H103.001V43.7856C103.001 43.3124 102.813 42.8581 102.478 42.5232C102.143 42.1882 101.689 42 101.215 42H101.215ZM80.4836 53.2716L78.4845 55.7718C78.7501 56.1934 78.8919 56.6808 78.8932 57.1792C78.8932 58.1359 78.3829 59.02 77.5539 59.4986C76.7254 59.9772 75.7041 59.9772 74.8751 59.4986C74.0466 59.0201 73.5358 58.1359 73.5358 57.1792C73.538 57.021 73.5539 56.8632 73.5831 56.7077L70.857 55.1469V60.1999L75.2498 62.3991L75.2502 62.3987C75.8309 61.8348 76.6355 61.5644 77.4389 61.6638C78.2423 61.7628 78.9573 62.2201 79.3836 62.9081C79.8096 63.5962 79.9015 64.4402 79.6324 65.2033C79.3637 65.9669 78.7637 66.5674 78 66.8365V71.4648C78 71.958 77.6006 72.3579 77.1074 72.3579C76.6143 72.3579 76.2144 71.958 76.2144 71.4648V66.8365C75.6289 66.6558 75.1282 66.2696 74.8061 65.7482C74.4836 65.2272 74.3607 64.6068 74.461 64.0022L70.6467 62.0898L70.3661 63.7774C71.0642 64.1614 71.5543 64.8366 71.7027 65.6191C71.8512 66.4021 71.6422 67.2098 71.1331 67.8227C70.6241 68.4352 69.868 68.7887 69.0712 68.7865C68.6736 68.7847 68.2812 68.6932 67.9241 68.5182L64.3452 72.0971C63.9948 72.4356 63.438 72.4307 63.0939 72.086C62.7492 71.7418 62.7443 71.185 63.0828 70.8347L66.6608 67.2549C66.4858 66.8979 66.3943 66.5055 66.3925 66.1078C66.3943 65.479 66.617 64.8709 67.0213 64.3901C67.4261 63.9089 67.9873 63.5854 68.6064 63.4763L69.0713 60.677V54.7902L66.3758 55.56C66.3431 56.0814 66.1579 56.5821 65.8433 56.9992C65.5292 57.4164 65.0992 57.7323 64.6069 57.9073V60.7504C64.6069 61.2435 64.2074 61.6434 63.7143 61.6434C63.2212 61.6434 62.8213 61.2435 62.8213 60.7504V57.9073C62.017 57.6245 61.3961 56.9749 61.1497 56.1583C60.9035 55.3422 61.0617 54.4575 61.5752 53.777C62.0887 53.096 62.8965 52.7014 63.7488 52.7147C64.6012 52.7275 65.3966 53.1464 65.8893 53.8424L69.0713 52.9334V50.8018C67.9397 50.5097 67.0224 49.682 66.6158 48.5857C66.2093 47.4898 66.3648 46.2641 67.0325 45.3042C67.7002 44.3444 68.7952 43.7722 69.9644 43.7722C71.1336 43.7722 72.2286 44.3445 72.8963 45.3042C73.564 46.264 73.7195 47.4898 73.313 48.5857C72.9065 49.682 71.9891 50.5097 70.857 50.8018V53.0894L74.4738 55.1592H74.4743C74.8234 54.8464 75.2516 54.6343 75.712 54.5463C76.1724 54.458 76.6483 54.4973 77.0884 54.659L79.0884 52.1588V52.1592C79.4004 51.7889 79.9505 51.7346 80.3288 52.0368C80.7071 52.3391 80.7756 52.8874 80.4835 53.2732L80.4836 53.2716ZM96.5085 62.6656L94.2514 63.5834L93.3137 65.8622C93.178 66.2029 92.942 66.4941 92.6371 66.6974C92.3323 66.9007 91.973 67.0063 91.6062 67.0005H91.5939C91.2054 66.9983 90.8263 66.8795 90.5059 66.659C90.186 66.4389 89.9394 66.1274 89.7985 65.765L87.0681 58.854C86.8803 58.3984 86.8811 57.8867 87.0703 57.4316C87.2594 56.9764 87.6213 56.6145 88.0764 56.4258C88.532 56.2372 89.0437 56.2367 89.4993 56.4245L96.4081 59.1558C96.7704 59.2968 97.082 59.5429 97.3025 59.8629C97.523 60.1832 97.6418 60.5619 97.644 60.9508C97.6516 61.318 97.5468 61.679 97.344 61.9857C97.1412 62.2919 96.8495 62.5292 96.5084 62.6657L96.5085 62.6656Z" fill="white"/>
<path d="M77.108 57.1787C77.108 57.6719 76.7081 58.0714 76.215 58.0714C75.7219 58.0714 75.3224 57.6719 75.3224 57.1787C75.3224 56.6856 75.7218 56.2857 76.215 56.2857C76.7081 56.2857 77.108 56.6856 77.108 57.1787Z" fill="white"/>
<path d="M69.0718 83.0713H86.9293V84.8569H69.0718V83.0713Z" fill="white"/>
</g>
<defs>
<filter id="filter0_d_8_10324" x="0" y="0" width="157" height="157" filterUnits="userSpaceOnUse" color-interpolation-filters="sRGB">
<feFlood flood-opacity="0" result="BackgroundImageFix"/>
<feColorMatrix in="SourceAlpha" type="matrix" values="0 0 0 0 0 0 0 0 0 0 0 0 0 0 0 0 0 0 127 0" result="hardAlpha"/>
<feOffset dy="15"/>
<feGaussianBlur stdDeviation="15"/>
<feComposite in2="hardAlpha" operator="out"/>
<feColorMatrix type="matrix" values="0 0 0 0 0.113725 0 0 0 0 0.290196 0 0 0 0 0.835294 0 0 0 0.26 0"/>
<feBlend mode="normal" in2="BackgroundImageFix" result="effect1_dropShadow_8_10324"/>
<feBlend mode="normal" in="SourceGraphic" in2="effect1_dropShadow_8_10324" result="shape"/>
</filter>
<linearGradient id="paint0_linear_8_10324" x1="78.3837" y1="15" x2="78.3837" y2="112" gradientUnits="userSpaceOnUse">
<stop stop-color="#1D4AD5"/>
<stop offset="1" stop-color="#5A08A8"/>
</linearGradient>
<clipPath id="clip0_8_10324">
<rect width="50" height="42.8733" fill="white" transform="translate(53 42)"/>
</clipPath>
</defs>
</svg>
