<svg width="157" height="157" viewBox="0 0 157 157" fill="none" xmlns="http://www.w3.org/2000/svg">
<g filter="url(#filter0_d_8_10323)">
<circle cx="78.5" cy="63.5" r="48.5" fill="url(#paint0_linear_8_10323)"/>
</g>
<g clip-path="url(#clip0_8_10323)">
<path d="M100.806 62.6597H88.7603C87.9207 62.6597 87.1152 62.9934 86.5218 63.5873C85.9279 64.1806 85.5942 64.9861 85.5942 65.8258V87.7536C85.5966 88.5917 85.9314 89.3947 86.5248 89.9861C87.1186 90.578 87.9221 90.9103 88.7602 90.9103H100.806C101.643 90.9103 102.446 90.5775 103.038 89.9856C103.63 89.3938 103.962 88.5907 103.962 87.7536V65.8258C103.965 64.9872 103.634 64.1817 103.041 63.5878C102.449 62.9935 101.645 62.6597 100.806 62.6597L100.806 62.6597ZM93.4996 63.7648H96.057C96.2894 63.7401 96.5218 63.8152 96.6958 63.9715C96.8694 64.1277 96.9688 64.3507 96.9688 64.5846C96.9688 64.8185 96.8694 65.0415 96.6958 65.1978C96.5218 65.354 96.2894 65.4292 96.057 65.4044H93.4996C93.0808 65.3594 92.7634 65.0059 92.7634 64.5846C92.7634 64.1633 93.0808 63.8098 93.4996 63.7648V63.7648ZM101.377 86.2445H101.377C101.377 86.6965 101.014 87.0639 100.562 87.0688H89.004C88.552 87.0639 88.1891 86.6965 88.1891 86.2445V67.3243C88.1891 66.8743 88.5535 66.5094 89.004 66.5094H100.525C100.741 66.5094 100.948 66.595 101.101 66.7482C101.254 66.901 101.34 67.1082 101.34 67.3243L101.377 86.2445ZM54.8148 36.0015C54.3649 36.0015 53.9999 36.3664 53.9999 36.8164V86.7784C53.9999 87.2284 54.3649 87.5933 54.8148 87.5933H66.4949V36.0021L54.8148 36.0015ZM60.4348 40.994H64.0315V40.9935C64.4503 41.0385 64.7683 41.3921 64.7683 41.8134C64.7683 42.2347 64.4503 42.5882 64.0315 42.6332H60.463C60.2302 42.6579 59.9982 42.5828 59.8242 42.4265C59.6501 42.2703 59.5508 42.0473 59.5508 41.8134C59.5508 41.5795 59.6501 41.3565 59.8242 41.2002C59.9982 41.044 60.2301 40.9688 60.463 40.9935L60.4348 40.994ZM56.4163 50.9787H58.093C58.3254 50.954 58.5578 51.0287 58.7319 51.1854C58.9054 51.3417 59.0048 51.5642 59.0048 51.7985C59.0048 52.0324 58.9054 52.2549 58.7319 52.4112C58.5578 52.5679 58.3254 52.6426 58.093 52.6179H56.4163C55.9975 52.5729 55.6801 52.2193 55.6801 51.7985C55.6801 51.3773 55.9975 51.0237 56.4163 50.9787V50.9787ZM55.5639 46.8104C55.5614 46.5928 55.6465 46.3832 55.7992 46.2284C55.9525 46.0731 56.1612 45.9861 56.3787 45.9861H58.0648C58.4836 46.0311 58.8016 46.3846 58.8016 46.8059C58.8016 47.2272 58.4836 47.5807 58.0648 47.6252H56.4163C56.1938 47.6356 55.9768 47.5545 55.8156 47.4003C55.6549 47.2465 55.5639 47.0334 55.5639 46.8104H55.5639ZM56.3787 53.4702H59.7322C59.9646 53.4455 60.197 53.5202 60.371 53.6769C60.5451 53.8332 60.644 54.0557 60.644 54.2896C60.644 54.5234 60.5451 54.7464 60.371 54.9027C60.197 55.0589 59.9646 55.1341 59.7322 55.1094H56.4163C55.9975 55.0644 55.6801 54.7108 55.6801 54.2896C55.6801 53.8683 55.9975 53.5152 56.4163 53.4702L56.3787 53.4702ZM60.5471 52.6178C60.3147 52.6425 60.0823 52.5678 59.9083 52.4111C59.7347 52.2548 59.6353 52.0323 59.6353 51.7985C59.6353 51.5641 59.7347 51.3416 59.9083 51.1853C60.0823 51.0286 60.3147 50.9539 60.5471 50.9786H63.9005C64.3193 51.0236 64.6368 51.3772 64.6368 51.7985C64.6368 52.2193 64.3193 52.5728 63.9005 52.6178L60.5471 52.6178ZM59.6106 46.8103C59.6081 46.5913 59.6942 46.3801 59.8489 46.2249C60.0042 46.0696 60.2153 45.9836 60.4349 45.9861H62.1209C62.5397 46.031 62.8572 46.3846 62.8572 46.8059C62.8572 47.2272 62.5397 47.5807 62.1209 47.6252H60.463C60.2449 47.6277 60.0353 47.5431 59.8805 47.3898C59.7257 47.237 59.6387 47.0284 59.6387 46.8103L59.6106 46.8103ZM62.3549 53.4702H64.0316C64.4504 53.5152 64.7684 53.8682 64.7684 54.2895C64.7684 54.7108 64.4504 55.0643 64.0316 55.1093H62.3831C62.1507 55.1341 61.9183 55.0589 61.7443 54.9027C61.5702 54.7464 61.4708 54.5234 61.4708 54.2895C61.4708 54.0556 61.5702 53.8331 61.7443 53.6769C61.9183 53.5201 62.1507 53.4455 62.3831 53.4702L62.3549 53.4702ZM56.4164 40.9751H57.7746C58.1935 41.0196 58.5109 41.3732 58.5109 41.7945C58.5109 42.2157 58.1935 42.5693 57.7746 42.6143H56.4164C55.9976 42.5693 55.6802 42.2157 55.6802 41.7945C55.6802 41.3732 55.9976 41.0196 56.4164 40.9751ZM56.4164 43.4761L63.0576 43.4756C63.4764 43.5206 63.7938 43.8742 63.7938 44.2955C63.7938 44.7168 63.4764 45.0703 63.0576 45.1153H56.4164C56.184 45.14 55.9516 45.0649 55.7776 44.9086C55.604 44.7524 55.5046 44.5294 55.5046 44.2955C55.5046 44.0616 55.604 43.8386 55.7776 43.6823C55.9516 43.5261 56.184 43.4509 56.4164 43.4756V43.4761ZM57.5403 75.0698L56.4164 75.0693C55.9976 75.0243 55.6802 74.6708 55.6802 74.2495C55.6802 73.8282 55.9976 73.4752 56.4164 73.4302H57.5403C57.9591 73.4752 58.2771 73.8282 58.2771 74.2495C58.2771 74.6708 57.9591 75.0243 57.5403 75.0693V75.0698ZM57.5403 72.5688L56.4164 72.5683C55.9976 72.5233 55.6802 72.1703 55.6802 71.749C55.6802 71.3277 55.9976 70.9741 56.4164 70.9291H57.5403C57.9591 70.9741 58.2771 71.3277 58.2771 71.749C58.2771 72.1703 57.9591 72.5233 57.5403 72.5683V72.5688ZM57.5403 70.0772L56.4164 70.0767C55.9976 70.0322 55.6802 69.6786 55.6802 69.2573C55.6802 68.836 55.9976 68.4825 56.4164 68.4375H57.5403C57.9591 68.4825 58.2771 68.836 58.2771 69.2573C58.2771 69.6786 57.9591 70.0322 57.5403 70.0767V70.0772ZM55.564 64.3161C55.5536 64.0862 55.6397 63.8622 55.8013 63.6986C55.9635 63.5349 56.1865 63.4464 56.4165 63.4543H62.0365C62.2689 63.4296 62.5013 63.5047 62.6753 63.661C62.8494 63.8172 62.9482 64.0402 62.9482 64.2741C62.9482 64.508 62.8494 64.731 62.6753 64.8873C62.5013 65.0435 62.2689 65.1187 62.0365 65.0934H56.4165C56.2004 65.1038 55.9887 65.0277 55.829 64.8818C55.6693 64.7359 55.5739 64.5322 55.564 64.3161V64.3161ZM64.0411 75.088H60.4162C59.9973 75.043 59.6794 74.6895 59.6794 74.2682C59.6794 73.8469 59.9973 73.4934 60.4162 73.4489H64.0787C64.4975 73.4934 64.8149 73.8469 64.8149 74.2682C64.8149 74.6895 64.4975 75.043 64.0787 75.088H64.0411ZM64.0411 72.587H60.4162C59.9973 72.542 59.6794 72.1885 59.6794 71.7672C59.6794 71.3464 59.9973 70.9929 60.4162 70.9479H64.0787C64.4975 70.9929 64.8149 71.3464 64.8149 71.7672C64.8149 72.1885 64.4975 72.542 64.0787 72.587H64.0411ZM64.0411 70.0954H60.4162C59.9973 70.0504 59.6794 69.6973 59.6794 69.2761C59.6794 68.8548 59.9973 68.5012 60.4162 68.4562H64.0787C64.4975 68.5012 64.8149 68.8548 64.8149 69.2761C64.8149 69.6973 64.4975 70.0504 64.0787 70.0954H64.0411ZM64.0411 62.6018L56.4165 62.6023C55.9977 62.5573 55.6803 62.2038 55.6803 61.7825C55.6803 61.3612 55.9977 61.0077 56.4165 60.9627H64.0787C64.4975 61.0077 64.8149 61.3612 64.8149 61.7825C64.8149 62.2038 64.4975 62.5573 64.0787 62.6023L64.0411 62.6018ZM64.0411 60.0821L56.4165 60.0826C55.9977 60.0376 55.6803 59.6841 55.6803 59.2628C55.6803 58.8415 55.9977 58.4879 56.4165 58.4434H64.0787C64.4975 58.4879 64.8149 58.8415 64.8149 59.2628C64.8149 59.6841 64.4975 60.0376 64.0787 60.0826L64.0411 60.0821ZM94.7829 36.0011H68.1348V87.5922H83.955V65.8239C83.955 64.5497 84.4613 63.3273 85.3627 62.4259C86.2636 61.525 87.4859 61.0187 88.7602 61.0187H95.5982V36.8149C95.5982 36.5988 95.5121 36.3916 95.3594 36.2383C95.2066 36.0855 94.9994 36 94.7833 36L94.7829 36.0011ZM71.0563 41.8174C71.0489 41.5949 71.1324 41.3788 71.2882 41.2196C71.4439 41.0604 71.658 40.9719 71.8805 40.9748H76.8731C77.0911 40.9748 77.2998 41.0619 77.4526 41.2166C77.6059 41.3714 77.6904 41.5811 77.688 41.7991V46.7916V46.7912C77.688 47.2431 77.3245 47.6105 76.8731 47.6154H71.8805C71.4256 47.6154 71.0563 47.2465 71.0563 46.7912V41.8174ZM71.8805 58.4807H77.7068V58.4812C77.9391 58.456 78.1715 58.5311 78.3456 58.6874C78.5197 58.8436 78.619 59.0666 78.619 59.3005C78.619 59.5344 78.5197 59.7574 78.3456 59.9137C78.1715 60.0699 77.9392 60.1451 77.7068 60.1203H71.8805C71.6482 60.1451 71.4162 60.0699 71.2422 59.9137C71.0681 59.7574 70.9688 59.5344 70.9688 59.3005C70.9688 59.0666 71.0681 58.8436 71.2422 58.6874C71.4162 58.5311 71.6481 58.456 71.8805 58.4812V58.4807ZM71.0563 54.2936V54.2941C71.0538 54.0746 71.1398 53.8634 71.2951 53.7082C71.4504 53.5534 71.6615 53.4674 71.8805 53.4698H80.629C81.0483 53.5148 81.3658 53.8679 81.3658 54.2892C81.3658 54.7105 81.0483 55.064 80.629 55.109H71.8805C71.663 55.1115 71.4533 55.0269 71.2986 54.8736C71.1438 54.7203 71.0563 54.5117 71.0563 54.2941L71.0563 54.2936ZM81.3035 74.6949L80.2266 74.8541C79.92 74.9021 79.6644 75.1142 79.5615 75.4069C79.5081 75.5874 79.4394 75.7629 79.3553 75.9315C79.2075 76.2035 79.2332 76.5372 79.4211 76.784L80.0673 77.6646L79.4493 78.2827L78.578 77.6364V77.6359C78.3278 77.4505 77.9946 77.4213 77.7162 77.5613C77.5505 77.6463 77.378 77.7185 77.201 77.7768C76.9038 77.8698 76.6857 78.1245 76.6392 78.4325L76.48 79.5094H75.6088L75.4496 78.4419C75.4026 78.1338 75.1845 77.8792 74.8874 77.7862C74.7109 77.7264 74.5388 77.6542 74.3721 77.5707C74.0938 77.4307 73.7605 77.4599 73.5108 77.6453L72.6396 78.2916L72.0215 77.6735L72.6677 76.7929V76.7934C72.8537 76.5466 72.8828 76.2158 72.7424 75.9409C72.6554 75.7728 72.5832 75.5973 72.5268 75.4163C72.4309 75.1226 72.1772 74.9085 71.8712 74.8635L70.7942 74.6949V73.8236L71.8712 73.6644C72.1792 73.6179 72.4339 73.3999 72.5268 73.1027C72.5852 72.9257 72.6574 72.7531 72.7424 72.5875C72.8823 72.3091 72.8532 71.9758 72.6677 71.7256L72.0215 70.8544L72.6396 70.2363L73.5108 70.8826C73.762 71.0645 74.0933 71.0932 74.3721 70.9577C74.5368 70.8702 74.7094 70.798 74.8874 70.7422C75.185 70.6438 75.4021 70.3871 75.4496 70.0771L75.6088 69.0002H76.48L76.6392 70.0771C76.6867 70.3871 76.9038 70.6438 77.201 70.7422C77.3795 70.7961 77.5525 70.8682 77.7162 70.9577C77.9956 71.0932 78.3263 71.0645 78.578 70.8826L79.4493 70.2363L80.0673 70.8544L79.4211 71.7256C79.2391 71.9773 79.2104 72.3081 79.3459 72.5875C79.4354 72.7512 79.5076 72.9242 79.5615 73.1027C79.6599 73.3999 79.917 73.6169 80.2266 73.6644L81.3035 73.8236L81.3035 74.6949ZM83.0925 62.6117H71.8524H71.8529C71.62 62.6369 71.3881 62.5618 71.214 62.4055C71.04 62.2493 70.9406 62.0263 70.9406 61.7924C70.9406 61.5585 71.0399 61.3355 71.214 61.1792C71.3881 61.023 71.62 60.9478 71.8529 60.9726H83.093H83.0925C83.5118 61.0176 83.8292 61.3711 83.8292 61.7924C83.8292 62.2137 83.5118 62.5672 83.0925 62.6117V62.6117ZM83.0925 60.1107L80.2265 60.1112C79.8077 60.0662 79.4898 59.7127 79.4898 59.2914C79.4898 58.8701 79.8077 58.5165 80.2265 58.472H83.1117H83.1112C83.3441 58.4468 83.576 58.522 83.7501 58.6782C83.9241 58.8345 84.0235 59.0575 84.0235 59.2914C84.0235 59.5253 83.9241 59.7483 83.7501 59.9045C83.576 60.0608 83.3441 60.1359 83.1112 60.1112L83.0925 60.1107ZM83.0925 52.6172H71.8524L71.8529 52.6176C71.62 52.6424 71.3881 52.5677 71.214 52.411C71.04 52.2547 70.9406 52.0322 70.9406 51.7983C70.9406 51.5639 71.0399 51.3414 71.214 51.1852C71.3881 51.0284 71.62 50.9538 71.8529 50.9785H83.093H83.0925C83.3254 50.9538 83.5573 51.0284 83.7313 51.1852C83.9054 51.3414 84.0048 51.5639 84.0048 51.7983C84.0048 52.0322 83.9054 52.2547 83.7313 52.411C83.5573 52.5677 83.3254 52.6424 83.0925 52.6176V52.6172ZM87.6632 46.8097L87.6637 46.8102C87.6637 47.2621 87.3003 47.6295 86.8489 47.6344H81.8657C81.4143 47.6295 81.0508 47.2621 81.0508 46.8102V41.8176C81.0429 41.5971 81.1255 41.3825 81.2793 41.2233C81.433 41.0646 81.6447 40.9746 81.8657 40.9751H86.8677C87.0853 40.9751 87.294 41.0621 87.4472 41.2169C87.6 41.3717 87.6851 41.5813 87.6826 41.7994L87.6632 46.8097ZM77.7349 74.2641C77.7349 74.946 77.324 75.5606 76.694 75.8217C76.0641 76.0828 75.3387 75.9384 74.8566 75.4563C74.3744 74.9742 74.2301 74.2488 74.4912 73.6188C74.7522 72.9889 75.3669 72.578 76.0488 72.578C76.9798 72.578 77.7348 73.333 77.7348 74.2641L77.7349 74.2641Z" fill="white"/>
</g>
<defs>
<filter id="filter0_d_8_10323" x="0" y="0" width="157" height="157" filterUnits="userSpaceOnUse" color-interpolation-filters="sRGB">
<feFlood flood-opacity="0" result="BackgroundImageFix"/>
<feColorMatrix in="SourceAlpha" type="matrix" values="0 0 0 0 0 0 0 0 0 0 0 0 0 0 0 0 0 0 127 0" result="hardAlpha"/>
<feOffset dy="15"/>
<feGaussianBlur stdDeviation="15"/>
<feComposite in2="hardAlpha" operator="out"/>
<feColorMatrix type="matrix" values="0 0 0 0 0.113725 0 0 0 0 0.290196 0 0 0 0 0.835294 0 0 0 0.26 0"/>
<feBlend mode="normal" in2="BackgroundImageFix" result="effect1_dropShadow_8_10323"/>
<feBlend mode="normal" in="SourceGraphic" in2="effect1_dropShadow_8_10323" result="shape"/>
</filter>
<linearGradient id="paint0_linear_8_10323" x1="78.3837" y1="15" x2="78.3837" y2="112" gradientUnits="userSpaceOnUse">
<stop stop-color="#1D4AD5"/>
<stop offset="1" stop-color="#5A08A8"/>
</linearGradient>
<clipPath id="clip0_8_10323">
<rect width="50" height="54.9367" fill="white" transform="translate(54 36)"/>
</clipPath>
</defs>
</svg>
