<svg width="157" height="157" viewBox="0 0 157 157" fill="none" xmlns="http://www.w3.org/2000/svg">
<g filter="url(#filter0_d_8_10325)">
<circle cx="78.5" cy="63.5" r="48.5" fill="url(#paint0_linear_8_10325)"/>
</g>
<g clip-path="url(#clip0_8_10325)">
<path d="M90.4805 46.6493H83.7531C83.2225 46.6493 82.7923 46.2186 82.7923 45.688V38.9611H57.8066V50.4932H71.2598C71.515 50.4932 71.759 50.5942 71.9396 50.7748C72.1197 50.9549 72.2207 51.1994 72.2207 51.454V64.9086C72.2207 65.1633 72.1197 65.4078 71.9396 65.5879C71.759 65.768 71.515 65.8694 71.2598 65.8694H57.8066V85.0889H72.2209V70.6746C72.2112 70.6041 72.2112 70.5331 72.2209 70.4631C72.2366 70.389 72.2625 70.318 72.298 70.2515C72.3345 70.1739 72.3832 70.1029 72.442 70.04C72.4918 69.9872 72.5466 69.939 72.6054 69.8959H72.7018C72.7485 69.867 72.8007 69.8472 72.8555 69.8386C72.9524 69.7706 73.0645 69.7275 73.1822 69.7133H90.4809L90.4805 46.6493ZM64.5338 48.571C63.5141 48.571 62.5365 48.1662 61.8156 47.4453C61.0947 46.7244 60.6899 45.7469 60.6899 44.7271C60.6899 43.7074 61.0947 42.7299 61.8156 42.009C62.5365 41.2881 63.514 40.8832 64.5338 40.8832C65.553 40.8832 66.531 41.2881 67.252 42.009C67.9728 42.7298 68.3777 43.7074 68.3777 44.7271C68.3777 45.7468 67.9728 46.7244 67.252 47.4453C66.5311 48.1662 65.553 48.571 64.5338 48.571ZM76.0658 47.6102H71.2607C70.73 47.6102 70.2998 47.18 70.2998 46.6494C70.2998 46.1182 70.73 45.688 71.2607 45.688H76.0658C76.5965 45.688 77.0267 46.1182 77.0267 46.6494C77.0267 47.18 76.5965 47.6102 76.0658 47.6102ZM79.9097 43.7663H71.2607C70.73 43.7663 70.2998 43.3356 70.2998 42.805C70.2998 42.2743 70.73 41.8441 71.2607 41.8441H79.9097C80.4404 41.8441 80.8706 42.2743 80.8706 42.805C80.8706 43.3356 80.4404 43.7663 79.9097 43.7663Z" fill="white"/>
<path d="M88.5584 79.3234C88.4078 79.3224 88.2596 79.2859 88.1257 79.2174L74.1439 72.2308V88.9334H102.974V72.2308L88.9907 79.2174C88.8567 79.2859 88.7086 79.3224 88.5584 79.3234H88.5584ZM79.429 87.0116V87.0111C78.5366 87.0111 77.6813 86.657 77.0508 86.0259C76.4197 85.3953 76.0656 84.5396 76.0656 83.6477C76.0656 82.7559 76.4197 81.9001 77.0508 81.2696C77.6814 80.6385 78.5366 80.2844 79.429 80.2844C80.3208 80.2844 81.1766 80.6385 81.8071 81.2696C82.4377 81.9001 82.7923 82.7559 82.7923 83.6477C82.7923 84.5396 82.4377 85.3954 81.8071 86.0259C81.1766 86.657 80.3208 87.0111 79.429 87.0111V87.0116ZM90.4807 87.0111H85.6755C85.1448 87.0111 84.7146 86.5809 84.7146 86.0503C84.7146 85.5196 85.1448 85.0889 85.6755 85.0889H90.4807C91.0113 85.0889 91.4415 85.5196 91.4415 86.0503C91.4415 86.5809 91.0113 87.0111 90.4807 87.0111ZM95.2858 82.2059L95.2853 82.2064C95.2853 82.4611 95.1844 82.7056 95.0038 82.8857C94.8237 83.0658 94.5792 83.1673 94.3245 83.1673H85.6754C85.1448 83.1673 84.7146 82.7371 84.7146 82.2064C84.7146 81.6753 85.1448 81.2451 85.6754 81.2451H94.3245C94.5792 81.2451 94.8237 81.3465 95.0038 81.5266C95.1844 81.7067 95.2853 81.9513 95.2853 82.2064L95.2858 82.2059Z" fill="white"/>
<path d="M88.5584 77.2858L99.8694 71.6348H77.2473L88.5584 77.2858Z" fill="white"/>
<path d="M70.2987 52.4143H53V63.9464H70.2987V52.4143ZM57.8058 60.1025C57.0408 60.1025 56.3078 59.7986 55.767 59.2583C55.2262 58.7175 54.9229 57.984 54.9229 57.2195C54.9229 56.455 55.2262 55.7214 55.767 55.1812C56.3078 54.6404 57.0409 54.3365 57.8058 54.3365C58.5704 54.3365 59.3034 54.6404 59.8442 55.1812C60.385 55.7215 60.6888 56.455 60.6888 57.2195C60.6888 57.984 60.385 58.7176 59.8442 59.2583C59.3034 59.7986 58.5703 60.1025 57.8058 60.1025ZM67.4157 62.0247H63.5718C63.0407 62.0247 62.6105 61.5945 62.6105 61.0634C62.6105 60.5327 63.0407 60.1025 63.5718 60.1025H67.4157C67.9464 60.1025 68.3765 60.5327 68.3765 61.0634C68.3765 61.5945 67.9464 62.0247 67.4157 62.0247ZM67.4157 59.1417H63.5718C63.0407 59.1417 62.6105 58.7115 62.6105 58.1804C62.6105 57.6497 63.0407 57.2195 63.5718 57.2195H67.4157C67.9464 57.2195 68.3765 57.6497 68.3765 58.1804C68.3765 58.7115 67.9464 59.1417 67.4157 59.1417Z" fill="white"/>
<path d="M84.7143 40.3156V44.7267H89.1253L84.7143 40.3156Z" fill="white"/>
<path d="M100.792 68.6935C100.611 68.9355 100.325 69.078 100.023 69.078C99.7208 69.078 99.4357 68.9355 99.2546 68.6935V68.6453V68.6458C97.9279 66.851 97.2107 64.6787 97.2076 62.4471V45.6874C97.2076 45.1568 97.6377 44.7266 98.1684 44.7266H102.012C102.267 44.7266 102.512 44.8275 102.692 45.0081C102.872 45.1882 102.974 45.4327 102.974 45.6874V62.2939C102.974 64.6097 102.207 66.8606 100.792 68.694L100.792 68.6935Z" fill="white"/>
<path d="M100.091 38C100.601 38 101.089 38.2024 101.45 38.5626C101.81 38.9233 102.013 39.4118 102.013 39.9217V42.8047H98.1687V39.9217C98.1687 39.4118 98.3711 38.9233 98.7318 38.5626C99.092 38.2024 99.581 38 100.091 38H100.091Z" fill="white"/>
</g>
<defs>
<filter id="filter0_d_8_10325" x="0" y="0" width="157" height="157" filterUnits="userSpaceOnUse" color-interpolation-filters="sRGB">
<feFlood flood-opacity="0" result="BackgroundImageFix"/>
<feColorMatrix in="SourceAlpha" type="matrix" values="0 0 0 0 0 0 0 0 0 0 0 0 0 0 0 0 0 0 127 0" result="hardAlpha"/>
<feOffset dy="15"/>
<feGaussianBlur stdDeviation="15"/>
<feComposite in2="hardAlpha" operator="out"/>
<feColorMatrix type="matrix" values="0 0 0 0 0.113725 0 0 0 0 0.290196 0 0 0 0 0.835294 0 0 0 0.26 0"/>
<feBlend mode="normal" in2="BackgroundImageFix" result="effect1_dropShadow_8_10325"/>
<feBlend mode="normal" in="SourceGraphic" in2="effect1_dropShadow_8_10325" result="shape"/>
</filter>
<linearGradient id="paint0_linear_8_10325" x1="78.3837" y1="15" x2="78.3837" y2="112" gradientUnits="userSpaceOnUse">
<stop stop-color="#1D4AD5"/>
<stop offset="1" stop-color="#5A08A8"/>
</linearGradient>
<clipPath id="clip0_8_10325">
<rect width="50" height="50.9091" fill="white" transform="translate(53 38)"/>
</clipPath>
</defs>
</svg>
