<svg width="157" height="157" viewBox="0 0 157 157" fill="none" xmlns="http://www.w3.org/2000/svg">
<g filter="url(#filter0_d_8_10326)">
<circle cx="78.5" cy="63.5" r="48.5" fill="url(#paint0_linear_8_10326)"/>
</g>
<g clip-path="url(#clip0_8_10326)">
<path d="M60.0816 52.3379H75.3327V56.7111H60.0816V52.3379Z" fill="white"/>
<path d="M60.0816 66.3579H63.9505V70.3249H60.0816V66.3579Z" fill="white"/>
<path d="M65.7727 66.3579H69.6416V70.3249H65.7727V66.3579Z" fill="white"/>
<path d="M71.465 66.3579H75.3339V70.3249H71.465V66.3579Z" fill="white"/>
<path d="M60.0805 59.0412H75.335V64.026H60.0805V59.0412Z" fill="white"/>
<path d="M99.9705 49.8556C99.9857 51.3274 99.9935 53.6994 99.9935 49.8174L99.9705 49.8556ZM92.2301 48.9637C93.0842 47.6903 93.9687 46.3708 94.7847 45.1508L56.6692 45.1504C55.1974 45.1504 54 46.3478 54 47.8196V79.643C54 79.9555 54.2591 80.215 54.572 80.215H82.5442C82.4527 80.0166 82.4071 79.7879 82.4071 79.5514V75.563C82.4071 75.2275 82.4987 74.9224 82.6662 74.6555H57.8129V48.9632L92.2301 48.9637ZM76.9779 75.4182C77.9388 75.4182 78.7165 76.1959 78.7165 77.1568C78.7165 78.11 77.9387 78.8882 76.9779 78.8882C76.0247 78.8882 75.2465 78.1104 75.2465 77.1568C75.2465 76.1959 76.0243 75.4182 76.9779 75.4182ZM99.9701 49.8548L96.1572 55.5515L96.1724 66.3349C96.8816 66.5485 97.4003 67.2043 97.4003 67.9821V68.6153L97.8577 68.1578C98.1781 67.8375 98.6125 67.6548 99.0704 67.6548C99.3985 67.6548 99.7184 67.7464 99.9853 67.9217C99.9775 58.1371 99.9701 51.5706 99.9701 49.855L99.9701 49.8548Z" fill="white"/>
<path d="M85.2983 87.3457C85.2983 87.666 85.0466 87.9177 84.7263 87.9177H84.7111H69.3755C69.0552 87.9177 68.8035 87.666 68.8035 87.3457C68.8035 85.2255 70.382 83.4637 72.441 83.1895V81.3591H81.5999V83.1895C83.6286 83.4334 85.2145 85.1339 85.2835 87.2086C85.2987 87.2541 85.2987 87.3002 85.2987 87.3457L85.2983 87.3457Z" fill="white"/>
<path d="M78.3361 70.8967C78.0201 70.8967 77.764 70.6407 77.764 70.3247V52.338C77.764 52.0221 78.0201 51.766 78.3361 51.766C78.6521 51.766 78.9081 52.0221 78.9081 52.338V70.3247C78.9081 70.6402 78.6521 70.8967 78.3361 70.8967Z" fill="white"/>
<path d="M90.1872 67.2045C90.0652 67.4333 89.9967 67.7002 89.9967 67.9823V68.3482H89.7449L89.5544 68.1577C89.2341 67.8373 88.7918 67.6546 88.3417 67.6546C87.8843 67.6546 87.4494 67.83 87.1291 68.1577L86.9385 68.3482H82.4237C82.1112 68.3482 81.8517 68.0969 81.8517 67.7761C81.8517 67.4636 82.1108 67.2041 82.4237 67.2041L90.1872 67.2045Z" fill="white"/>
<path d="M94.6172 62.5912C94.6172 62.9037 94.3581 63.1633 94.0452 63.1633H82.4229C82.1104 63.1633 81.8509 62.9041 81.8509 62.5912C81.8509 62.2787 82.11 62.0192 82.4229 62.0192H86.4268C86.5488 62.3395 86.7623 62.6138 87.0523 62.8121C87.3422 63.0105 87.6777 63.1173 88.0362 63.1173C88.3869 63.1173 88.7224 63.0105 88.9971 62.8199L90.1868 62.0192H94.0457C94.3578 62.0196 94.6169 62.2787 94.6169 62.5912H94.6172Z" fill="white"/>
<path d="M87.2739 56.8257L87.0221 57.9698H82.4236C82.1111 57.9698 81.8515 57.7107 81.8515 57.3978C81.8515 57.0774 82.1107 56.8257 82.4236 56.8257L87.2739 56.8257Z" fill="white"/>
<path d="M90.4461 51.6323C90.164 52.0516 89.9044 52.4331 89.6757 52.7764H82.4231C82.1106 52.7764 81.8511 52.5247 81.8511 52.2044C81.8511 51.8919 82.1102 51.6323 82.4231 51.6323L90.4461 51.6323Z" fill="white"/>
<path d="M103.288 74.9912H101.412C101.298 74.6023 101.161 74.2286 101.001 73.8853L102.282 72.6041C102.503 72.3827 102.503 72.0247 102.282 71.7955L99.4753 68.9665C99.2539 68.7451 98.8881 68.7451 98.6672 68.9665L97.4853 70.1484C97.0964 69.9427 96.6845 69.7669 96.2574 69.6223V67.9826C96.2574 67.6701 95.9983 67.4105 95.6853 67.4105H91.7122C91.3997 67.4105 91.1402 67.6701 91.1402 67.9826V69.6223C90.7131 69.7673 90.309 69.9427 89.9275 70.141L88.7456 68.9666C88.6388 68.8598 88.4939 68.7986 88.3415 68.7986C88.1892 68.7986 88.0442 68.8598 87.9375 68.9666L85.1158 71.7956C84.8944 72.0169 84.8944 72.3828 85.1158 72.6042L86.397 73.8854C86.2672 74.1675 86.0919 74.6254 85.9851 74.9913H84.1245C83.812 74.9913 83.5524 75.2504 83.5524 75.5633V79.5516C83.5524 79.8641 83.8115 80.1237 84.1245 80.1237H86.1987C86.3133 80.4288 86.4504 80.7261 86.6106 81.016L85.1158 82.5183C85.009 82.625 84.9478 82.77 84.9478 82.9223C84.9478 83.0747 85.009 83.2197 85.1158 83.3264L87.9375 86.1406C88.0442 86.2474 88.1892 86.3086 88.3415 86.3086C88.4865 86.3238 88.6388 86.2474 88.7456 86.1406L90.3394 84.5391C90.6063 84.6611 90.8732 84.76 91.1402 84.8516V87.1319C91.1402 87.4444 91.3993 87.704 91.7122 87.704H95.6853C95.9978 87.704 96.2574 87.4449 96.2574 87.1319V84.8594C96.5321 84.7678 96.799 84.661 97.0581 84.5391L98.667 86.1406C98.8884 86.362 99.2543 86.362 99.4752 86.1406L102.282 83.3264C102.503 83.105 102.503 82.747 102.282 82.5182L100.795 81.016C100.955 80.7187 101.085 80.421 101.199 80.1237H103.288C103.601 80.1237 103.86 79.8645 103.86 79.5516V75.5633C103.86 75.2503 103.601 74.9912 103.288 74.9912L103.288 74.9912ZM93.7098 82.4648C90.9871 82.4648 88.8061 80.2685 88.8061 77.5459C88.8061 74.8384 91.0023 72.6501 93.7098 72.6501C96.455 72.6501 98.6055 74.8844 98.6055 77.5459C98.606 80.2381 96.4402 82.4648 93.7098 82.4648Z" fill="white"/>
<path d="M103.175 43.0068L103.7 42.2216C104.15 41.5428 103.975 40.6279 103.303 40.1856L101.885 39.2399C101.229 38.7976 100.276 38.9882 99.849 39.6366L99.2865 40.4773C100.326 41.1535 101.855 42.1479 103.175 43.0069L103.175 43.0068Z" fill="white"/>
<path d="M92.6716 58.7057L102.539 43.959L101.041 42.9842L97.8913 47.7419C97.7811 47.9082 97.5992 47.998 97.4139 47.998C97.3049 47.998 97.1956 47.9676 97.0983 47.903C96.8349 47.7289 96.7628 47.3739 96.9373 47.1104L100.081 42.3604L98.6504 41.4294C91.6409 51.9103 89.4594 55.1594 88.7845 56.1772L92.6716 58.7057Z" fill="white"/>
<path d="M88.3494 57.2601L87.4718 61.2801C87.4262 61.5089 87.5174 61.7454 87.7084 61.8747C87.8933 62.0028 88.1589 62.0115 88.3564 61.8747L91.8338 59.5262L88.3494 57.2601Z" fill="white"/>
</g>
<defs>
<filter id="filter0_d_8_10326" x="0" y="0" width="157" height="157" filterUnits="userSpaceOnUse" color-interpolation-filters="sRGB">
<feFlood flood-opacity="0" result="BackgroundImageFix"/>
<feColorMatrix in="SourceAlpha" type="matrix" values="0 0 0 0 0 0 0 0 0 0 0 0 0 0 0 0 0 0 127 0" result="hardAlpha"/>
<feOffset dy="15"/>
<feGaussianBlur stdDeviation="15"/>
<feComposite in2="hardAlpha" operator="out"/>
<feColorMatrix type="matrix" values="0 0 0 0 0.113725 0 0 0 0 0.290196 0 0 0 0 0.835294 0 0 0 0.26 0"/>
<feBlend mode="normal" in2="BackgroundImageFix" result="effect1_dropShadow_8_10326"/>
<feBlend mode="normal" in="SourceGraphic" in2="effect1_dropShadow_8_10326" result="shape"/>
</filter>
<linearGradient id="paint0_linear_8_10326" x1="78.3837" y1="15" x2="78.3837" y2="112" gradientUnits="userSpaceOnUse">
<stop stop-color="#1D4AD5"/>
<stop offset="1" stop-color="#5A08A8"/>
</linearGradient>
<clipPath id="clip0_8_10326">
<rect width="50" height="48.8889" fill="white" transform="translate(54 39)"/>
</clipPath>
</defs>
</svg>
