<svg width="970" height="307" viewBox="0 0 970 307" fill="none" xmlns="http://www.w3.org/2000/svg">
<g opacity="0.3">
<path d="M152.743 306.023C128.04 306.019 103.707 300.015 81.8288 288.526C59.9509 277.036 41.181 260.405 27.1282 240.056C13.0753 219.708 4.15878 196.249 1.14286 171.692C-1.87307 147.135 1.10162 122.212 9.81191 99.0587C18.5222 75.9057 32.7082 55.2136 51.154 38.7563C69.5997 22.299 91.7548 10.5674 115.72 4.56734C139.685 -1.43276 164.746 -1.52243 188.753 4.30601C212.761 10.1344 234.999 21.7071 253.562 38.032C254.201 38.6429 254.579 39.4781 254.616 40.3623C254.654 41.2465 254.347 42.1107 253.762 42.7734C253.176 43.4362 252.357 43.8458 251.476 43.9162C250.596 43.9867 249.722 43.7125 249.039 43.1512C228.672 25.2802 203.743 13.436 177.04 8.94292C150.337 4.44986 122.913 7.4851 97.8335 17.7093C72.7542 27.9334 51.0087 44.9434 35.0287 66.8372C19.0486 88.7311 9.46394 114.646 7.34639 141.683C5.22884 168.72 10.6619 195.815 23.0381 219.937C35.4142 244.058 54.2455 264.256 77.4263 278.272C100.607 292.288 127.224 299.57 154.299 299.302C181.375 299.034 207.843 291.228 230.743 276.757C271.654 250.821 294.722 200.081 317.021 151.041C339.636 101.502 362.794 50.3091 404.678 23.7841C422.467 12.5339 442.384 5.08292 463.18 1.89767C483.977 -1.28757 505.207 -0.13852 525.54 5.27291C545.873 10.6843 564.872 20.2416 581.347 33.3465C597.823 46.4513 611.42 62.8215 621.287 81.4324C621.71 82.2284 621.8 83.16 621.537 84.0224C621.274 84.8847 620.68 85.6071 619.885 86.0307C619.091 86.4542 618.16 86.5441 617.299 86.2808C616.438 86.0174 615.717 85.4222 615.294 84.6263C608.475 71.7881 599.795 60.0327 589.536 49.7428C566.092 26.2875 535.385 11.5098 502.453 7.83431C469.521 4.15881 436.319 11.8038 408.296 29.515C368.131 54.9527 345.29 105.239 323.195 153.849C300.466 203.819 276.991 255.487 234.384 282.51C209.945 297.938 181.631 306.092 152.743 306.023Z" fill="white"/>
<path d="M257.7 32.7994C259.189 34.1607 260.242 35.9335 260.726 37.8938C261.21 39.8541 261.102 41.914 260.418 43.8133C259.733 45.7126 258.502 47.3662 256.88 48.5651C255.258 49.764 253.317 50.4545 251.303 50.5493C249.29 50.6442 247.293 50.1391 245.565 49.098C243.838 48.0568 242.457 46.5263 241.598 44.6997C240.739 42.8731 240.439 40.8323 240.737 38.8352C241.035 36.8381 241.917 34.9742 243.272 33.4789C244.174 32.4837 245.263 31.6766 246.476 31.1036C247.69 30.5307 249.005 30.2033 250.345 30.1402C251.686 30.0771 253.025 30.2794 254.287 30.7358C255.549 31.1921 256.709 31.8934 257.7 32.7994Z" fill="white"/>
<path d="M608.826 87.1178C609.735 88.9214 611.156 90.4148 612.912 91.4093C614.667 92.4038 616.678 92.8546 618.689 92.7049C620.7 92.5552 622.622 91.8116 624.212 90.5681C625.801 89.3246 626.987 87.6371 627.619 85.7188C628.251 83.8006 628.301 81.7377 627.763 79.7909C627.224 77.8441 626.122 76.1008 624.595 74.7814C623.068 73.462 621.184 72.6257 619.183 72.3782C617.181 72.1307 615.151 72.4832 613.349 73.391C612.152 73.9943 611.085 74.828 610.21 75.8446C609.334 76.8612 608.667 78.0406 608.247 79.3154C607.827 80.5903 607.662 81.9355 607.762 83.2743C607.861 84.6131 608.223 85.9192 608.826 87.1178Z" fill="white"/>
<path d="M816.232 306.023C779.144 306.042 743.32 292.53 715.458 268.013C715.119 267.721 714.842 267.364 714.642 266.963C714.442 266.562 714.324 266.126 714.295 265.679C714.265 265.232 714.325 264.783 714.47 264.36C714.616 263.936 714.844 263.546 715.141 263.211C715.737 262.536 716.575 262.125 717.473 262.065C718.371 262.006 719.256 262.304 719.936 262.894C740.293 280.788 765.22 292.655 791.928 297.168C818.635 301.681 846.069 298.662 871.161 288.448C896.253 278.235 918.013 261.23 934.006 239.336C949.999 217.442 959.595 191.523 961.719 164.479C963.844 137.434 958.413 110.331 946.035 86.201C933.657 62.0714 914.82 41.8673 891.632 27.8492C868.443 13.8311 841.818 6.55198 814.734 6.82617C787.651 7.10036 761.178 14.9171 738.277 29.4018C697.343 55.3605 674.275 106.077 651.976 155.118C629.474 204.634 606.203 255.827 564.319 282.374C545.729 294.138 524.822 301.743 503.028 304.671C481.233 307.599 459.064 305.78 438.036 299.339C417.008 292.899 397.615 281.987 381.183 267.351C364.751 252.715 351.667 234.699 342.825 214.533C342.605 214.12 342.473 213.666 342.437 213.199C342.401 212.732 342.461 212.263 342.615 211.821C342.768 211.379 343.011 210.974 343.328 210.63C343.645 210.286 344.03 210.012 344.458 209.824C344.886 209.636 345.348 209.539 345.816 209.539C346.283 209.538 346.745 209.634 347.174 209.821C347.602 210.008 347.987 210.282 348.305 210.625C348.623 210.968 348.867 211.373 349.021 211.815C357.473 231.083 369.978 248.296 385.681 262.28C401.384 276.264 419.916 286.688 440.01 292.84C460.104 298.993 481.287 300.729 502.112 297.93C522.938 295.13 542.915 287.862 560.678 276.621C600.866 251.183 623.707 200.919 645.802 152.309C668.531 102.34 692.006 50.6942 734.681 23.6709C754.708 10.9921 777.404 3.15262 800.977 0.771969C824.549 -1.60868 848.352 1.53479 870.503 9.95393C892.654 18.3731 912.546 31.8371 928.607 49.2819C944.668 66.7267 956.459 87.6741 963.046 110.468C969.633 133.263 970.837 157.279 966.562 180.62C962.287 203.96 952.651 225.985 938.415 244.954C924.178 263.922 905.733 279.314 884.535 289.912C863.337 300.511 839.969 306.027 816.277 306.023H816.232Z" fill="white"/>
<path d="M336.651 217.477C335.892 215.606 335.704 213.551 336.111 211.572C336.518 209.594 337.501 207.781 338.937 206.362C340.373 204.943 342.196 203.982 344.177 203.601C346.157 203.22 348.206 203.436 350.064 204.221C351.923 205.006 353.507 206.325 354.617 208.012C355.727 209.698 356.312 211.677 356.3 213.697C356.288 215.717 355.678 217.688 354.547 219.36C353.416 221.033 351.816 222.333 349.948 223.095C348.707 223.601 347.378 223.858 346.038 223.85C344.698 223.841 343.372 223.568 342.137 223.047C340.902 222.525 339.782 221.765 338.84 220.809C337.899 219.853 337.155 218.721 336.651 217.477Z" fill="white"/>
<path d="M725.047 258.137C723.555 256.777 721.694 255.89 719.699 255.589C717.704 255.289 715.665 255.587 713.839 256.447C712.014 257.307 710.484 258.69 709.443 260.421C708.402 262.152 707.897 264.154 707.992 266.172C708.087 268.19 708.778 270.135 709.976 271.761C711.175 273.386 712.828 274.619 714.726 275.303C716.624 275.988 718.682 276.093 720.64 275.606C722.598 275.119 724.367 274.061 725.725 272.566C727.545 270.562 728.496 267.917 728.369 265.211C728.241 262.505 727.046 259.961 725.047 258.137Z" fill="white"/>
</g>
</svg>
