<svg width="568" height="432" viewBox="0 0 568 432" fill="none" xmlns="http://www.w3.org/2000/svg">
<path d="M435.097 288.143C449.875 288.725 464.459 291.89 478.251 297.508C492.062 303.1 504.922 311.011 516.329 320.934C522.701 326.48 528.561 332.648 533.83 339.355C534.34 340.015 535.288 339.155 534.778 338.495C525.282 326.427 513.946 316.103 501.235 307.946C488.523 299.755 474.634 293.788 460.108 290.277C451.965 288.31 443.664 287.153 435.316 286.823C434.513 286.823 434.411 288.113 435.213 288.143H435.097Z" fill="#FEBB09"/>
<path d="M464.367 292.825C473.234 283.83 485.411 273.713 497.91 268.018C504.968 264.794 512.771 262.138 520.865 262.215C524.686 262.215 528.798 263.075 531.073 265.439C534.544 268.954 532.605 274.358 528.871 277.812C524.817 281.527 519.129 283.845 513.456 285.825C498.362 291.06 480.642 291.367 464.337 292.825" fill="#FEBB09"/>
<path d="M501.789 309.205C509.883 303.755 520.748 297.968 531.074 295.619C537.097 294.021 543.372 293.77 549.493 294.882C552.41 295.543 555.429 296.817 556.887 299.012C559.031 302.266 556.756 306.089 553.387 308.115C549.756 310.326 545.045 311.185 540.422 311.769C528.098 313.304 514.477 310.725 501.789 309.205" fill="#FEBB09"/>
<path d="M506.908 312.26C518.736 315.883 533.159 321.962 544.024 330.528C550.193 335.379 556.275 341.167 560.227 348.597C562.093 352.127 563.464 356.272 562.677 359.588C561.496 364.516 556.085 365.422 551.389 363.718C546.299 361.875 541.559 357.823 537.111 353.632C525.284 342.456 516.227 326.414 506.908 312.26Z" fill="#FEBB09"/>
<path d="M476.996 295.957C484.084 303.802 492.207 314.67 497.151 326.046C500.245 332.672 502.172 339.834 502.839 347.184C503.058 350.761 502.737 354.63 501.162 356.932C498.843 360.356 494.803 358.805 492.062 355.474C489.145 351.882 487.045 346.678 485.251 341.474C480.482 327.657 479.111 311.109 476.996 295.957" fill="#FEBB09"/>
<path d="M455.223 289.632C460.474 295.297 464.836 301.806 468.144 308.913C470.133 313.167 471.373 317.765 471.804 322.484C472.075 324.634 471.697 326.82 470.725 328.732C469.267 330.927 466.642 329.929 464.892 327.811C462.951 325.101 461.47 322.057 460.517 318.815C457.454 309.942 456.579 299.35 455.223 289.648" fill="#FEBB09"/>
<g opacity="0.09">
<path opacity="0.09" d="M279.88 357.224C275.452 365.884 269.691 373.711 262.831 380.389C255.972 387.084 248.126 392.564 239.599 396.615C234.84 398.873 229.889 400.652 224.811 401.927C224.721 401.963 224.647 402.033 224.603 402.123C224.559 402.212 224.547 402.316 224.57 402.414C224.594 402.512 224.65 402.598 224.73 402.656C224.809 402.713 224.905 402.738 225.001 402.725C234.154 400.41 242.877 396.509 250.814 391.181C258.756 385.863 265.829 379.227 271.757 371.531C275.087 367.204 278.018 362.552 280.507 357.638C280.74 357.178 280.055 356.748 279.822 357.224H279.88Z" fill="#4B0263"/>
<path opacity="0.09" d="M269.219 373.389C271.596 381.187 273.667 391.273 273.274 400.3C273.223 405.6 272.115 410.83 270.021 415.651C269.128 417.914 267.5 419.769 265.427 420.886C262.511 421.991 260.192 419.35 259.375 416.142C258.674 412.366 258.674 408.482 259.375 404.705C260.746 394.236 265.5 383.567 269.248 373.419" fill="#4B0263"/>
<path opacity="0.09" d="M249.983 391.181C250.861 398.265 250.585 405.456 249.166 412.442C248.357 416.486 246.747 420.305 244.441 423.649C243.435 425.243 241.919 426.403 240.168 426.919C237.82 427.302 236.391 424.877 236.23 422.313C236.235 419.313 236.79 416.342 237.864 413.563C240.445 405.765 245.637 398.365 249.983 391.196" fill="#4B0263"/>
<path opacity="0.09" d="M246.891 393.391C241.641 399.532 234.364 406.363 226.722 410.493C222.335 413.059 217.486 414.628 212.488 415.098C210.182 415.432 207.839 414.888 205.881 413.563C203.548 411.506 204.569 408.006 206.785 405.688C209.553 403.115 212.774 401.138 216.265 399.87C225.584 395.909 236.682 394.957 246.964 393.33" fill="#4B0263"/>
<path opacity="0.09" d="M264.013 380.067C256.952 382.504 249.568 383.742 242.137 383.736C237.704 383.74 233.307 382.903 229.157 381.264C227.232 380.584 225.559 379.285 224.374 377.549C223.178 375.216 225.132 373.235 227.684 372.514C230.797 371.884 233.989 371.827 237.12 372.345C245.87 373.343 255.189 377.119 263.94 380.021" fill="#4B0263"/>
<path opacity="0.09" d="M273.492 368.83C268.973 370.387 264.247 371.18 259.492 371.178C256.651 371.201 253.829 370.681 251.164 369.643C249.935 369.2 248.866 368.37 248.102 367.264C247.329 365.729 248.583 364.485 250.216 364.025C252.218 363.625 254.27 363.588 256.283 363.917C261.913 364.562 267.877 366.987 273.492 368.876" fill="#4B0263"/>
</g>
<g opacity="0.09">
<path opacity="0.09" d="M338.77 71.9054C342.745 63.004 348.098 54.8594 354.608 47.8039C361.116 40.7409 368.666 34.8313 376.965 30.3034C381.605 27.7851 386.458 25.7293 391.462 24.1629C391.547 24.1199 391.615 24.0458 391.653 23.9544C391.69 23.8629 391.696 23.7602 391.667 23.6651C391.639 23.5699 391.579 23.4887 391.498 23.4364C391.418 23.384 391.322 23.364 391.228 23.38C382.208 26.2119 373.697 30.6007 366.042 36.3672C358.378 42.117 351.65 49.1366 346.12 57.1528C343.007 61.6605 340.311 66.4721 338.07 71.5216C337.851 71.9975 338.551 72.3966 338.77 71.9054Z" fill="#4B0263"/>
<path opacity="0.09" d="M348.614 55.1571C345.843 47.4814 343.262 37.5492 343.203 28.5073C342.992 23.2235 343.837 17.9519 345.683 13.0332C346.469 10.7089 348.021 8.75872 350.058 7.53746C352.858 6.27866 355.366 8.81162 356.344 11.9433C357.244 15.6734 357.452 19.5515 356.956 23.3646C356.125 33.8956 351.895 44.8564 348.672 55.1571" fill="#4B0263"/>
<path opacity="0.09" d="M366.917 36.3057C365.688 29.28 365.599 22.0858 366.654 15.0289C367.279 10.9446 368.71 7.04344 370.855 3.57681C371.782 1.92844 373.242 0.686151 374.967 0.0767249C377.286 -0.445218 378.847 1.90353 379.124 4.46719C379.277 7.46731 378.876 10.4702 377.942 13.3095C375.755 21.2308 370.942 28.9064 366.961 36.3364" fill="#4B0263"/>
<path opacity="0.09" d="M369.877 33.9264C374.807 27.5863 381.72 20.2791 389.143 15.7351C393.39 12.909 398.156 11.0573 403.129 10.3007C405.421 9.85453 407.79 10.2846 409.808 11.5135C412.229 13.4477 411.398 16.9939 409.298 19.4348C406.67 22.1153 403.575 24.2368 400.183 25.6827C391.097 30.1499 379.999 31.7311 369.877 33.9264" fill="#4B0263"/>
<path opacity="0.09" d="M353.47 48.2029C360.378 45.3774 367.669 43.7245 375.069 43.3059C379.509 43.0418 383.958 43.6349 388.195 45.0559C390.155 45.6225 391.895 46.8259 393.168 48.4946C394.48 50.7513 392.628 52.839 390.12 53.6987C387.042 54.5047 383.854 54.7437 380.699 54.4049C371.875 53.8983 362.41 50.6438 353.514 48.2643" fill="#4B0263"/>
<path opacity="0.09" d="M344.603 59.9621C349.034 58.1462 353.711 57.0839 358.458 56.8151C361.295 56.6502 364.136 57.0299 366.844 57.9357C368.103 58.301 369.22 59.0745 370.038 60.1463C370.884 61.5893 369.688 62.9402 368.084 63.4775C366.107 64.0037 364.059 64.1596 362.031 63.9381C356.387 63.6157 350.364 61.5279 344.603 59.9621" fill="#4B0263"/>
</g>
<path d="M127.566 114.075C114.591 117.409 101.181 118.447 87.8827 117.146C74.5766 115.861 61.5553 112.32 49.3228 106.661C42.4907 103.492 35.9574 99.6523 29.8095 95.1932C29.2116 94.748 28.5991 95.7459 29.197 96.1757C40.2843 104.195 52.5613 110.218 65.5256 113.999C78.4885 117.787 91.9484 119.342 105.383 118.604C112.938 118.196 120.438 117.034 127.784 115.135C128.484 114.95 128.28 113.784 127.566 113.968V114.075Z" fill="#FEBB09"/>
<path d="M101.052 117.606C95.4518 127.723 87.2556 139.681 77.7177 147.863C72.3508 152.469 66.1964 156.844 59.1378 158.87C55.8127 159.822 52.05 160.19 49.4687 158.732C45.6185 156.583 46.0414 151.379 48.4769 147.418C51.1312 143.135 55.5356 139.635 59.9982 136.457C71.8696 127.984 87.1973 123.117 101.023 117.606" fill="#FEBB09"/>
<path d="M64.6943 113.108C58.9336 119.955 50.9271 127.784 42.4538 132.512C37.6106 135.457 32.2355 137.303 26.674 137.931C23.976 138.131 21.0446 137.808 19.2799 136.273C16.6403 134.001 17.7195 130.133 20.1696 127.462C23.2053 124.589 26.7416 122.362 30.5825 120.907C40.9225 116.301 53.3626 115.088 64.738 113.108" fill="#FEBB09"/>
<path d="M59.5316 111.788C48.404 111.711 34.4764 110.161 23.0718 105.555C16.5673 102.961 9.94624 99.4916 4.76894 94.0726C2.31884 91.4936 0.145841 88.2545 0.0583377 85.1689C-0.0729176 80.5635 4.43352 78.3836 8.8962 78.6446C13.7381 78.9209 18.8133 81.2082 23.6551 83.6951C36.5473 90.3269 48.1853 101.902 59.5899 111.788" fill="#FEBB09"/>
<path d="M89.3849 118.174C81.3783 113.2 71.7821 105.893 64.8255 97.281C60.5773 92.3323 57.2216 86.61 54.9231 80.3946C53.9022 77.3243 53.2751 73.901 54.0918 71.4908C55.3022 67.914 59.1816 68.2057 62.3317 70.3855C65.7589 72.7496 68.7632 76.7256 71.5341 80.7784C78.9282 91.5243 83.9888 105.555 89.3849 118.174Z" fill="#FEBB09"/>
<path d="M109.802 118.02C103.916 114.452 98.6006 109.929 94.0517 104.619C91.3273 101.443 89.1773 97.7703 87.7077 93.7809C86.9635 91.9839 86.7748 89.9862 87.1681 88.0702C87.9556 85.7828 90.4349 85.967 92.4621 87.364C94.7584 89.2126 96.7322 91.4669 98.2956 94.0265C103.05 100.95 106.288 109.93 109.744 118.02" fill="#FEBB09"/>
<path opacity="0.09" d="M196.3 34.2333L80.8533 222.071L311.746 220.076L196.3 34.2333Z" fill="#4B0263"/>
<path opacity="0.45" d="M206.056 375.062C248.616 375.062 283.118 338.745 283.118 293.946C283.118 249.147 248.616 212.83 206.056 212.83C163.496 212.83 128.995 249.147 128.995 293.946C128.995 338.745 163.496 375.062 206.056 375.062Z" fill="#FFD96E"/>
<path opacity="0.45" d="M492.003 111.972H278.436V321.271H492.003V111.972Z" fill="#FFD96E"/>
<path d="M542.128 67.3153H363.242V242.627H542.128V67.3153Z" stroke="#02A2CB" stroke-miterlimit="10"/>
<path d="M118.596 323.513H85.5201V358.329H118.596V323.513Z" fill="#1B1A1B"/>
<path d="M151.673 323.513H118.596V358.329H151.673V323.513Z" fill="#FEBB09"/>
<path d="M184.735 323.513H151.658V358.329H184.735V323.513Z" fill="#FF0B00"/>
<path d="M217.811 323.513H184.735V358.329H217.811V323.513Z" fill="#02A2CB"/>
<path d="M434.251 332.984C434.251 338.954 432.569 344.79 429.418 349.753C426.267 354.717 421.788 358.585 416.548 360.869C411.308 363.153 405.542 363.75 399.98 362.584C394.418 361.418 389.309 358.542 385.3 354.32C381.29 350.097 378.561 344.718 377.456 338.863C376.351 333.007 376.921 326.939 379.094 321.424C381.266 315.91 384.943 311.197 389.66 307.883C394.377 304.568 399.922 302.801 405.593 302.804C413.195 302.808 420.484 305.989 425.858 311.649C431.232 317.308 434.251 324.983 434.251 332.984V332.984Z" stroke="#FEBB09" stroke-miterlimit="10"/>
<path d="M405.287 293.946V368.845C405.287 369.858 405.287 370.871 405.287 371.915V372.038C405.319 372.326 405.45 372.592 405.655 372.785C405.861 372.979 406.127 373.085 406.403 373.085C406.679 373.085 406.945 372.979 407.15 372.785C407.356 372.592 407.487 372.326 407.519 372.038V297.124C407.519 296.111 407.519 295.097 407.519 294.053V293.946C407.487 293.658 407.356 293.392 407.15 293.198C406.945 293.005 406.679 292.898 406.403 292.898C406.127 292.898 405.861 293.005 405.655 293.198C405.45 293.392 405.319 293.658 405.287 293.946Z" fill="#010305"/>
<path d="M443.497 331.818H372.313C371.35 331.818 370.373 331.818 369.396 331.818C369.122 331.851 368.869 331.989 368.686 332.205C368.502 332.422 368.401 332.702 368.401 332.992C368.401 333.282 368.502 333.562 368.686 333.779C368.869 333.995 369.122 334.133 369.396 334.166H443.57C443.844 334.133 444.097 333.995 444.28 333.779C444.464 333.562 444.565 333.282 444.565 332.992C444.565 332.702 444.464 332.422 444.28 332.205C444.097 331.989 443.844 331.851 443.57 331.818H443.497Z" fill="#010305"/>
<path d="M62.8275 272.976C59.0067 272.985 55.2692 271.801 52.0881 269.573C48.907 267.346 46.4252 264.174 44.9571 260.461C43.4889 256.748 43.1003 252.66 43.8404 248.714C44.5805 244.769 46.416 241.143 49.1147 238.296C51.8134 235.448 55.2538 233.508 59.0006 232.72C62.7474 231.932 66.6321 232.332 70.1629 233.869C73.6938 235.406 76.712 238.011 78.8357 241.354C80.9593 244.698 82.0929 248.629 82.0929 252.651C82.0852 258.031 80.0544 263.189 76.4444 266.998C72.8343 270.807 67.9387 272.956 62.8275 272.976ZM62.8275 233.339C59.1948 233.336 55.6428 234.468 52.6211 236.59C49.5994 238.713 47.2438 241.731 45.8522 245.263C44.4607 248.795 44.0959 252.683 44.8039 256.433C45.5119 260.184 47.2609 263.629 49.8297 266.333C52.3984 269.037 55.6714 270.878 59.2344 271.623C62.7975 272.368 66.4905 271.984 69.8462 270.52C73.2019 269.055 76.0693 266.575 78.0858 263.395C80.1022 260.214 81.177 256.475 81.1741 252.651C81.1664 247.532 79.231 242.625 75.792 239.005C72.353 235.385 67.691 233.347 62.8275 233.339V233.339Z" fill="#FF0B00"/>
<path d="M62.6379 227.015V276.139C62.6379 276.799 62.6379 277.474 62.6379 278.134V278.226C62.6379 278.43 62.7148 278.625 62.8515 278.769C62.9883 278.913 63.1738 278.994 63.3671 278.994C63.5605 278.994 63.746 278.913 63.8828 278.769C64.0195 278.625 64.0963 278.43 64.0963 278.226V229.102C64.0963 228.442 64.0963 227.767 64.0963 227.107V227.015C64.0963 226.811 64.0195 226.616 63.8828 226.472C63.746 226.328 63.5605 226.247 63.3671 226.247C63.1738 226.247 62.9883 226.328 62.8515 226.472C62.7148 226.616 62.6379 226.811 62.6379 227.015V227.015Z" fill="#010305"/>
<path d="M87.7223 251.884H41.0537C40.4266 251.884 39.7849 251.884 39.1578 251.884H39.0703C38.9019 251.919 38.7503 252.015 38.6415 252.155C38.5326 252.295 38.4731 252.47 38.4731 252.651C38.4731 252.832 38.5326 253.007 38.6415 253.147C38.7503 253.287 38.9019 253.383 39.0703 253.419H87.7806C87.9491 253.383 88.1006 253.287 88.2095 253.147C88.3183 253.007 88.3778 252.832 88.3778 252.651C88.3778 252.47 88.3183 252.295 88.2095 252.155C88.1006 252.015 87.9491 251.919 87.7806 251.884H87.7223Z" fill="#010305"/>
<path d="M435.986 47.8192H481.765C483.262 47.8192 484.711 48.3725 485.86 49.3826C487.009 50.3926 487.784 51.7952 488.051 53.3457L491.42 73.1027C492.336 78.4629 495.013 83.3136 498.982 86.8071C502.952 90.3006 507.961 92.2148 513.135 92.215V92.215L511.152 45.8082C510.983 41.6771 509.305 37.7743 506.468 34.914C503.631 32.0538 499.855 30.457 495.926 30.4569H345.974C341.836 30.4722 337.862 32.1624 334.876 35.1774C331.889 38.1924 330.119 42.3012 329.932 46.6525L327.992 92.1997C333.167 92.2024 338.178 90.2894 342.148 86.7953C346.118 83.3013 348.794 78.4489 349.708 73.0874L353.252 52.3478C353.458 51.0626 354.089 49.8955 355.034 49.0528C355.979 48.21 357.176 47.7459 358.414 47.7424H405.083C405.666 77.7849 405.696 107.965 405.696 137.931V155.263C405.696 185.597 405.696 215.639 405.098 245.083L384.213 247.447C380.604 247.829 377.258 249.613 374.831 252.452C372.404 255.291 371.07 258.979 371.088 262.798H470.025C470.043 258.979 468.709 255.291 466.282 252.452C463.855 249.613 460.51 247.829 456.9 247.447L436.015 245.083C435.432 215.163 435.403 185.106 435.403 155.263V138.008C435.374 107.551 435.403 77.3857 435.986 47.8192Z" fill="#FF0B00"/>
<path d="M194.666 305.828H119.151C119.007 305.827 118.864 305.794 118.733 305.731C118.602 305.667 118.486 305.575 118.392 305.46C118.298 305.345 118.228 305.21 118.188 305.064C118.148 304.918 118.138 304.765 118.159 304.615L122.534 274.726C122.569 274.475 122.688 274.246 122.87 274.08C123.052 273.913 123.285 273.822 123.526 273.821H187.695C187.929 273.823 188.155 273.909 188.336 274.066C188.516 274.222 188.64 274.439 188.687 274.68L194.725 305.828H194.666Z" stroke="#4B0263" stroke-width="2" stroke-miterlimit="10"/>
<path d="M223.469 168.649L163.165 63.6771C162.964 63.3181 162.657 63.0391 162.29 62.8834C161.923 62.7276 161.517 62.704 161.136 62.8161C160.755 62.9282 160.42 63.1697 160.183 63.5031C159.946 63.8366 159.82 64.2431 159.825 64.6596V158.302C161.911 158.901 163.72 160.276 164.915 162.173C166.11 164.069 166.611 166.358 166.324 168.613C166.037 170.869 164.982 172.938 163.355 174.437C161.728 175.935 159.639 176.761 157.477 176.761C155.315 176.761 153.227 175.935 151.6 174.437C149.973 172.938 148.918 170.869 148.631 168.613C148.344 166.358 148.844 164.069 150.04 162.173C151.235 160.276 153.043 158.901 155.129 158.302V64.3832C155.133 63.9722 155.01 63.571 154.778 63.2404C154.546 62.9099 154.218 62.6681 153.843 62.5517C153.469 62.4354 153.068 62.4508 152.703 62.5957C152.338 62.7407 152.027 63.0071 151.819 63.3547L86.8473 169.478C86.6877 169.734 86.5908 170.028 86.5654 170.334C86.5399 170.639 86.5867 170.946 86.7014 171.228L122.213 262.384C122.348 262.735 122.58 263.036 122.879 263.247C123.178 263.458 123.53 263.569 123.89 263.566H187.185C187.546 263.565 187.899 263.451 188.198 263.238C188.496 263.024 188.728 262.722 188.862 262.368L223.601 170.261C223.694 169.999 223.73 169.718 223.707 169.439C223.685 169.161 223.603 168.891 223.469 168.649V168.649Z" stroke="#4B0263" stroke-width="2" stroke-miterlimit="10"/>
<path d="M60.3191 57.5365C60.3191 57.5365 146.918 -33.6193 255.175 57.5365" stroke="#4B0263" stroke-width="2" stroke-miterlimit="10"/>
<path d="M63.3671 59.7932C63.3671 60.9713 63.0353 62.1228 62.4135 63.1024C61.7917 64.0819 60.908 64.8453 59.874 65.2961C58.84 65.7469 57.7023 65.8649 56.6046 65.6351C55.507 65.4052 54.4987 64.838 53.7074 64.005C52.916 63.172 52.3771 62.1106 52.1587 60.9552C51.9404 59.7998 52.0525 58.6022 52.4808 57.5138C52.909 56.4255 53.6343 55.4952 54.5649 54.8407C55.4954 54.1862 56.5894 53.8369 57.7086 53.8369C59.2093 53.8369 60.6486 54.4645 61.7098 55.5815C62.771 56.6985 63.3671 58.2135 63.3671 59.7932V59.7932Z" fill="#4B0263"/>
<path d="M255.189 65.7495C258.315 65.7495 260.848 63.0828 260.848 59.7932C260.848 56.5036 258.315 53.8369 255.189 53.8369C252.064 53.8369 249.531 56.5036 249.531 59.7932C249.531 63.0828 252.064 65.7495 255.189 65.7495Z" fill="#4B0263"/>
<path d="M162.538 11.9126H152.956V21.9984H162.538V11.9126Z" fill="#4B0263"/>
<path d="M90.4203 402.74C125.057 431.908 156.048 430.373 175.853 423.987C188.941 419.739 200.98 412.512 211.117 402.817L212.4 404.168C202.079 414.072 189.809 421.458 176.465 425.798C156.179 432.368 124.576 433.965 89.2682 404.306L90.4203 402.74Z" fill="#02A2CB"/>
<path d="M209.848 402.034C209.848 401.297 210.056 400.575 210.445 399.962C210.835 399.348 211.388 398.87 212.036 398.588C212.683 398.306 213.396 398.232 214.083 398.376C214.771 398.52 215.402 398.875 215.898 399.397C216.393 399.918 216.731 400.583 216.868 401.307C217.004 402.03 216.934 402.78 216.666 403.462C216.398 404.144 215.944 404.726 215.361 405.136C214.778 405.546 214.093 405.765 213.392 405.765C212.452 405.765 211.551 405.372 210.886 404.672C210.221 403.973 209.848 403.024 209.848 402.034Z" fill="#02A2CB"/>
<path d="M86.3076 402.034C86.3077 401.296 86.5159 400.574 86.9059 399.96C87.296 399.346 87.8503 398.868 88.4987 398.586C89.1472 398.305 89.8605 398.232 90.5483 398.377C91.2361 398.522 91.8676 398.879 92.3626 399.402C92.8576 399.925 93.194 400.591 93.3291 401.316C93.4642 402.041 93.3919 402.791 93.1215 403.473C92.851 404.154 92.3945 404.735 91.8098 405.143C91.2251 405.552 90.5385 405.768 89.837 405.765C89.3722 405.765 88.9121 405.668 88.483 405.48C88.0538 405.293 87.6641 405.018 87.3362 404.671C87.0083 404.325 86.7486 403.913 86.5721 403.461C86.3956 403.008 86.3057 402.523 86.3076 402.034Z" fill="#02A2CB"/>
<path d="M147.808 432H153.802V425.691H147.808V432Z" fill="#02A2CB"/>
<path d="M560.139 161.311C536.805 141.723 516.096 142.736 502.766 147.05C493.977 149.903 485.891 154.756 479.082 161.265L478.221 160.359C485.15 153.712 493.386 148.753 502.343 145.837C515.979 141.416 537.199 140.341 560.912 160.313L560.139 161.311Z" fill="#02A2CB"/>
<path d="M477.565 164.289C478.878 164.289 479.942 163.169 479.942 161.787C479.942 160.405 478.878 159.285 477.565 159.285C476.252 159.285 475.188 160.405 475.188 161.787C475.188 163.169 476.252 164.289 477.565 164.289Z" fill="#02A2CB"/>
<path d="M560.533 164.289C561.846 164.289 562.91 163.169 562.91 161.787C562.91 160.405 561.846 159.285 560.533 159.285C559.22 159.285 558.156 160.405 558.156 161.787C558.156 163.169 559.22 164.289 560.533 164.289Z" fill="#02A2CB"/>
<path d="M521.609 141.661H517.583V145.898H521.609V141.661Z" fill="#02A2CB"/>
<path d="M275.942 162.079L256.094 166.346C256.055 166.355 256.015 166.355 255.976 166.347C255.938 166.338 255.901 166.321 255.87 166.296C255.838 166.271 255.812 166.24 255.792 166.203C255.773 166.167 255.761 166.127 255.758 166.085L255.394 157.98C255.389 157.914 255.406 157.847 255.444 157.794C255.481 157.74 255.536 157.703 255.598 157.688L272.457 154.065C272.517 154.049 272.581 154.055 272.637 154.083C272.693 154.111 272.738 154.159 272.763 154.219L275.942 162.079V162.079Z" fill="#4B0263"/>
<path d="M276.511 124.361L255.292 100.182C255.221 100.098 255.126 100.04 255.021 100.019C254.916 99.9977 254.807 100.014 254.712 100.065C254.616 100.116 254.54 100.199 254.494 100.301C254.449 100.403 254.437 100.518 254.46 100.628L259.244 125.19C259.817 125.239 260.354 125.507 260.754 125.941C261.155 126.376 261.392 126.949 261.422 127.554C261.452 128.159 261.272 128.754 260.916 129.23C260.561 129.706 260.053 130.03 259.488 130.142C258.922 130.254 258.337 130.147 257.842 129.839C257.346 129.532 256.973 129.046 256.792 128.471C256.611 127.896 256.634 127.272 256.857 126.714C257.079 126.155 257.487 125.701 258.004 125.435L253.206 100.75C253.184 100.644 253.13 100.548 253.052 100.476C252.975 100.404 252.877 100.361 252.774 100.353C252.671 100.344 252.568 100.37 252.48 100.428C252.392 100.486 252.325 100.572 252.287 100.674L240.62 132.266C240.584 132.337 240.566 132.416 240.566 132.497C240.566 132.577 240.584 132.656 240.62 132.727L254.621 154.695C254.672 154.78 254.748 154.846 254.836 154.885C254.925 154.923 255.023 154.932 255.117 154.91L271.757 151.317C271.852 151.302 271.94 151.255 272.009 151.183C272.077 151.112 272.122 151.019 272.136 150.918L276.511 124.744C276.557 124.621 276.557 124.484 276.511 124.361Z" fill="#4B0263"/>
<path d="M275.881 161.756L255.764 166.087L276.248 271.502L296.365 267.17L275.881 161.756Z" fill="#F60034"/>
<path d="M306.006 131.799L285.479 132.376L288.209 239.934L308.735 239.357L306.006 131.799Z" fill="#FEB604"/>
<path d="M306 132.144L285.728 132.712C285.689 132.712 285.651 132.703 285.615 132.687C285.579 132.67 285.547 132.646 285.521 132.616C285.495 132.585 285.475 132.549 285.463 132.51C285.451 132.471 285.447 132.43 285.451 132.389L286.428 124.33C286.438 124.263 286.47 124.203 286.518 124.158C286.566 124.113 286.627 124.087 286.691 124.084L303.885 123.608C303.947 123.609 304.007 123.63 304.057 123.668C304.107 123.707 304.144 123.761 304.162 123.823L306 132.144V132.144Z" stroke="#4B0263" stroke-miterlimit="10"/>
<path d="M312.796 95.1165L295.893 67.4842C295.837 67.3888 295.752 67.3158 295.652 67.2766C295.552 67.2375 295.443 67.2343 295.341 67.2677C295.239 67.3011 295.151 67.3691 295.09 67.4611C295.029 67.553 294.998 67.6638 295.004 67.7759L295.645 92.8906C296.199 93.0521 296.679 93.4196 296.996 93.9249C297.312 94.4303 297.444 95.0393 297.366 95.639C297.289 96.2388 297.008 96.7887 296.575 97.1868C296.141 97.5849 295.586 97.8043 295.011 97.8043C294.436 97.8043 293.88 97.5849 293.447 97.1868C293.014 96.7887 292.733 96.2388 292.655 95.639C292.578 95.0393 292.71 94.4303 293.026 93.9249C293.343 93.4196 293.822 93.0521 294.376 92.8906L293.749 67.7145C293.743 67.6061 293.704 67.5025 293.639 67.4183C293.574 67.3341 293.485 67.2734 293.386 67.2447C293.286 67.2159 293.181 67.2206 293.084 67.258C292.987 67.2955 292.903 67.3638 292.845 67.4535L276.132 96.4214C276.099 96.496 276.082 96.5771 276.082 96.6593C276.082 96.7415 276.099 96.8226 276.132 96.8972L286.341 121.091C286.384 121.182 286.45 121.26 286.533 121.314C286.615 121.368 286.71 121.397 286.807 121.398L303.783 120.922C303.881 120.917 303.976 120.883 304.056 120.823C304.137 120.763 304.199 120.68 304.235 120.584L312.986 95.6231C312.998 95.5286 312.987 95.4323 312.954 95.3435C312.921 95.2547 312.866 95.1765 312.796 95.1165V95.1165Z" stroke="#4B0263" stroke-miterlimit="10"/>
<path d="M340.914 160.697L320.934 155.493L322.99 146.681L342.81 152.1L340.914 160.697Z" fill="#4B0263"/>
<path d="M341.008 160.373L321.077 155.173L296.486 259.61L316.417 264.81L341.008 160.373Z" fill="#F60034"/>
<path d="M342.664 148.785L346.251 132.328L340.637 111.972L328.065 127.615L324.23 143.964L342.664 148.785Z" stroke="#4B0263" stroke-miterlimit="10"/>
<path d="M333.359 120.937L343.787 123.378" stroke="#4B0263" stroke-miterlimit="10"/>
<path d="M253.06 230.545H338.201C339.493 230.545 340.732 231.085 341.645 232.047C342.559 233.009 343.072 234.313 343.072 235.673V335.087C343.072 345.417 339.174 355.323 332.235 362.627C325.297 369.93 315.886 374.034 306.073 374.034H283.934C274.473 374.034 265.4 370.078 258.71 363.036C252.02 355.994 248.262 346.443 248.262 336.484V235.596C248.262 234.933 248.386 234.276 248.627 233.663C248.868 233.05 249.222 232.494 249.667 232.025C250.113 231.556 250.642 231.184 251.224 230.93C251.806 230.676 252.43 230.545 253.06 230.545V230.545Z" fill="#4B0263"/>
<path opacity="0.2" d="M343.072 245.989H248.262V259.314H343.072V245.989Z" fill="#FDF6E6"/>
<path opacity="0.2" d="M343.072 268.187H248.262V281.512H343.072V268.187Z" fill="#FDF6E6"/>
<path d="M519.829 216.622V429.605" stroke="#4B0263" stroke-width="2" stroke-miterlimit="10"/>
<path d="M545.322 406.01H265.675" stroke="#4B0263" stroke-width="2" stroke-miterlimit="10"/>
<path d="M471.834 392.01L470.171 386.883C469.633 385.213 468.738 383.695 467.555 382.446C466.371 381.198 464.931 380.253 463.346 379.683L458.46 377.933L463.433 376.029C464.939 375.457 466.308 374.547 467.447 373.362C468.585 372.177 469.465 370.746 470.025 369.167L471.834 363.932L473.102 368.139C473.712 370.14 474.768 371.959 476.181 373.443C477.594 374.928 479.323 376.036 481.226 376.674L485.207 378.01L481.109 379.714C477.609 381.157 475.144 382.339 473.452 387.773L471.834 392.01Z" fill="#4B0263"/>
<path d="M556.289 271.441L555.21 268.079C554.855 266.986 554.267 265.993 553.491 265.176C552.715 264.359 551.771 263.74 550.733 263.366L547.539 262.215L550.791 260.972C551.796 260.589 552.71 259.977 553.466 259.182C554.222 258.386 554.802 257.425 555.166 256.366L556.347 252.943L557.179 255.691C557.576 257.003 558.267 258.195 559.193 259.168C560.12 260.14 561.254 260.864 562.502 261.279L565.112 262.154L562.429 263.274C561.217 263.594 560.11 264.254 559.226 265.184C558.342 266.114 557.716 267.279 557.412 268.555L556.289 271.441Z" fill="#FCB610"/>
<path d="M434.543 397.014C433.194 397.017 431.875 396.599 430.753 395.813C429.631 395.026 428.756 393.907 428.239 392.596C427.721 391.285 427.585 389.843 427.847 388.451C428.11 387.059 428.759 385.78 429.712 384.776C430.665 383.773 431.88 383.09 433.203 382.813C434.525 382.537 435.896 382.681 437.141 383.225C438.386 383.77 439.45 384.691 440.197 385.872C440.944 387.053 441.342 388.442 441.339 389.861C441.339 391.758 440.623 393.578 439.348 394.919C438.074 396.261 436.345 397.014 434.543 397.014V397.014ZM434.543 384.841C433.599 384.838 432.675 385.13 431.889 385.679C431.103 386.229 430.489 387.012 430.126 387.929C429.763 388.846 429.667 389.856 429.849 390.831C430.031 391.805 430.484 392.701 431.151 393.405C431.817 394.108 432.667 394.588 433.592 394.783C434.518 394.978 435.477 394.879 436.35 394.5C437.222 394.12 437.968 393.477 438.492 392.651C439.017 391.825 439.297 390.854 439.297 389.861C439.297 388.532 438.796 387.258 437.905 386.317C437.014 385.376 435.805 384.845 434.543 384.841V384.841Z" fill="#FCB610"/>
<path d="M564.996 228.396C564.402 228.396 563.821 228.211 563.327 227.863C562.833 227.516 562.448 227.022 562.22 226.444C561.993 225.866 561.933 225.23 562.049 224.617C562.165 224.003 562.451 223.44 562.871 222.998C563.292 222.555 563.827 222.254 564.41 222.132C564.992 222.01 565.596 222.073 566.145 222.312C566.694 222.551 567.164 222.957 567.494 223.477C567.824 223.997 568 224.608 568 225.234C568.002 225.65 567.926 226.062 567.775 226.446C567.625 226.831 567.404 227.18 567.124 227.474C566.845 227.768 566.513 228.001 566.148 228.16C565.782 228.318 565.391 228.398 564.996 228.396V228.396ZM564.996 223.023C564.58 223.023 564.174 223.153 563.829 223.396C563.484 223.639 563.214 223.984 563.056 224.388C562.897 224.792 562.855 225.236 562.936 225.665C563.017 226.094 563.217 226.488 563.511 226.797C563.804 227.106 564.179 227.317 564.586 227.402C564.993 227.487 565.416 227.443 565.799 227.276C566.183 227.109 566.511 226.825 566.742 226.462C566.973 226.098 567.096 225.671 567.096 225.234C567.092 224.649 566.869 224.089 566.476 223.675C566.083 223.261 565.552 223.027 564.996 223.023V223.023Z" fill="#FCB610"/>
<path d="M354.987 379.407C354.392 379.41 353.81 379.227 353.314 378.881C352.818 378.535 352.431 378.043 352.201 377.465C351.972 376.887 351.91 376.251 352.024 375.637C352.139 375.022 352.424 374.457 352.843 374.013C353.263 373.57 353.798 373.267 354.381 373.144C354.964 373.02 355.569 373.082 356.119 373.321C356.669 373.56 357.139 373.965 357.47 374.486C357.8 375.006 357.977 375.618 357.977 376.244C357.977 377.08 357.662 377.882 357.102 378.475C356.542 379.068 355.782 379.403 354.987 379.407ZM354.987 374.034C354.572 374.034 354.166 374.163 353.821 374.406C353.475 374.649 353.206 374.994 353.047 375.398C352.888 375.802 352.846 376.247 352.928 376.675C353.009 377.104 353.209 377.498 353.502 377.807C353.796 378.116 354.17 378.327 354.578 378.412C354.985 378.498 355.407 378.454 355.791 378.287C356.175 378.119 356.503 377.836 356.733 377.472C356.964 377.109 357.087 376.681 357.087 376.244C357.087 375.658 356.866 375.096 356.472 374.681C356.078 374.266 355.544 374.034 354.987 374.034Z" fill="#FCB610"/>
<path d="M276.642 36.0448L274.98 30.9174C274.437 29.2479 273.538 27.7312 272.352 26.4834C271.167 25.2355 269.726 24.2895 268.14 23.7177L263.269 21.9676L268.227 20.0641C269.742 19.4864 271.117 18.5654 272.257 17.3664C273.396 16.1674 274.271 14.7195 274.819 13.1253L276.642 7.90588L277.911 12.0968C278.513 14.0998 279.564 15.921 280.975 17.4066C282.387 18.8921 284.117 19.9984 286.02 20.6321L290.016 21.9676L285.903 23.7637C282.403 25.2989 279.938 26.3888 278.261 31.8232L276.642 36.0448Z" fill="#FCB610"/>
<path d="M31.0492 187.393L29.3866 182.266C28.8468 180.597 27.951 179.08 26.7679 177.832C25.5847 176.584 24.1458 175.638 22.5613 175.066L17.6757 173.316L22.6488 171.412C24.1619 170.832 25.536 169.91 26.6747 168.711C27.8135 167.512 28.6893 166.066 29.2408 164.473L31.0492 159.239L32.318 163.445C32.9235 165.448 33.9775 167.27 35.3912 168.755C36.8048 170.24 38.5367 171.346 40.4412 171.98L44.4226 173.316L40.3245 175.02C36.8244 176.478 34.3597 177.645 32.668 183.079L31.0492 187.393Z" fill="#FF0B00"/>
<path d="M121.469 395.955L120.303 392.363C119.928 391.192 119.301 390.129 118.472 389.255C117.642 388.382 116.631 387.722 115.519 387.328L112.107 386.1L115.592 384.764C116.641 384.352 117.593 383.705 118.381 382.867C119.17 382.029 119.775 381.022 120.157 379.913L121.426 376.26L122.315 379.192C122.739 380.596 123.477 381.872 124.467 382.914C125.457 383.956 126.669 384.732 128.003 385.179L130.789 386.115L127.872 387.312C125.422 388.326 123.701 389.139 122.52 392.946L121.469 395.955Z" fill="#4B0263"/>
<path d="M307.458 53.8369C306.114 53.8369 304.8 53.4174 303.683 52.6313C302.565 51.8452 301.694 50.728 301.179 49.4208C300.665 48.1137 300.53 46.6753 300.793 45.2876C301.055 43.8999 301.702 42.6253 302.653 41.6248C303.603 40.6243 304.814 39.943 306.132 39.667C307.451 39.391 308.817 39.5326 310.059 40.0741C311.301 40.6155 312.362 41.5324 313.109 42.7089C313.856 43.8853 314.254 45.2684 314.254 46.6832C314.254 48.5805 313.538 50.4001 312.264 51.7417C310.989 53.0832 309.261 53.8369 307.458 53.8369ZM307.458 41.6787C306.518 41.6787 305.599 41.9722 304.817 42.5221C304.035 43.072 303.426 43.8536 303.066 44.7681C302.706 45.6825 302.612 46.6888 302.795 47.6596C302.979 48.6303 303.431 49.5221 304.096 50.222C304.761 50.9218 305.608 51.3985 306.531 51.5916C307.453 51.7847 308.409 51.6856 309.278 51.3068C310.146 50.928 310.889 50.2866 311.411 49.4636C311.934 48.6406 312.213 47.673 312.213 46.6832C312.213 45.356 311.712 44.083 310.82 43.1445C309.928 42.206 308.719 41.6787 307.458 41.6787V41.6787Z" fill="#FCB610"/>
<path d="M57.7086 330.682C56.3609 330.685 55.0427 330.267 53.9208 329.481C52.7989 328.695 51.9237 327.576 51.4059 326.267C50.8882 324.957 50.7513 323.515 51.0124 322.123C51.2735 320.732 51.921 319.453 52.8729 318.449C53.8249 317.445 55.0384 316.76 56.3599 316.482C57.6815 316.205 59.0516 316.346 60.297 316.888C61.5423 317.43 62.6068 318.349 63.3559 319.528C64.1049 320.707 64.5047 322.094 64.5047 323.513C64.5047 325.411 63.7891 327.232 62.515 328.576C61.2409 329.92 59.5124 330.677 57.7086 330.682V330.682ZM57.7086 318.508C56.7641 318.505 55.8401 318.797 55.0536 319.348C54.2671 319.898 53.6536 320.682 53.2909 321.6C52.9281 322.518 52.8325 323.528 53.016 324.503C53.1996 325.479 53.654 326.374 54.3219 327.077C54.9897 327.78 55.8408 328.259 56.7672 328.452C57.6937 328.645 58.6537 328.545 59.5257 328.163C60.3977 327.781 61.1424 327.135 61.6653 326.307C62.1882 325.479 62.4658 324.507 62.4629 323.513C62.4629 322.185 61.962 320.912 61.0704 319.974C60.1788 319.035 58.9695 318.508 57.7086 318.508Z" fill="#FCB610"/>
<path d="M147.808 382.983C147.214 382.983 146.633 382.798 146.139 382.45C145.645 382.103 145.26 381.609 145.032 381.031C144.805 380.453 144.746 379.818 144.861 379.204C144.977 378.591 145.264 378.027 145.684 377.585C146.104 377.143 146.639 376.841 147.222 376.719C147.805 376.597 148.409 376.66 148.958 376.899C149.507 377.139 149.976 377.544 150.306 378.064C150.636 378.584 150.812 379.196 150.812 379.821C150.812 380.66 150.496 381.464 149.932 382.057C149.369 382.65 148.605 382.983 147.808 382.983ZM147.808 377.61C147.396 377.611 146.994 377.738 146.651 377.978C146.308 378.217 146.039 378.557 145.878 378.955C145.716 379.354 145.67 379.793 145.744 380.22C145.818 380.646 146.01 381.039 146.295 381.352C146.58 381.664 146.946 381.882 147.347 381.977C147.749 382.073 148.168 382.042 148.553 381.889C148.938 381.735 149.272 381.466 149.512 381.115C149.753 380.764 149.891 380.346 149.908 379.913C149.918 379.616 149.871 379.321 149.77 379.044C149.669 378.766 149.515 378.514 149.319 378.3C149.123 378.087 148.889 377.917 148.629 377.801C148.369 377.685 148.09 377.626 147.808 377.626V377.61Z" fill="#FCB610"/>
<path d="M115.928 66.1179C115.333 66.1179 114.753 65.9325 114.259 65.585C113.764 65.2375 113.379 64.7436 113.152 64.1658C112.925 63.5879 112.865 62.9521 112.981 62.3386C113.097 61.7252 113.383 61.1617 113.803 60.7195C114.223 60.2772 114.759 59.976 115.341 59.854C115.924 59.732 116.528 59.7946 117.077 60.0339C117.626 60.2733 118.095 60.6786 118.426 61.1987C118.756 61.7187 118.932 62.3301 118.932 62.9556C118.932 63.7943 118.615 64.5986 118.052 65.1917C117.489 65.7848 116.724 66.1179 115.928 66.1179V66.1179ZM115.928 60.745C115.512 60.745 115.106 60.8746 114.761 61.1176C114.415 61.3605 114.146 61.7057 113.987 62.1096C113.828 62.5136 113.787 62.958 113.868 63.3868C113.949 63.8156 114.149 64.2095 114.443 64.5187C114.736 64.8278 115.111 65.0384 115.518 65.1237C115.925 65.209 116.348 65.1652 116.731 64.9979C117.115 64.8306 117.443 64.5472 117.674 64.1837C117.905 63.8202 118.028 63.3928 118.028 62.9556C118.024 62.3705 117.801 61.8106 117.408 61.3969C117.015 60.9832 116.483 60.749 115.928 60.745V60.745Z" fill="#FCB610"/>
<path d="M311.746 15.075C311.152 15.075 310.571 14.8895 310.077 14.542C309.583 14.1945 309.198 13.7006 308.97 13.1228C308.743 12.5449 308.683 11.9091 308.799 11.2957C308.915 10.6822 309.201 10.1187 309.622 9.67647C310.042 9.23421 310.577 8.93303 311.16 8.81101C311.743 8.68899 312.347 8.75161 312.896 8.99097C313.445 9.23032 313.914 9.63565 314.244 10.1557C314.574 10.6757 314.75 11.2871 314.75 11.9126C314.746 12.7501 314.429 13.5521 313.866 14.1443C313.303 14.7365 312.542 15.0709 311.746 15.075V15.075ZM311.746 9.70202C311.331 9.70202 310.925 9.83168 310.579 10.0746C310.234 10.3175 309.965 10.6627 309.806 11.0667C309.647 11.4706 309.605 11.9151 309.686 12.3439C309.767 12.7727 309.967 13.1666 310.261 13.4757C310.555 13.7849 310.929 13.9954 311.336 14.0807C311.744 14.166 312.166 14.1222 312.55 13.9549C312.933 13.7876 313.261 13.5043 313.492 13.1407C313.723 12.7772 313.846 12.3498 313.846 11.9126C313.846 11.3263 313.625 10.7641 313.231 10.3495C312.837 9.93492 312.303 9.70202 311.746 9.70202V9.70202Z" fill="#FCB610"/>
<path d="M54.0188 211.341C52.6712 211.344 51.353 210.926 50.2311 210.14C49.1091 209.354 48.2339 208.236 47.7162 206.926C47.1985 205.616 47.0615 204.174 47.3227 202.783C47.5838 201.391 48.2313 200.112 49.1832 199.108C50.1351 198.104 51.3486 197.42 52.6702 197.142C53.9917 196.864 55.3619 197.005 56.6072 197.547C57.8526 198.089 58.9171 199.008 59.6661 200.187C60.4151 201.367 60.815 202.753 60.815 204.172C60.815 206.071 60.0994 207.892 58.8253 209.236C57.5512 210.58 55.8226 211.337 54.0188 211.341V211.341ZM54.0188 199.167C53.0738 199.161 52.1483 199.451 51.3599 199.999C50.5716 200.548 49.9558 201.331 49.5908 202.248C49.2258 203.166 49.128 204.177 49.3099 205.153C49.4918 206.129 49.9451 207.027 50.6124 207.731C51.2796 208.436 52.1307 208.916 53.0575 209.11C53.9843 209.305 54.9452 209.205 55.818 208.823C56.6909 208.442 57.4364 207.796 57.96 206.968C58.4835 206.14 58.7615 205.167 58.7586 204.172C58.7548 202.848 58.2547 201.58 57.367 200.643C56.4794 199.706 55.2761 199.175 54.0188 199.167V199.167Z" fill="#FCB610"/>
</svg>
