<svg width="125" height="103" viewBox="0 0 125 103" fill="none" xmlns="http://www.w3.org/2000/svg">
<g clip-path="url(#clip0_9_11237)">
<path d="M38.8272 63.5423C39.0771 63.7043 39.3657 63.7878 39.6556 63.7878C39.8669 63.7878 40.0782 63.7441 40.2779 63.6555L51.011 58.873H74.6456L85.3903 63.6555C85.5887 63.7441 85.8 63.7878 86.0113 63.7878C86.3012 63.7878 86.5898 63.7056 86.8397 63.5423C87.2726 63.2622 87.5341 62.7827 87.5341 62.2673C87.5341 57.8962 86.1826 53.7059 83.6265 50.1458C82.0457 47.9492 80.0823 46.1421 77.8174 44.7141L80.425 26.0866C80.4353 26.0172 80.4405 25.9465 80.4405 25.8758C80.4405 20.8657 78.8867 16.0743 75.9481 12.0193L69.8567 3.60595C68.2063 1.32842 65.644 0.0224609 62.8264 0.0224609C60.0088 0.0224609 57.4464 1.32833 55.796 3.60727L49.7047 12.0193C46.7659 16.0756 45.2123 20.8673 45.2123 25.8772C45.2123 25.9478 45.2161 26.0185 45.2277 26.0879L47.8366 44.7141C45.5653 46.146 43.6031 47.9543 42.0404 50.1432C39.4818 53.6855 38.1315 57.8781 38.1315 62.2673C38.1315 62.7827 38.3943 63.2634 38.8272 63.5423H38.8272ZM73.8998 55.8318H51.7543V52.3424H73.8998V55.8318ZM48.5116 22.6621H77.1399C77.2996 23.6839 77.3872 24.7224 77.3911 25.7737L74.6662 45.2264C74.665 45.238 74.6598 45.2483 74.6572 45.2586L74.1728 48.7506L74.0955 49.3033H51.5586L51.4259 48.3547L50.9943 45.2585C50.993 45.2508 50.9891 45.243 50.9878 45.2353L48.2604 25.7747C48.2656 24.7221 48.3519 23.6836 48.5117 22.6618L48.5116 22.6621Z" fill="white"/>
<path d="M108.893 84.3471C103.896 84.3471 99.2899 86.6041 96.2609 90.4625C93.7847 88.6168 90.7804 87.6156 87.6369 87.6156C87.3135 87.6156 86.9979 87.6259 86.69 87.6465C85.2328 79.9336 80.0808 73.3747 72.8803 70.1074V69.3979C72.8803 68.5586 72.1987 67.8774 71.3561 67.8774C70.5136 67.8774 69.832 68.5586 69.832 69.3979V71.1086C69.832 71.7281 70.2082 72.2859 70.7841 72.5186C77.9319 75.4028 82.9576 81.9191 83.9009 89.5256C83.9524 89.9433 84.1766 90.3212 84.5167 90.5693C84.8581 90.8161 85.291 90.9125 85.7007 90.8315C86.3126 90.7132 86.9452 90.6567 87.6358 90.6567C90.5835 90.6567 93.3752 91.771 95.4959 93.7954C95.8283 94.1115 96.2792 94.2632 96.7404 94.2054C97.1952 94.1488 97.6011 93.8892 97.8433 93.501C100.234 89.6734 104.366 87.3883 108.892 87.3883C116.07 87.3883 121.908 93.2197 121.908 100.386C121.908 101.226 122.59 101.907 123.432 101.907C124.276 101.906 124.958 101.224 124.958 100.385C124.958 91.541 117.751 84.3474 108.893 84.3474L108.893 84.3471Z" fill="white"/>
<path d="M69.8331 63.6969C69.8331 64.5362 70.5147 65.2173 71.3572 65.2173C72.1998 65.2173 72.8814 64.5362 72.8814 63.6969V63.684C72.8814 62.8447 72.1998 62.1699 71.3572 62.1699C70.5147 62.1712 69.8331 62.8575 69.8331 63.6968V63.6969Z" fill="white"/>
<path d="M54.3021 62.1636C53.4595 62.1636 52.778 62.8448 52.778 63.6841V70.1055C45.5465 73.3816 40.3895 79.961 38.9462 87.706C35.2988 87.2922 31.6026 88.296 28.6989 90.4617C25.6687 86.6044 21.063 84.3463 16.0666 84.3463C10.3888 84.3463 5.07848 87.3834 2.20414 92.2727C1.77898 92.9976 2.02119 93.9281 2.74781 94.3536C2.99002 94.4949 3.25543 94.5618 3.51694 94.5618C4.0387 94.5618 4.55018 94.2931 4.83234 93.8112C7.16295 89.8486 11.4659 87.3875 16.0665 87.3875C20.5939 87.3875 24.7242 89.6727 27.1153 93.5002C27.3575 93.8884 27.7621 94.1467 28.2182 94.2046C28.6833 94.2611 29.1303 94.1107 29.4627 93.7946C31.5833 91.7715 34.3753 90.6559 37.3228 90.6559C38.186 90.6559 39.0441 90.7536 39.8738 90.9464C40.2989 91.0428 40.7408 90.9579 41.0938 90.7099C41.4494 90.4618 41.6813 90.0737 41.7328 89.6444C42.6424 81.9815 47.6784 75.419 54.874 72.5179C55.4499 72.2853 55.8261 71.7288 55.8261 71.1079V63.6843C55.8261 62.8437 55.1445 62.1638 54.302 62.1638L54.3021 62.1636Z" fill="white"/>
<path d="M1.70319 97.6561C0.845139 97.5739 0.126276 98.205 0.0553987 99.0417C0.0180372 99.4851 0 99.9324 0 100.383C0 101.223 0.681528 101.904 1.52411 101.904C2.36669 101.904 3.04822 101.223 3.04822 100.383C3.04822 100.018 3.06368 99.6586 3.09331 99.3C3.16288 98.4646 2.54318 97.7281 1.70321 97.6561L1.70319 97.6561Z" fill="white"/>
<path d="M62.8312 44.3105C67.5426 44.3105 71.3612 40.501 71.3612 35.8008C71.3612 31.1006 67.5426 27.291 62.8312 27.291C58.1198 27.291 54.3011 31.1006 54.3011 35.8008C54.2999 40.4997 58.1198 44.3105 62.8312 44.3105ZM62.8312 32.3344C64.7495 32.3344 66.3045 33.8857 66.3045 35.7995C66.3045 37.7132 64.7494 39.2645 62.8312 39.2645C60.9129 39.2645 59.3579 37.7132 59.3579 35.7995C59.3566 33.887 60.9129 32.3344 62.8312 32.3344Z" fill="white"/>
</g>
<defs>
<clipPath id="clip0_9_11237">
<rect width="125" height="102" fill="white" transform="translate(0 0.0224609)"/>
</clipPath>
</defs>
</svg>
