<?xml version="1.0" encoding="utf-8"?>
<!-- Generator: Adobe Illustrator 24.3.0, SVG Export Plug-In . SVG Version: 6.00 Build 0)  -->
<svg version="1.1" id="Layer_1" xmlns="http://www.w3.org/2000/svg" xmlns:xlink="http://www.w3.org/1999/xlink" x="0px" y="0px"
	 viewBox="0 0 420 335.9" style="enable-background:new 0 0 420 335.9;" xml:space="preserve">
<style type="text/css">
	.st0{clip-path:url(#SVGID_2_);}
	.st1{fill:#EFF3FF;}
	.st2{fill:#91B3FA;}
	.st3{fill:#FFFFFF;}
	.st4{fill:#C8D3F5;}
	.st5{fill:url(#SVGID_3_);}
	.st6{fill:url(#SVGID_4_);}
	.st7{fill:#5A08A8;}
	.st8{opacity:0.44;fill:#FFFFFF;enable-background:new    ;}
	.st9{opacity:0.43;fill:#FFFFFF;enable-background:new    ;}
	.st10{opacity:0.46;fill:#FFFFFF;enable-background:new    ;}
	.st11{opacity:0.38;fill:#FFFFFF;enable-background:new    ;}
	.st12{opacity:0.42;fill:#FFFFFF;enable-background:new    ;}
	.st13{opacity:0.58;fill:#FFFFFF;enable-background:new    ;}
	.st14{opacity:0.28;fill:#FFFFFF;enable-background:new    ;}
	.st15{opacity:0.47;fill:#FFFFFF;enable-background:new    ;}
	.st16{fill:url(#SVGID_5_);}
	.st17{opacity:0.69;fill:#FFFFFF;enable-background:new    ;}
	.st18{fill:url(#SVGID_6_);}
	.st19{fill:url(#SVGID_7_);}
	.st20{fill:url(#SVGID_8_);}
	.st21{fill:url(#SVGID_9_);}
	.st22{fill:url(#SVGID_10_);}
	.st23{fill:url(#SVGID_11_);}
	.st24{fill:url(#SVGID_12_);}
	.st25{fill:url(#SVGID_13_);}
	.st26{fill:url(#SVGID_14_);}
	.st27{fill:url(#SVGID_15_);}
	.st28{fill:url(#SVGID_16_);}
	.st29{fill:url(#SVGID_17_);}
	.st30{fill:url(#SVGID_18_);}
	.st31{fill:url(#SVGID_19_);}
	.st32{fill:url(#SVGID_20_);}
	.st33{fill:url(#SVGID_21_);}
	.st34{opacity:0.76;fill:#FFFFFF;enable-background:new    ;}
	.st35{fill:url(#SVGID_22_);}
	.st36{fill:#7D97F4;}
	.st37{fill:url(#SVGID_23_);}
	.st38{fill:url(#SVGID_24_);}
	.st39{fill:url(#SVGID_25_);}
	.st40{fill:url(#SVGID_26_);}
	.st41{fill:url(#SVGID_27_);}
	.st42{fill:url(#SVGID_28_);}
	.st43{fill:url(#SVGID_29_);}
	.st44{fill:url(#SVGID_30_);}
	.st45{fill:url(#SVGID_31_);}
	.st46{fill:url(#SVGID_32_);}
	.st47{fill:url(#SVGID_33_);}
	.st48{fill:url(#SVGID_34_);}
	.st49{fill:url(#SVGID_35_);}
	.st50{fill:url(#SVGID_36_);}
	.st51{fill:url(#SVGID_37_);}
	.st52{fill:#1D4AD5;}
	.st53{opacity:0.64;}
	.st54{opacity:0.64;fill:url(#SVGID_38_);enable-background:new    ;}
	.st55{opacity:0.64;fill:url(#SVGID_39_);enable-background:new    ;}
	.st56{opacity:0.64;fill:url(#SVGID_40_);enable-background:new    ;}
	.st57{opacity:0.64;fill:url(#SVGID_41_);enable-background:new    ;}
	.st58{opacity:0.64;fill:url(#SVGID_42_);enable-background:new    ;}
	.st59{opacity:0.64;fill:url(#SVGID_43_);enable-background:new    ;}
	.st60{fill:url(#SVGID_44_);}
	.st61{opacity:0.64;fill:url(#SVGID_45_);enable-background:new    ;}
	.st62{opacity:0.64;fill:url(#SVGID_46_);enable-background:new    ;}
	.st63{opacity:0.64;fill:url(#SVGID_47_);enable-background:new    ;}
	.st64{opacity:0.64;fill:url(#SVGID_48_);enable-background:new    ;}
	.st65{opacity:0.64;fill:url(#SVGID_49_);enable-background:new    ;}
	.st66{opacity:0.64;fill:url(#SVGID_50_);enable-background:new    ;}
	.st67{fill:url(#SVGID_51_);}
</style>
<g>
	<defs>
		<rect id="SVGID_1_" x="42" y="0" width="335.9" height="335.9"/>
	</defs>
	<clipPath id="SVGID_2_">
		<use xlink:href="#SVGID_1_"  style="overflow:visible;"/>
	</clipPath>
	<g class="st0">
		<path class="st1" d="M334.1,288.7c-6.7,6.7-13,11.1-18,14.5c-58.9,40.3-128.5,28.5-143.3,25.7c-21.9-4.2-64.1-12.4-94.6-46.7
			C32,230.4,39.2,148.8,75,94.9c6.6-9.9,41.2-64.6,111.6-73.3c42.6-5.3,92.3,5.4,128.2,34.1C390.3,116,384.9,237.8,334.1,288.7z"/>
		<path class="st2" d="M45.6,1.7c-0.3-1.3,1.5-2.2,2.7-1.3c11.5,9.4,39.3,37.5,32.4,86.6c-8.7,61.6,6.2,84.1,24.6,97.8
			c0,0-25.4-6.4-41.3-29.2C24.8,99.5,51.2,25.2,45.6,1.7z"/>
		<g>
			<path class="st3" d="M54.4,20.9c1.4,6.9,2.7,13.7,3.7,20.6c1,6.9,1.8,13.8,2.4,20.8c0.5,6.9,0.9,13.9,0.9,20.8
				c0.1,6.9-0.2,13.9-0.5,20.9c-0.3,7-0.6,14-0.1,21.1c0.5,7.1,2,14.2,4.9,20.8c0.7,1.7,1.5,3.3,2.4,4.9c0.8,1.6,1.8,3.2,2.7,4.8
				c2,3.2,4.1,6.2,6.6,9c4.9,5.7,10.8,10.8,17.2,15.1c0.7,0.5,1.7,0.3,2.2-0.2c0.5-0.6,0.4-1.4-0.3-1.9c-1.5-1.1-3.1-2.2-4.5-3.3
				c-0.7-0.6-1.5-1.2-2.2-1.7c-0.7-0.6-1.4-1.2-2.1-1.8c-2.7-2.4-5.3-5-7.6-7.8c-4.7-5.5-8.4-11.7-11.2-18c-1.4-3.2-2.5-6.5-3.3-9.8
				c-0.8-3.3-1.3-6.7-1.6-10.2c-0.6-6.9-0.3-13.8-0.1-20.8c0.2-7,0.4-14,0.2-21c-0.1-3.5-0.2-7-0.5-10.5c-0.1-1.7-0.2-3.5-0.4-5.2
				c-0.2-1.7-0.3-3.5-0.5-5.2c-0.7-7-1.7-13.9-3-20.8c-1.3-6.9-2.8-13.8-4.6-20.6c0-0.1-0.1-0.2-0.2-0.2s-0.2-0.1-0.3,0
				c0,0-0.1,0-0.1,0c0,0-0.1,0.1-0.1,0.1c0,0-0.1,0.1-0.1,0.1C54.4,20.8,54.4,20.8,54.4,20.9L54.4,20.9z"/>
		</g>
		<path class="st4" d="M75.6,153.7c-0.3,0.3-0.7,0.6-1.2,0.8c-0.5,0.2-0.9,0.2-1.4,0.1c-0.5-0.1-0.9-0.3-1.3-0.6
			c-0.4-0.3-0.7-0.7-0.9-1.1c-4.7-10.4-15.3-41,2.2-76.2c14.8-29.8,20.1-47.3,21.9-55.4c0.4-1.7,2.7-1.9,3.4-0.3
			C106.2,38.7,126.9,99.2,75.6,153.7z"/>
		<g>
			<path class="st3" d="M73,152.6c-0.1,0-0.1,0-0.2,0c-0.1,0-0.2,0-0.3-0.1c-0.1,0-0.2-0.1-0.3-0.2c-0.1-0.1-0.1-0.2-0.2-0.3
				c0-0.1-0.1-0.2-0.1-0.3c0-0.5,1-51,19.7-93.3c0-0.1,0.1-0.2,0.2-0.3c0.1-0.1,0.2-0.1,0.3-0.2c0.1,0,0.2-0.1,0.3-0.1
				c0.1,0,0.2,0,0.3,0.1c0.1,0,0.2,0.1,0.3,0.2c0.1,0.1,0.1,0.2,0.2,0.3c0,0.1,0.1,0.2,0.1,0.3c0,0.1,0,0.2-0.1,0.3
				c-18.6,42-19.6,92.2-19.6,92.7c0,0.2-0.1,0.4-0.2,0.5C73.3,152.5,73.2,152.6,73,152.6z"/>
		</g>
		
			<linearGradient id="SVGID_3_" gradientUnits="userSpaceOnUse" x1="219.9286" y1="90.5806" x2="219.9286" y2="26.1214" gradientTransform="matrix(1 0 0 -1 0 336.9)">
			<stop  offset="0" style="stop-color:#5A08A8"/>
			<stop  offset="1" style="stop-color:#1D4AD5"/>
		</linearGradient>
		<path class="st5" d="M185.5,246.3l-7.2,64.5h83.3l-10.8-64.5H185.5z"/>
		
			<linearGradient id="SVGID_4_" gradientUnits="userSpaceOnUse" x1="211.7884" y1="265.8618" x2="211.7884" y2="75.2672" gradientTransform="matrix(1 0 0 -1 0 336.9)">
			<stop  offset="0" style="stop-color:#1D4AD5"/>
			<stop  offset="1" style="stop-color:#5A08A8"/>
		</linearGradient>
		<path class="st6" d="M45.6,87.5v147.6c0,5.8,2.3,11.5,6.3,15.6c4.1,4.2,9.6,6.6,15.4,6.8c53.8,1.4,242.1,4.8,293.4,4
			c4.2-0.1,8.3-1.8,11.3-4.7c3-3,4.8-7,4.9-11.3c1-34.3,2.6-116.8-3.3-155.1c-0.6-3.9-2.6-7.5-5.5-10.1c-3-2.6-6.7-4.1-10.7-4.3
			c-45.1-1.4-244.7-6-295.9-4.9c-4.2,0.1-8.3,1.9-11.3,4.9C47.3,79.2,45.6,83.2,45.6,87.5L45.6,87.5z"/>
		<path class="st2" d="M54.9,86.8V227c0,3.4,1.3,6.7,3.7,9.1c2.4,2.4,5.6,3.8,9,3.9l285.8,3.5c1.7,0,3.3-0.3,4.9-0.9
			c1.5-0.6,3-1.5,4.1-2.7c1.2-1.2,2.1-2.6,2.8-4.1c0.6-1.5,1-3.2,1-4.9l0.5-139c0-2.4-0.9-4.7-2.6-6.5c-1.7-1.7-4-2.7-6.4-2.8
			L65.1,76.8c-1.3,0-2.7,0.2-3.9,0.7c-1.2,0.5-2.4,1.2-3.3,2.2c-1,0.9-1.7,2-2.2,3.3C55.1,84.1,54.9,85.5,54.9,86.8z"/>
		<path class="st2" d="M368.4,249.3L368.4,249.3L54.9,244c-0.1,0-0.1,0-0.2,0c-0.1,0-0.1-0.1-0.1-0.1c0,0-0.1-0.1-0.1-0.1
			c0-0.1,0-0.1,0-0.2c0-0.1,0-0.1,0-0.2c0-0.1,0.1-0.1,0.1-0.1c0,0,0.1-0.1,0.2-0.1c0.1,0,0.1,0,0.2,0l313.5,5.3
			c0.1,0,0.2,0.1,0.3,0.1c0.1,0.1,0.1,0.2,0.1,0.3c0,0.1,0,0.2-0.1,0.3C368.6,249.3,368.5,249.3,368.4,249.3L368.4,249.3z"/>
		<path class="st7" d="M279.5,324H157.6c-3.3,0-5.8-2.4-5.2-4.9l1.6-6.2c0.5-1.9,2.5-3.2,4.9-3.3l117.5-3.7c2.5-0.1,4.8,1.3,5.3,3.2
			l2.8,9.9C285.3,321.5,282.9,324,279.5,324z"/>
		<path class="st2" d="M223.2,311.3c-0.1,0-0.2-0.1-0.3-0.1c-0.1-0.1-0.1-0.2-0.1-0.3s0-0.2,0.1-0.3c0.1-0.1,0.2-0.1,0.3-0.1l5-0.1
			c0.1,0,0.2,0,0.3,0.1c0.1,0.1,0.1,0.2,0.1,0.3s0,0.2-0.1,0.3c-0.1,0.1-0.2,0.1-0.3,0.1L223.2,311.3L223.2,311.3z"/>
		<path class="st2" d="M157,320.6C157,320.6,156.9,320.6,157,320.6c-0.2,0-0.3-0.1-0.4-0.2c-0.1-0.1-0.1-0.2-0.1-0.3l0.7-4.5
			c0.2-1.2,0.8-2.3,1.7-3c0.9-0.8,2.1-1.2,3.2-1.2l53.4-0.8c0.1,0,0.2,0.1,0.3,0.1c0.1,0.1,0.1,0.2,0.1,0.3c0,0.1,0,0.2-0.1,0.3
			c-0.1,0.1-0.2,0.1-0.3,0.1l-53.4,0.8c-1,0-1.9,0.4-2.7,1c-0.7,0.6-1.2,1.5-1.4,2.5l-0.7,4.5c0,0.1-0.1,0.2-0.1,0.3
			C157.2,320.6,157.1,320.6,157,320.6L157,320.6z"/>
		<path class="st8" d="M304.4,130h-31.8c-0.9,0-1.8-0.4-2.5-1.1c-0.7-0.7-1-1.6-1-2.5c0-0.9,0.4-1.9,1-2.5c0.7-0.7,1.6-1.1,2.5-1.1
			h31.8c0.9,0,1.8,0.4,2.5,1.1c0.7,0.7,1,1.6,1,2.5c0,0.9-0.4,1.9-1,2.5C306.3,129.6,305.4,130,304.4,130L304.4,130z"/>
		<path class="st9" d="M316.1,124.3h34.3c2.2,0,3.9,6.4,3.9,14.3v84.5c0,7.9-1.7,14.3-3.9,14.3h-34.3c-2.2,0-3.9-6.4-3.9-14.3v-84.5
			C312.2,130.8,314,124.3,316.1,124.3z"/>
		<path class="st10" d="M304.4,134h-31.8c-2,0-3.6,1.6-3.6,3.6v21.3c0,2,1.6,3.6,3.6,3.6h31.8c2,0,3.6-1.6,3.6-3.6v-21.3
			C308.1,135.7,306.4,134,304.4,134z"/>
		<path class="st11" d="M272.7,168.9h31.8c2,0,3.6,3.9,3.6,8.7V229c0,4.8-1.6,8.7-3.6,8.7h-31.8c-2,0-3.6-3.9-3.6-8.7v-51.3
			C269.1,172.9,270.7,168.9,272.7,168.9z"/>
		<path class="st12" d="M353.9,118.3H69.4c-1.6,0-3.1-0.6-4.2-1.7c-1.1-1.1-1.7-2.6-1.7-4.2V88.6c0-0.8,0.2-1.6,0.5-2.3
			c0.3-0.7,0.8-1.4,1.3-2c0.6-0.6,1.2-1,2-1.3c0.7-0.3,1.5-0.4,2.3-0.4l284.6,7.2c1.6,0,3,0.7,4.1,1.8s1.7,2.6,1.7,4.2v16.6
			c0,1.6-0.6,3.1-1.7,4.2C357,117.7,355.5,118.3,353.9,118.3L353.9,118.3z"/>
		<path class="st13" d="M258.7,125.4h-95.9c-2.4,0-4.4,2-4.4,4.4v81.9c0,2.4,2,4.4,4.4,4.4h95.9c2.4,0,4.4-2,4.4-4.4v-81.9
			C263.1,127.3,261.1,125.4,258.7,125.4z"/>
		<path class="st14" d="M262.8,239.2l-197.1-1.7c-1.1,0-2.2-0.5-3.1-1.3c-0.8-0.8-1.3-1.9-1.3-3.1v-7c0-1.6,0.6-3.1,1.8-4.3
			c1.1-1.1,2.7-1.8,4.3-1.8h195.2c0.6,0,1.2,0.2,1.6,0.7c0.4,0.4,0.7,1,0.7,1.6v14.6c0,0.3-0.1,0.5-0.2,0.8
			c-0.1,0.2-0.3,0.5-0.4,0.7c-0.2,0.2-0.4,0.3-0.7,0.4C263.4,239.2,263.1,239.2,262.8,239.2z"/>
		<path class="st15" d="M148.3,122.8H65.5c-2.3,0-4.1,1.8-4.1,4.1v82.9c0,2.3,1.8,4.1,4.1,4.1h82.8c2.3,0,4.1-1.8,4.1-4.1v-82.9
			C152.4,124.6,150.5,122.8,148.3,122.8z"/>
		
			<linearGradient id="SVGID_5_" gradientUnits="userSpaceOnUse" x1="200.2202" y1="127.2079" x2="305.9223" y2="201.3234" gradientTransform="matrix(1 0 0 -1 0 336.9)">
			<stop  offset="0" style="stop-color:#FF928E"/>
			<stop  offset="1" style="stop-color:#FE7062"/>
		</linearGradient>
		<path class="st16" d="M209.1,132.2l93.2-0.8c0.4,0,0.9,0.1,1.3,0.2c0.4,0.2,0.8,0.4,1.1,0.7c0.3,0.3,0.6,0.7,0.7,1.1
			c0.2,0.4,0.2,0.8,0.2,1.3l-0.4,71.7c0,0.4-0.1,0.9-0.3,1.3c-0.2,0.4-0.4,0.8-0.7,1.1c-0.3,0.3-0.7,0.5-1.1,0.7
			c-0.4,0.2-0.8,0.2-1.3,0.2c-16.9-0.5-91.7-2.7-95-2.6c-3.3,0.1-1.5-57.4-1-71.6c0-0.8,0.4-1.6,1-2.2
			C207.4,132.6,208.2,132.2,209.1,132.2L209.1,132.2z"/>
		<path class="st17" d="M301.9,206.9L301.9,206.9c-13.4-0.4-80.8-2.4-93.3-2.6h-0.2l0-0.2c-1.2-6.6-1.1-33.6,0.1-68.7
			c0-0.1,0.1-0.3,0.2-0.4c0.1-0.1,0.3-0.2,0.4-0.2l93.2-0.8c0.1,0,0.2,0,0.2,0s0.1,0.1,0.2,0.1c0.1,0.1,0.1,0.1,0.1,0.2s0,0.1,0,0.2
			l-0.4,71.7c0,0.2-0.1,0.3-0.2,0.4C302.2,206.8,302.1,206.9,301.9,206.9L301.9,206.9z M208.8,203.9c12.9,0.2,79.8,2.2,93.1,2.6h0
			c0,0,0.1,0,0.1-0.1c0,0,0-0.1,0-0.1l0.4-71.7c0,0,0,0,0-0.1c0,0,0,0,0-0.1c0,0,0,0-0.1,0c0,0,0,0-0.1,0l-93.2,0.8c0,0-0.1,0-0.1,0
			c0,0-0.1,0.1-0.1,0.1C207.7,170.3,207.7,197.1,208.8,203.9L208.8,203.9z"/>
		<path class="st3" d="M220.3,197.7h61.1c0.4,0,0.9-0.1,1.2-0.3c0.4-0.2,0.7-0.5,0.9-0.9c0.2-0.4,0.3-0.8,0.3-1.2s-0.1-0.9-0.3-1.2
			l-24.2-41.2c-0.2-0.4-0.6-0.7-1-0.9c-0.4-0.2-0.8-0.3-1.3-0.3c-0.4,0-0.9,0.2-1.3,0.4c-0.4,0.3-0.7,0.6-0.9,1l-11.7,25.6
			c-0.2,0.4-0.4,0.7-0.7,0.9c-0.3,0.2-0.7,0.4-1,0.5c-0.4,0.1-0.8,0.1-1.1,0c-0.4-0.1-0.7-0.3-1-0.6l-4.7-4.3
			c-0.3-0.2-0.6-0.4-0.9-0.5c-0.3-0.1-0.7-0.1-1-0.1c-0.3,0-0.7,0.2-1,0.3c-0.3,0.2-0.6,0.4-0.8,0.7l-12.7,18.3
			c-0.3,0.4-0.4,0.8-0.4,1.3c0,0.4,0.1,0.9,0.3,1.3c0.2,0.4,0.5,0.7,0.9,1C219.4,197.6,219.9,197.7,220.3,197.7L220.3,197.7z"/>
		<path class="st3" d="M284,159.7c4.5-1.9,6.6-7,4.8-11.5c-1.9-4.5-7-6.6-11.5-4.8c-4.5,1.9-6.6,7-4.8,11.5S279.5,161.5,284,159.7z"
			/>
		
			<linearGradient id="SVGID_6_" gradientUnits="userSpaceOnUse" x1="-29361.25" y1="-54502.3945" x2="-14298.5332" y2="-26801.8379" gradientTransform="matrix(1 0 0 -1 0 336.9)">
			<stop  offset="0" style="stop-color:#09005D"/>
			<stop  offset="1" style="stop-color:#1A0F91"/>
		</linearGradient>
		<path class="st18" d="M360.6,218.1c-2.1-7.9-8.8-14.5-16.2-16.1c-1.4-0.3-2.1-1.7-1.8-3l0,0c1.1-4.6-1.9-8.3-6.3-9.3
			c-4.5-1-8.7,1-9.8,5.6c-0.7,3.1,0.2,6.6,2.3,8.9c0.8,0.9,0.9,2.3,0.1,3.3c-4.5,5.3-6.3,13.3-4.4,20.6
			c2.9,10.6,12.8,15.4,22.8,12.7C357.3,237.8,363.5,228.7,360.6,218.1z"/>
		<path class="st2" d="M357.5,228.2l-0.2-0.1c1.8-2.5,2-6.2,0.6-9.6c-1.1-2.7-3.1-5.1-6.3-7.7c-1.2-1-2.5-1.9-3.7-2.8
			c-1.5-1.1-3-2.2-4.4-3.3c-1.3-1.1-2.6-2.4-2.9-4.1c-0.1-0.9,0-1.8,0.1-2.7c0.2-1.4,0.4-2.7-0.4-3.7l0.2-0.1
			c0.9,1.1,0.7,2.5,0.5,3.9c-0.1,0.9-0.3,1.8-0.1,2.6c0.3,1.7,1.6,3,2.8,4c1.4,1.2,2.9,2.3,4.4,3.3c1.2,0.9,2.5,1.8,3.7,2.8
			c3.2,2.6,5.3,5.1,6.4,7.8C359.6,221.9,359.4,225.6,357.5,228.2z"/>
		<path class="st2" d="M352.8,229.8l-0.2-0.1c1.2-3.4,0.9-7.5-1-11.4c-1.8-3.8-4.8-6.9-7.2-9.2l0.2-0.2c2.4,2.3,5.4,5.4,7.2,9.3
			C353.6,222.1,354,226.3,352.8,229.8z"/>
		
			<linearGradient id="SVGID_7_" gradientUnits="userSpaceOnUse" x1="303.2776" y1="161.0559" x2="328.6484" y2="103.8625" gradientTransform="matrix(1 0 0 -1 0 336.9)">
			<stop  offset="0" style="stop-color:#FEBBBA"/>
			<stop  offset="1" style="stop-color:#FF928E"/>
		</linearGradient>
		<path class="st19" d="M304.9,186.2l-0.1-2.7l2.9-5.7c0.3-0.5,0.4-1.1,0.4-1.7c0-0.6-0.1-1.1-0.4-1.7l-3.2-6.6
			c0,0-1.9,14.2-2.4,15.4c-0.5,1.2,1.3,3.3,1.3,3.3L304.9,186.2z"/>
		
			<linearGradient id="SVGID_8_" gradientUnits="userSpaceOnUse" x1="58152.9961" y1="-81907.6406" x2="68844.8516" y2="-97073.2891" gradientTransform="matrix(1 0 0 -1 0 336.9)">
			<stop  offset="0" style="stop-color:#FEBBBA"/>
			<stop  offset="1" style="stop-color:#FF928E"/>
		</linearGradient>
		<path class="st20" d="M304.8,183.4c0,0,8.7,23.8,23.6,31.2c0,0-4.9,8.1-7.5,8.6c0,0-15.9-20.3-17.5-37L304.8,183.4z"/>
		
			<linearGradient id="SVGID_9_" gradientUnits="userSpaceOnUse" x1="366.835" y1="45.521" x2="368.5808" y2="2.5307" gradientTransform="matrix(1 0 0 -1 0 336.9)">
			<stop  offset="0" style="stop-color:#4F52FF"/>
			<stop  offset="1" style="stop-color:#4042E2"/>
		</linearGradient>
		<path class="st21" d="M364.5,326.5l0.4,3.6c0.5,1.7,2.7,6,5.5,5.8c1.7-0.2,1.9-5.3,1.7-6c-0.4-1.4-1.3-3.5-2.4-4.7h-4
			c-0.2,0-0.3,0-0.5,0.1c-0.2,0.1-0.3,0.2-0.4,0.3c-0.1,0.1-0.2,0.3-0.3,0.4C364.5,326.2,364.5,326.4,364.5,326.5L364.5,326.5z"/>
		
			<linearGradient id="SVGID_10_" gradientUnits="userSpaceOnUse" x1="-48260.75" y1="-130770.5156" x2="-31709.918" y2="-86222.9766" gradientTransform="matrix(1 0 0 -1 0 336.9)">
			<stop  offset="0" style="stop-color:#FEBBBA"/>
			<stop  offset="1" style="stop-color:#FF928E"/>
		</linearGradient>
		<path class="st22" d="M333.2,284.3l-0.7,4c0,0,2.3,22.9,2.7,32.1c0.1,1.4-0.3,2.9-1.1,4.1l-3.9,6.4l10-5.9l0.2-1.2l-1.6-2.3
			l2.1-25.7c0.1-1.5-0.2-3-0.9-4.4l-2.1-3.9L333.2,284.3z"/>
		
			<linearGradient id="SVGID_11_" gradientUnits="userSpaceOnUse" x1="-736.5859" y1="-25498.0957" x2="-894.0578" y2="-29246.6582" gradientTransform="matrix(1 0 0 -1 0 336.9)">
			<stop  offset="0" style="stop-color:#4F52FF"/>
			<stop  offset="1" style="stop-color:#4042E2"/>
		</linearGradient>
		<path class="st23" d="M329.5,331.7h3.2c0.3,0,0.6-0.1,0.8-0.2c0.3-0.1,0.5-0.3,0.7-0.6c1-1.3,3-3.8,4-3.9c1.3-0.1,1.2,4.6,1.2,4.6
			h0.7l0.9-5.9c0.1-0.7,0-1.5-0.3-2.1c-0.3-0.7-0.8-1.2-1.5-1.5l0,0c0,0-0.3,2.2-1.9,3.2c-1.6,1-6.7,4.5-6.7,4.5
			c-0.4-0.1-0.9,0-1.3,0C328.4,330.2,328.5,331.7,329.5,331.7z"/>
		
			<linearGradient id="SVGID_12_" gradientUnits="userSpaceOnUse" x1="-22133.9512" y1="-140029.3281" x2="-14471.7549" y2="-92317.9375" gradientTransform="matrix(1 0 0 -1 0 336.9)">
			<stop  offset="0" style="stop-color:#FEBBBA"/>
			<stop  offset="1" style="stop-color:#FF928E"/>
		</linearGradient>
		<path class="st24" d="M346.9,286.1c0,0,13.2,25.1,15.3,30.9c2.1,5.7,2.8,10.5,2.9,11c0,0.7,0.9,1.4,3.4,1.4c1.3,0,1.9-0.5,2.2-1
			c0.1-0.2,0.2-0.4,0.2-0.7c0-0.2,0-0.5-0.2-0.7c-0.8-1.6-3.2-6.5-4.1-8.8c-1.1-2.7-3.4-14.9-4.7-19.1c-1.3-4.2-2.7-8.8-8.2-13
			C353.7,286.1,349.9,282.4,346.9,286.1z"/>
		
			<linearGradient id="SVGID_13_" gradientUnits="userSpaceOnUse" x1="320.3989" y1="95.1691" x2="-9205.0098" y2="-8717.4072" gradientTransform="matrix(1 0 0 -1 0 336.9)">
			<stop  offset="0" style="stop-color:#FF928E"/>
			<stop  offset="1" style="stop-color:#FE7062"/>
		</linearGradient>
		<path class="st25" d="M338.5,245c-1.9-8.2,0-14.4,2.1-18.2c0.4-0.7,0.6-1.5,0.7-2.3c0.1-0.8,0-1.6-0.2-2.4
			c-0.2-0.8-0.6-1.5-1.2-2.1c-0.5-0.6-1.2-1.1-1.9-1.5c-4.8-2.5-9.6-3.7-9.6-3.7s-9.5,6.9-8.4,12.4c0.7,3.2,6.7,19.1,6.7,19.1
			S332.2,248.7,338.5,245z"/>
		
			<linearGradient id="SVGID_14_" gradientUnits="userSpaceOnUse" x1="354.7248" y1="83.0411" x2="-22186.2441" y2="-19456.7441" gradientTransform="matrix(1 0 0 -1 0 336.9)">
			<stop  offset="0" style="stop-color:#4F52FF"/>
			<stop  offset="1" style="stop-color:#4042E2"/>
		</linearGradient>
		<path class="st26" d="M346.1,252.1c-1.4-4.2-7.6-7.2-7.6-7.2c-6.3,3.8-11.9,1.2-11.9,1.2s-1.2,4.8-0.4,9.2
			c0.9,4.4,6.3,32.9,6.3,32.9c8.5,1.7,21.6-1.7,21.6-1.7C348.7,276.9,347.5,256.3,346.1,252.1z"/>
		
			<linearGradient id="SVGID_15_" gradientUnits="userSpaceOnUse" x1="-6295.1616" y1="-27169.1641" x2="-5863.0493" y2="-25389.8535" gradientTransform="matrix(1 0 0 -1 0 336.9)">
			<stop  offset="0" style="stop-color:#FEBBBA"/>
			<stop  offset="1" style="stop-color:#FF928E"/>
		</linearGradient>
		<path class="st27" d="M334.5,205.1l2.8,12.5c0.3,1.1-0.7,0.9-1.8,0.7c-1.8-0.3-4.2-1.1-4.9-2.5c-0.1-0.1-0.1-0.3-0.1-0.5l-1.2-8.7
			c0-0.3,0-0.7,0.2-1c0.2-0.3,0.4-0.5,0.7-0.7l2.3-1c0.2-0.1,0.4-0.1,0.7-0.1c0.2,0,0.5,0.1,0.7,0.2c0.2,0.1,0.4,0.2,0.5,0.4
			C334.4,204.6,334.5,204.8,334.5,205.1L334.5,205.1z"/>
		
			<linearGradient id="SVGID_16_" gradientUnits="userSpaceOnUse" x1="-1603.3236" y1="-62995.7891" x2="-1996.806" y2="-75915.9453" gradientTransform="matrix(1 0 0 -1 0 336.9)">
			<stop  offset="0" style="stop-color:#FEBBBA"/>
			<stop  offset="1" style="stop-color:#FF928E"/>
		</linearGradient>
		<path class="st28" d="M299.9,196.8c0,0,7.3,25.4,36.8,23c0.4,0,0.9,0,1.3,0.2c0.4,0.1,0.8,0.4,1.2,0.6c0.3,0.3,0.6,0.6,0.8,1
			c0.2,0.4,0.3,0.8,0.4,1.3l0.1,1c0.1,0.6,0,1.3-0.3,1.9c-0.2,0.6-0.6,1.2-1,1.6c-0.4,0.5-1,0.8-1.6,1.1c-0.6,0.2-1.2,0.3-1.9,0.3
			c-9.8-0.5-30.8-4.3-38-27.7L299.9,196.8z"/>
		
			<linearGradient id="SVGID_17_" gradientUnits="userSpaceOnUse" x1="-5288.811" y1="-32688.5664" x2="-6352.0146" y2="-38936.707" gradientTransform="matrix(1 0 0 -1 0 336.9)">
			<stop  offset="0" style="stop-color:#FEBBBA"/>
			<stop  offset="1" style="stop-color:#FF928E"/>
		</linearGradient>
		<path class="st29" d="M297.6,201.2c0,0-1.4-4.1-1.8-6.7c-0.4-2.6,0.9-8.4,2.1-10c1.1-1.6,1.3,2.4,1.8,4.2c0.5,1.9-0.3,4.6-0.3,4.6
			l0.5,3.5L297.6,201.2z"/>
		
			<linearGradient id="SVGID_18_" gradientUnits="userSpaceOnUse" x1="-8106.9263" y1="13910.5527" x2="-6931.2764" y2="11991.124" gradientTransform="matrix(1 0 0 -1 0 336.9)">
			<stop  offset="0" style="stop-color:#FEBBBA"/>
			<stop  offset="1" style="stop-color:#FF928E"/>
		</linearGradient>
		<path class="st30" d="M328.9,194.8c0,0-7,10.2-2.7,13.1c4.4,2.9,9.4-4.4,9.4-4.4s1.6-5.6-0.2-7.4
			C333.6,194.2,328.9,194.8,328.9,194.8z"/>
		
			<linearGradient id="SVGID_19_" gradientUnits="userSpaceOnUse" x1="-5137.4199" y1="-11820.7471" x2="-2352.4102" y2="-5731.0405" gradientTransform="matrix(1 0 0 -1 0 336.9)">
			<stop  offset="0" style="stop-color:#09005D"/>
			<stop  offset="1" style="stop-color:#1A0F91"/>
		</linearGradient>
		<path class="st31" d="M331.8,192.3c0,0-3.1,0.8-3.5,2.2c-0.4,1.4,4.4,2.6,5.7,2.6l1.2,5.6c0,0,3.1-5.3,1.8-8.4
			C335.7,191.3,331.8,192.3,331.8,192.3z"/>
		
			<linearGradient id="SVGID_20_" gradientUnits="userSpaceOnUse" x1="-1504.4945" y1="4404.3916" x2="-1229.4561" y2="3766.3018" gradientTransform="matrix(1 0 0 -1 0 336.9)">
			<stop  offset="0" style="stop-color:#FEBBBA"/>
			<stop  offset="1" style="stop-color:#FF928E"/>
		</linearGradient>
		<path class="st32" d="M334.1,202.7c0,0,2.7-3.3,3.9-1.2c1.2,2.1-2.5,3.8-3.7,2.7L334.1,202.7z"/>
		<path class="st2" d="M71.7,300.9h111.7v-18.2H71.7C74.1,282.7,74.1,300.9,71.7,300.9z"/>
		
			<linearGradient id="SVGID_21_" gradientUnits="userSpaceOnUse" x1="342.386" y1="-51360.4414" x2="399.1698" y2="-65128.9023" gradientTransform="matrix(1 0 0 -1 0 336.9)">
			<stop  offset="0" style="stop-color:#FF928E"/>
			<stop  offset="1" style="stop-color:#FE7062"/>
		</linearGradient>
		<path class="st33" d="M183.4,296.3V288c0-2.9-2.2-5.3-4.9-5.3H72.1c-2.1,0-3.9-1.4-3.9-3.2c0-0.5,0.5-1,1.2-1h116.2
			c2.7,0,6.9,3.4,6.9,7.6v11.6c0,4-4.1,7.2-6.6,7.2H70c-1,0-1.8-0.7-1.8-1.5c0-1.5,1.5-2.7,3.3-2.7h107.6
			C181.5,300.9,183.4,298.8,183.4,296.3z"/>
		<path class="st34" d="M180.3,286.8H75.5c-0.1,0-0.1,0-0.2,0c-0.1,0-0.1,0-0.1-0.1c0,0-0.1-0.1-0.1-0.1c0-0.1,0-0.1,0-0.2
			c0-0.1,0-0.1,0-0.2c0-0.1,0.1-0.1,0.1-0.1c0,0,0.1-0.1,0.1-0.1c0.1,0,0.1,0,0.2,0h104.7c0.1,0,0.1,0,0.2,0c0.1,0,0.1,0,0.1,0.1
			c0,0,0.1,0.1,0.1,0.1c0,0.1,0,0.1,0,0.2c0,0.1,0,0.1,0,0.2c0,0.1-0.1,0.1-0.1,0.1c0,0-0.1,0.1-0.1,0.1
			C180.4,286.8,180.3,286.8,180.3,286.8L180.3,286.8z"/>
		<path class="st34" d="M180.3,289.5H75.5c-0.1,0-0.1,0-0.2,0s-0.1,0-0.1-0.1c0,0-0.1-0.1-0.1-0.1c0-0.1,0-0.1,0-0.2
			c0-0.1,0-0.1,0-0.2s0.1-0.1,0.1-0.1c0,0,0.1-0.1,0.1-0.1s0.1,0,0.2,0h104.7c0.1,0,0.1,0,0.2,0c0.1,0,0.1,0,0.1,0.1
			c0,0,0.1,0.1,0.1,0.1c0,0.1,0,0.1,0,0.2c0,0.1,0,0.1,0,0.2c0,0.1-0.1,0.1-0.1,0.1c0,0-0.1,0.1-0.1,0.1
			C180.4,289.5,180.3,289.5,180.3,289.5L180.3,289.5z"/>
		<path class="st34" d="M180.3,292.2H75.5c-0.1,0-0.1,0-0.2,0c-0.1,0-0.1,0-0.1-0.1c0,0-0.1-0.1-0.1-0.1c0-0.1,0-0.1,0-0.2
			s0-0.1,0-0.2s0.1-0.1,0.1-0.1c0,0,0.1-0.1,0.1-0.1c0.1,0,0.1,0,0.2,0h104.7c0.1,0,0.1,0,0.2,0c0.1,0,0.1,0,0.1,0.1
			c0,0,0.1,0.1,0.1,0.1c0,0.1,0,0.1,0,0.2s0,0.1,0,0.2c0,0.1-0.1,0.1-0.1,0.1c0,0-0.1,0.1-0.1,0.1
			C180.4,292.2,180.3,292.2,180.3,292.2L180.3,292.2z"/>
		<path class="st34" d="M180.3,294.9H75.5c-0.1,0-0.1,0-0.2,0c-0.1,0-0.1,0-0.1-0.1c0,0-0.1-0.1-0.1-0.1c0-0.1,0-0.1,0-0.2
			c0-0.1,0-0.1,0-0.2c0-0.1,0.1-0.1,0.1-0.1c0,0,0.1-0.1,0.1-0.1c0.1,0,0.1,0,0.2,0h104.7c0.1,0,0.1,0,0.2,0c0.1,0,0.1,0,0.1,0.1
			c0,0,0.1,0.1,0.1,0.1c0,0.1,0,0.1,0,0.2c0,0.1,0,0.1,0,0.2c0,0.1-0.1,0.1-0.1,0.1c0,0-0.1,0.1-0.1,0.1
			C180.4,294.9,180.3,294.9,180.3,294.9L180.3,294.9z"/>
		<path class="st34" d="M180.3,297.6H75.5c-0.1,0-0.1,0-0.2,0c-0.1,0-0.1,0-0.1-0.1c0,0-0.1-0.1-0.1-0.1c0-0.1,0-0.1,0-0.2
			s0-0.1,0-0.2s0.1-0.1,0.1-0.1c0,0,0.1-0.1,0.1-0.1c0.1,0,0.1,0,0.2,0h104.7c0.1,0,0.1,0,0.2,0c0.1,0,0.1,0,0.1,0.1
			c0,0,0.1,0.1,0.1,0.1c0,0.1,0,0.1,0,0.2s0,0.1,0,0.2c0,0.1-0.1,0.1-0.1,0.1c0,0-0.1,0.1-0.1,0.1
			C180.4,297.6,180.3,297.6,180.3,297.6L180.3,297.6z"/>
		
			<linearGradient id="SVGID_22_" gradientUnits="userSpaceOnUse" x1="47.6565" y1="16.4883" x2="196.7496" y2="16.4883" gradientTransform="matrix(1 0 0 -1 0 336.9)">
			<stop  offset="0" style="stop-color:#5A08A8"/>
			<stop  offset="1" style="stop-color:#1D4AD5"/>
		</linearGradient>
		<path class="st35" d="M195,305.2H49.4c-1,0-1.8,0.8-1.8,1.8v26.8c0,1,0.8,1.8,1.8,1.8H195c1,0,1.8-0.8,1.8-1.8V307
			C196.7,306,196,305.2,195,305.2z"/>
		<path class="st36" d="M79.1,308.7H67.4c-1.6,0-2.9,1.3-2.9,2.9v17.5c0,1.6,1.3,2.9,2.9,2.9h11.7c1.6,0,2.9-1.3,2.9-2.9v-17.5
			C82,310,80.7,308.7,79.1,308.7z"/>
		<path class="st36" d="M88.8,308.7H87c-1.3,0-2.4,1.1-2.4,2.4v18.6c0,1.3,1.1,2.4,2.4,2.4h1.8c1.3,0,2.4-1.1,2.4-2.4v-18.6
			C91.2,309.8,90.1,308.7,88.8,308.7z"/>
		
			<linearGradient id="SVGID_23_" gradientUnits="userSpaceOnUse" x1="-3839.0122" y1="-7815.4526" x2="-5792.6714" y2="-11729.4873" gradientTransform="matrix(1 0 0 -1 0 336.9)">
			<stop  offset="0" style="stop-color:#09005D"/>
			<stop  offset="1" style="stop-color:#1A0F91"/>
		</linearGradient>
		<path class="st37" d="M123.1,196.9c-0.1,0.1-4.6,3.5-4.6,3.5s1,7.2,5.1,10.1c4.5,3.1,10.8-2.6,10.8-2.6s5.1,1.2,7.7-9.3
			c0.6-2.4-2.9-2.6-7.2-2.2C129.3,196.9,123.1,196.9,123.1,196.9z"/>
		
			<linearGradient id="SVGID_24_" gradientUnits="userSpaceOnUse" x1="-22385.1055" y1="-45686.6289" x2="-40234.1094" y2="-81979.8203" gradientTransform="matrix(1 0 0 -1 0 336.9)">
			<stop  offset="0" style="stop-color:#FF928E"/>
			<stop  offset="1" style="stop-color:#FE7062"/>
		</linearGradient>
		<path class="st38" d="M114.6,221.5c1.8-1.2,3.8-2.2,5.8-2.7c0.8-0.2,5,1,7.6,1c3.6-0.1,7.3-1.7,10.2-1c2.9,0.7,5.4,1.7,6.7,2.7
			c4.2,3,6.6,8.5,8.1,14c-2.8,2.9-6.4,4.2-6.4,4.2l-0.7,26.6l-15.7,8.1l-18-9l0.6-26c0,0-5.7-2.7-6.1-3.6
			C106.5,234.7,109.5,224.9,114.6,221.5z"/>
		
			<linearGradient id="SVGID_25_" gradientUnits="userSpaceOnUse" x1="41264.875" y1="-46203.2539" x2="51759.1133" y2="-58007.5742" gradientTransform="matrix(1 0 0 -1 0 336.9)">
			<stop  offset="0" style="stop-color:#FEBBBA"/>
			<stop  offset="1" style="stop-color:#FF928E"/>
		</linearGradient>
		<path class="st39" d="M107.2,235.5c0,0-7.6,21.2,9.8,29.9c3.6-0.5,2.2-6.5,2.2-6.5s-7.6-1.7-5.3-19.4
			C111.8,237.8,107.2,235.5,107.2,235.5z"/>
		
			<linearGradient id="SVGID_26_" gradientUnits="userSpaceOnUse" x1="-1149.7494" y1="-1290.9344" x2="-11697.5664" y2="-12493.5166" gradientTransform="matrix(1 0 0 -1 0 336.9)">
			<stop  offset="0" style="stop-color:#FEBBBA"/>
			<stop  offset="1" style="stop-color:#FF928E"/>
		</linearGradient>
		<path class="st40" d="M152.7,235.5c0,0,5.3,22.1-9.8,29.9c-3.6-0.5-2.2-6.5-2.2-6.5s6.1-3,5.3-19.4
			C148.1,237.8,152.7,235.5,152.7,235.5z"/>
		
			<linearGradient id="SVGID_27_" gradientUnits="userSpaceOnUse" x1="-639.6866" y1="-45975.3984" x2="-844.4252" y2="-58235.5078" gradientTransform="matrix(1 0 0 -1 0 336.9)">
			<stop  offset="0" style="stop-color:#09005D"/>
			<stop  offset="1" style="stop-color:#1A0F91"/>
		</linearGradient>
		<path class="st41" d="M145.7,243.6h-32.5c-0.6,0-1,0.4-1,1v21.3c0,0.6,0.4,1,1,1h32.5c0.6,0,1-0.4,1-1v-21.3
			C146.7,244,146.2,243.6,145.7,243.6z"/>
		
			<linearGradient id="SVGID_28_" gradientUnits="userSpaceOnUse" x1="21266.7949" y1="-102.1075" x2="23404.7207" y2="-118.5026" gradientTransform="matrix(1 0 0 -1 0 336.9)">
			<stop  offset="0" style="stop-color:#09005D"/>
			<stop  offset="1" style="stop-color:#1A0F91"/>
		</linearGradient>
		<path class="st42" d="M161.8,273.8c-4-0.9-13.1-0.4-13.1-0.4l-0.4,1l-0.6,5c0,0,8.7,1.6,13,1.6c0.4,0,0.8-0.1,1.2-0.2
			c0.1-0.1,0.3-0.2,0.4-0.4C164.1,278.4,163.6,275.5,161.8,273.8z"/>
		
			<linearGradient id="SVGID_29_" gradientUnits="userSpaceOnUse" x1="-4640.0845" y1="-10267.5312" x2="-5704.9751" y2="-12564.6074" gradientTransform="matrix(1 0 0 -1 0 336.9)">
			<stop  offset="0" style="stop-color:#FEBBBA"/>
			<stop  offset="1" style="stop-color:#FF928E"/>
		</linearGradient>
		<path class="st43" d="M146.1,273.1l1.5,0.1c0.4,0,0.8,0.1,1.2,0.3c0.4,0.2,0.7,0.5,1,0.8c0.6,0.7,0.9,1.6,0.8,2.5
			c0,0.7-0.3,1.4-0.8,1.9c-0.2,0.2-0.5,0.4-0.8,0.5c-0.3,0.1-0.6,0.2-1,0.1l-2.4-0.2L146.1,273.1z"/>
		
			<linearGradient id="SVGID_30_" gradientUnits="userSpaceOnUse" x1="108.1384" y1="59.9302" x2="92.472" y2="60.243" gradientTransform="matrix(1 0 0 -1 0 336.9)">
			<stop  offset="0" style="stop-color:#09005D"/>
			<stop  offset="1" style="stop-color:#1A0F91"/>
		</linearGradient>
		<path class="st44" d="M94.2,273.3c4-0.8,13.1,0,13.1,0l0.3,1l0.5,5c0,0-8.7,1.3-13,1.2c-0.4,0-0.8-0.1-1.2-0.2
			c-0.1-0.1-0.3-0.2-0.4-0.4C91.8,277.9,92.4,275,94.2,273.3z"/>
		
			<linearGradient id="SVGID_31_" gradientUnits="userSpaceOnUse" x1="-4615.8193" y1="-10091.5049" x2="-5672.8965" y2="-12363.1494" gradientTransform="matrix(1 0 0 -1 0 336.9)">
			<stop  offset="0" style="stop-color:#FEBBBA"/>
			<stop  offset="1" style="stop-color:#FF928E"/>
		</linearGradient>
		<path class="st45" d="M109.9,273.1l-1.5,0c-0.4,0-0.8,0.1-1.2,0.3c-0.4,0.2-0.7,0.4-1,0.8c-0.6,0.7-0.9,1.6-0.9,2.5
			c0,0.7,0.3,1.4,0.8,1.9c0.2,0.2,0.5,0.4,0.8,0.6c0.3,0.1,0.6,0.2,1,0.2l2.4-0.1L109.9,273.1z"/>
		
			<linearGradient id="SVGID_32_" gradientUnits="userSpaceOnUse" x1="-6036.0957" y1="-9816.4678" x2="-15072.5244" y2="-24288.959" gradientTransform="matrix(1 0 0 -1 0 336.9)">
			<stop  offset="0" style="stop-color:#4F52FF"/>
			<stop  offset="1" style="stop-color:#4042E2"/>
		</linearGradient>
		<path class="st46" d="M162.9,258.1c-1.8-4.1-6.2-4.8-9.9-2.9c-0.1,0.1-23.7,12.2-44.5,17.5c0.6,1.9,0.9,3.9,1,6c0,0.4,0,0.9,0,1.3
			c16-0.8,33.3-6.2,48.2-10.8C162.3,267.7,164.9,262.7,162.9,258.1z"/>
		
			<linearGradient id="SVGID_33_" gradientUnits="userSpaceOnUse" x1="15709.6299" y1="-80007.3906" x2="14309.6465" y2="-72815.5312" gradientTransform="matrix(1 0 0 -1 0 336.9)">
			<stop  offset="0" style="stop-color:#4F52FF"/>
			<stop  offset="1" style="stop-color:#4042E2"/>
		</linearGradient>
		<path class="st47" d="M146.2,279c-0.1-2.2,0.4-4.4,1.3-6.4c0-0.1,0.1-0.2,0.1-0.3c-1.2-0.4-2.7-0.9-4.7-1.6
			c-14.8-5.1-26.1-10.2-36.8-16.1c-4.2-2.3-8.9-0.8-10.3,4.2c-1.2,4.4,1.4,8.2,5.4,9.5c11.9,4,5.7,2.9,9.6,4.1
			c10.4,3.2,23.4,6.2,35.4,7C146.3,279.4,146.2,279.2,146.2,279z"/>
		
			<linearGradient id="SVGID_34_" gradientUnits="userSpaceOnUse" x1="419.641" y1="-32996.1562" x2="385.1713" y2="-29064.2051" gradientTransform="matrix(1 0 0 -1 0 336.9)">
			<stop  offset="0" style="stop-color:#FEBBBA"/>
			<stop  offset="1" style="stop-color:#FF928E"/>
		</linearGradient>
		<path class="st48" d="M120.4,218.8c0,0,1.6,6.9,9.3,6.8c7.9-0.1,8.6-6.8,8.6-6.8l-5.1-1.1l-0.4-5.7l-7.7,0.6l-0.1,5.4L120.4,218.8
			z"/>
		
			<linearGradient id="SVGID_35_" gradientUnits="userSpaceOnUse" x1="-7623.9956" y1="-34973.375" x2="-6445.626" y2="-29638.9609" gradientTransform="matrix(1 0 0 -1 0 336.9)">
			<stop  offset="0" style="stop-color:#FEBBBA"/>
			<stop  offset="1" style="stop-color:#FF928E"/>
		</linearGradient>
		<path class="st49" d="M126.1,195.7c0,0-8.9,17.2,1.6,21.3c7.4,2.9,12-11.4,10.7-15.3c-2.1-6-3.6-5.3-3.6-5.3L126.1,195.7z"/>
		
			<linearGradient id="SVGID_36_" gradientUnits="userSpaceOnUse" x1="-5218.7065" y1="-8847.4648" x2="-8365.5293" y2="-14134.291" gradientTransform="matrix(1 0 0 -1 0 336.9)">
			<stop  offset="0" style="stop-color:#09005D"/>
			<stop  offset="1" style="stop-color:#1A0F91"/>
		</linearGradient>
		<path class="st50" d="M140.5,194.1c4.4,1.2,0.6,10.7-5.9,8.5c-6.6-2.2-9.2-2.2-10.2-0.4c-1,1.8-1.2,8.2-3.5,5.1
			c-2.4-3.5-3.8-10.5-0.8-12.7c2.7-2,3.3-5.1,6.5-5c4.3,0.1,7.5-1.7,9.5-0.4C138.3,190.6,137.3,193.2,140.5,194.1z"/>
		
			<linearGradient id="SVGID_37_" gradientUnits="userSpaceOnUse" x1="722.3232" y1="-14316.9121" x2="631.3343" y2="-12123.4854" gradientTransform="matrix(1 0 0 -1 0 336.9)">
			<stop  offset="0" style="stop-color:#FEBBBA"/>
			<stop  offset="1" style="stop-color:#FF928E"/>
		</linearGradient>
		<path class="st51" d="M124,203.6c0,0-1.9-2-2.2,0.4c-0.3,2.5,0.7,5.6,1.8,3.9C124.7,206.2,124,203.6,124,203.6z"/>
		<path class="st2" d="M131.5,253.4c0.2,1.2-0.5,2.4-1.7,2.5c-0.6,0.1-1.2-0.1-1.7-0.4c-0.5-0.4-0.8-0.9-0.9-1.5
			c-0.2-1.2,0.4-2.5,1.6-2.7C130.1,251.2,131.3,252.2,131.5,253.4z"/>
		<path class="st3" d="M107.8,188.2c22.3,0,40.4-18.1,40.4-40.4c0-22.3-18.1-40.4-40.4-40.4c-22.3,0-40.4,18.1-40.4,40.4
			C67.4,170.1,85.5,188.2,107.8,188.2z"/>
		<path class="st52" d="M74.5,145.8l8.5-4.4v1.9c0,0.1,0,0.3-0.1,0.4c-0.1,0.1-0.2,0.2-0.4,0.3l-3.9,2c-0.2,0.1-0.3,0.2-0.5,0.2
			c-0.2,0.1-0.4,0.1-0.6,0.2c0.2,0.1,0.4,0.1,0.6,0.2c0.2,0.1,0.4,0.1,0.5,0.2l3.9,2c0.1,0.1,0.3,0.2,0.4,0.3
			c0.1,0.1,0.1,0.3,0.1,0.4v1.9l-8.5-4.4V145.8z"/>
		<path class="st52" d="M86.8,153.5v-15.9h2.6v6.1c0.4-0.4,0.9-0.7,1.4-1c0.6-0.3,1.2-0.4,1.8-0.4c0.5,0,1.1,0.1,1.6,0.3
			c0.4,0.2,0.8,0.5,1.2,0.9c0.3,0.4,0.6,0.8,0.7,1.3c0.2,0.5,0.2,1.1,0.2,1.7v7h-2.6v-7c0-0.7-0.2-1.2-0.5-1.6
			c-0.3-0.4-0.8-0.6-1.4-0.6c-0.4,0-0.9,0.1-1.3,0.3c-0.4,0.2-0.8,0.5-1.1,0.8v7.9L86.8,153.5z"/>
		<path class="st52" d="M102.6,153.7c-0.9,0-1.7-0.3-2.2-0.8c-0.5-0.5-0.8-1.3-0.8-2.2v-6.1h-1.1c-0.1,0-0.1,0-0.2,0
			c-0.1,0-0.1-0.1-0.2-0.1c0-0.1-0.1-0.1-0.1-0.2c0-0.1,0-0.1,0-0.2v-1l1.8-0.3l0.6-3c0-0.1,0.1-0.3,0.2-0.3
			c0.1-0.1,0.3-0.1,0.4-0.1h1.4v3.5h2.9v1.9h-2.9v6c0,0.3,0.1,0.6,0.3,0.8c0.1,0.1,0.2,0.2,0.3,0.2c0.1,0.1,0.2,0.1,0.4,0.1
			c0.1,0,0.3,0,0.4-0.1c0.1,0,0.2-0.1,0.3-0.1c0.1,0,0.2-0.1,0.2-0.1c0.1,0,0.1-0.1,0.2-0.1c0.1,0,0.1,0,0.2,0.1
			c0.1,0.1,0.1,0.1,0.2,0.2l0.8,1.3c-0.4,0.3-0.8,0.6-1.3,0.7C103.6,153.6,103.1,153.7,102.6,153.7L102.6,153.7z"/>
		<path class="st52" d="M107.3,153.5v-11h1.6c0.2,0,0.3,0,0.4,0.1c0.1,0.1,0.2,0.2,0.3,0.4l0.2,0.8c0.2-0.2,0.4-0.4,0.6-0.6
			c0.2-0.2,0.4-0.3,0.7-0.5c0.2-0.1,0.5-0.2,0.8-0.3c0.3-0.1,0.6-0.1,0.9-0.1c0.7,0,1.3,0.2,1.7,0.6c0.5,0.4,0.8,0.9,1,1.5
			c0.2-0.3,0.4-0.7,0.6-0.9c0.2-0.3,0.5-0.5,0.8-0.6c0.3-0.2,0.6-0.3,1-0.4c0.3-0.1,0.7-0.1,1-0.1c0.6,0,1.1,0.1,1.6,0.3
			c0.5,0.2,0.9,0.5,1.2,0.8c0.3,0.4,0.6,0.8,0.7,1.3c0.2,0.6,0.3,1.2,0.3,1.8v7H120v-7c0-0.7-0.2-1.2-0.5-1.6
			c-0.3-0.4-0.8-0.5-1.3-0.5c-0.3,0-0.5,0-0.8,0.1c-0.2,0.1-0.4,0.2-0.6,0.4c-0.2,0.2-0.3,0.4-0.4,0.7c-0.1,0.3-0.2,0.6-0.1,0.9v7
			h-2.7v-7c0-0.7-0.1-1.3-0.4-1.6c-0.3-0.3-0.7-0.5-1.3-0.5c-0.4,0-0.7,0.1-1.1,0.3c-0.3,0.2-0.7,0.5-0.9,0.8v8L107.3,153.5z"/>
		<path class="st52" d="M128.1,137.6v15.9h-2.6v-15.9H128.1z"/>
		<path class="st52" d="M132.1,151.3v-1.9c0-0.1,0-0.3,0.1-0.4c0.1-0.1,0.2-0.2,0.4-0.3l3.9-2c0.4-0.2,0.7-0.3,1.1-0.4
			c-0.2,0-0.4-0.1-0.6-0.2c-0.2-0.1-0.4-0.1-0.5-0.2l-3.9-2c-0.1-0.1-0.3-0.2-0.4-0.3c-0.1-0.1-0.1-0.3-0.1-0.4v-1.9l8.5,4.4v1.1
			L132.1,151.3z"/>
		<path class="st3" d="M200.4,157.3c19.6,0,35.6-15.9,35.6-35.6C235.9,102,220,86,200.4,86c-19.6,0-35.6,15.9-35.6,35.6
			C164.8,141.3,180.7,157.3,200.4,157.3z"/>
		<path class="st52" d="M181.6,121.7l10.3-5.4v2.3c0,0.2,0,0.3-0.1,0.5c-0.1,0.2-0.3,0.3-0.4,0.4l-4.7,2.4c-0.2,0.1-0.4,0.2-0.6,0.3
			c-0.2,0.1-0.5,0.1-0.7,0.2c0.3,0.1,0.5,0.1,0.7,0.2c0.2,0.1,0.4,0.2,0.6,0.3l4.7,2.4c0.2,0.1,0.3,0.2,0.4,0.4
			c0.1,0.1,0.1,0.3,0.1,0.5v2.3l-10.3-5.4V121.7z"/>
		<path class="st52" d="M197.6,131.2c-0.1,0.2-0.2,0.4-0.3,0.5c-0.1,0.1-0.3,0.3-0.4,0.4c-0.2,0.1-0.3,0.2-0.5,0.2
			c-0.2,0.1-0.3,0.1-0.5,0.1h-1.3l7.6-19.4c0.1-0.3,0.3-0.6,0.6-0.8c0.3-0.2,0.6-0.3,1-0.3h1.4L197.6,131.2z"/>
		<path class="st52" d="M207.8,128.4v-2.3c0-0.2,0-0.3,0.1-0.5c0.1-0.2,0.3-0.3,0.4-0.4l4.7-2.4c0.4-0.2,0.9-0.4,1.3-0.5
			c-0.3-0.1-0.5-0.1-0.7-0.2c-0.2-0.1-0.4-0.2-0.6-0.3l-4.7-2.4c-0.2-0.1-0.3-0.2-0.4-0.4c-0.1-0.1-0.1-0.3-0.1-0.5v-2.3l10.3,5.4
			v1.3L207.8,128.4z"/>
		<g class="st53">
			
				<linearGradient id="SVGID_38_" gradientUnits="userSpaceOnUse" x1="5068.9214" y1="195.3826" x2="5088.124" y2="195.3826" gradientTransform="matrix(1 0 0 -1 0 336.9)">
				<stop  offset="0" style="stop-color:#4F52FF"/>
				<stop  offset="1" style="stop-color:#4042E2"/>
			</linearGradient>
			<path class="st54" d="M360.2,142.3c-0.1,0-0.1,0-0.2,0c0,0-0.1-0.1-0.1-0.1c0,0-0.1-0.1-0.1-0.1c0,0,0-0.1,0-0.2
				c0-0.1,0-0.1,0-0.2c0,0,0.1-0.1,0.1-0.1c0.2-0.2,0.5-0.5,0.7-0.7c0.1-0.1,0.2-0.1,0.3-0.1c0.1,0,0.2,0,0.3,0.1
				c0.1,0.1,0.1,0.2,0.1,0.3c0,0.1,0,0.2-0.1,0.3c-0.2,0.2-0.5,0.5-0.7,0.7C360.4,142.2,360.3,142.3,360.2,142.3z"/>
			
				<linearGradient id="SVGID_39_" gradientUnits="userSpaceOnUse" x1="161764.2969" y1="203.2363" x2="194557.7344" y2="203.2363" gradientTransform="matrix(1 0 0 -1 0 336.9)">
				<stop  offset="0" style="stop-color:#4F52FF"/>
				<stop  offset="1" style="stop-color:#4042E2"/>
			</linearGradient>
			<path class="st55" d="M335,152.9c-0.1,0-0.2,0-0.3-0.1c-0.1-0.1-0.1-0.2-0.1-0.3c0-0.1,0-0.2,0.1-0.3c0.1-0.1,0.2-0.1,0.3-0.1
				c0.7,0,1.3,0,2-0.1c0.1,0,0.2,0,0.3,0.1c0.1,0.1,0.1,0.2,0.1,0.3c0,0.1,0,0.2-0.1,0.3c-0.1,0.1-0.2,0.1-0.3,0.1
				C336.4,152.9,335.7,152.9,335,152.9L335,152.9z M333,152.9L333,152.9c-0.7,0-1.4-0.1-2-0.1c-0.1,0-0.2-0.1-0.3-0.1
				c-0.1-0.1-0.1-0.2-0.1-0.3c0-0.1,0.1-0.2,0.1-0.3c0.1-0.1,0.2-0.1,0.3-0.1c0.7,0.1,1.3,0.1,2,0.1c0.1,0,0.2,0,0.3,0.1
				c0.1,0.1,0.1,0.2,0.1,0.3c0,0.1,0,0.2-0.1,0.3C333.3,152.9,333.2,152.9,333,152.9L333,152.9z M339,152.6c-0.1,0-0.2,0-0.3-0.1
				c-0.1-0.1-0.1-0.2-0.1-0.3c0-0.1,0-0.2,0.1-0.3c0.1-0.1,0.2-0.1,0.3-0.1c0.6-0.1,1.3-0.2,1.9-0.3c0.1,0,0.2,0,0.3,0.1
				c0.1,0.1,0.1,0.2,0.2,0.3c0,0.1,0,0.2-0.1,0.3c-0.1,0.1-0.2,0.1-0.3,0.2C340.4,152.4,339.7,152.5,339,152.6L339,152.6z
				 M329.1,152.6C329.1,152.6,329,152.6,329.1,152.6c-0.7-0.1-1.4-0.2-2-0.3c-0.1,0-0.1,0-0.2-0.1c0,0-0.1-0.1-0.1-0.1
				c0,0-0.1-0.1-0.1-0.1c0-0.1,0-0.1,0-0.2c0-0.1,0-0.1,0.1-0.2c0,0,0.1-0.1,0.1-0.1c0,0,0.1,0,0.2-0.1c0.1,0,0.1,0,0.2,0
				c0.6,0.1,1.3,0.2,1.9,0.3c0.1,0,0.2,0.1,0.3,0.1c0.1,0.1,0.1,0.2,0.1,0.3c0,0.1-0.1,0.2-0.1,0.3
				C329.3,152.5,329.2,152.6,329.1,152.6L329.1,152.6z M342.9,151.9c-0.1,0-0.2,0-0.3-0.1c-0.1-0.1-0.1-0.2-0.1-0.3
				c0-0.1,0-0.2,0.1-0.3c0.1-0.1,0.1-0.1,0.2-0.2c0.6-0.2,1.3-0.3,1.9-0.5c0.1,0,0.2,0,0.3,0c0.1,0.1,0.2,0.1,0.2,0.2
				c0,0.1,0,0.2,0,0.3c-0.1,0.1-0.1,0.2-0.2,0.2C344.3,151.5,343.7,151.7,342.9,151.9C343,151.9,343,151.9,342.9,151.9L342.9,151.9z
				 M325.2,151.8C325.1,151.8,325.1,151.8,325.2,151.8c-0.7-0.2-1.4-0.4-2-0.6c-0.1,0-0.1,0-0.1-0.1c0,0-0.1-0.1-0.1-0.1
				c0,0,0-0.1,0-0.2c0-0.1,0-0.1,0-0.2c0-0.1,0-0.1,0.1-0.1c0,0,0.1-0.1,0.1-0.1s0.1,0,0.2,0c0.1,0,0.1,0,0.2,0
				c0.6,0.2,1.3,0.4,1.9,0.5c0.1,0,0.2,0.1,0.2,0.2c0.1,0.1,0.1,0.2,0.1,0.3c0,0.1-0.1,0.2-0.1,0.3S325.3,151.8,325.2,151.8
				L325.2,151.8z M346.8,150.7c-0.1,0-0.2,0-0.3-0.1c-0.1-0.1-0.1-0.1-0.1-0.2c0-0.1,0-0.2,0-0.3c0-0.1,0.1-0.1,0.2-0.2
				c0.6-0.2,1.2-0.5,1.8-0.7c0,0,0.1,0,0.2,0c0.1,0,0.1,0,0.2,0c0,0,0.1,0,0.1,0.1c0,0,0.1,0.1,0.1,0.1c0,0,0,0.1,0,0.2
				c0,0.1,0,0.1,0,0.2c0,0,0,0.1-0.1,0.1c0,0-0.1,0.1-0.1,0.1c-0.6,0.3-1.3,0.5-1.9,0.7C346.9,150.7,346.8,150.7,346.8,150.7
				L346.8,150.7z M321.3,150.7c0,0-0.1,0-0.1,0c-0.6-0.2-1.3-0.5-1.9-0.7c-0.1,0-0.2-0.1-0.2-0.2c0-0.1,0-0.2,0-0.3
				c0-0.1,0.1-0.2,0.2-0.2c0.1,0,0.2,0,0.3,0c0.6,0.3,1.2,0.5,1.8,0.7c0.1,0,0.2,0.1,0.2,0.2c0,0.1,0.1,0.2,0,0.3
				c0,0.1-0.1,0.2-0.1,0.2C321.5,150.6,321.4,150.6,321.3,150.7L321.3,150.7z M350.4,149.1c-0.1,0-0.2,0-0.3-0.1
				c-0.1-0.1-0.1-0.1-0.1-0.2c0-0.1,0-0.2,0-0.3c0-0.1,0.1-0.1,0.2-0.2c0.6-0.3,1.2-0.6,1.8-0.9c0.1,0,0.2-0.1,0.3,0
				c0.1,0,0.2,0.1,0.2,0.2c0.1,0.1,0.1,0.2,0,0.3c0,0.1-0.1,0.2-0.2,0.2c-0.6,0.3-1.2,0.6-1.8,0.9
				C350.6,149.1,350.5,149.1,350.4,149.1L350.4,149.1z M317.7,149.1c-0.1,0-0.1,0-0.2,0c-0.6-0.3-1.2-0.6-1.8-0.9
				c-0.1-0.1-0.2-0.1-0.2-0.2c0-0.1,0-0.2,0-0.3c0.1-0.1,0.1-0.2,0.2-0.2c0.1,0,0.2,0,0.3,0c0.6,0.3,1.2,0.6,1.7,0.9
				c0.1,0,0.1,0.1,0.2,0.2c0,0.1,0,0.2,0,0.3c0,0.1-0.1,0.2-0.1,0.2C317.9,149.1,317.8,149.1,317.7,149.1L317.7,149.1z M353.9,147.2
				c-0.1,0-0.2,0-0.2-0.1c-0.1-0.1-0.1-0.1-0.1-0.2c0-0.1,0-0.2,0-0.3c0-0.1,0.1-0.2,0.2-0.2c0.6-0.3,1.1-0.7,1.6-1.1
				c0.1-0.1,0.2-0.1,0.3-0.1c0.1,0,0.2,0.1,0.3,0.2c0.1,0.1,0.1,0.2,0.1,0.3c0,0.1-0.1,0.2-0.2,0.3c-0.5,0.4-1.1,0.8-1.7,1.1
				C354.1,147.2,354,147.2,353.9,147.2L353.9,147.2z M314.2,147.1c-0.1,0-0.1,0-0.2-0.1c-0.6-0.4-1.1-0.7-1.7-1.1
				c-0.1-0.1-0.1-0.2-0.2-0.3c0-0.1,0-0.2,0.1-0.3c0.1-0.1,0.2-0.1,0.3-0.2c0.1,0,0.2,0,0.3,0.1c0.5,0.4,1.1,0.7,1.6,1.1
				c0.1,0,0.1,0.1,0.2,0.2c0,0.1,0,0.2,0,0.3c0,0.1-0.1,0.2-0.1,0.2C314.4,147.1,314.3,147.1,314.2,147.1L314.2,147.1z M357.2,144.9
				c-0.1,0-0.2,0-0.2-0.1c-0.1,0-0.1-0.1-0.1-0.2c0-0.1,0-0.2,0-0.2c0-0.1,0.1-0.2,0.1-0.2c0.5-0.4,1-0.8,1.5-1.3
				c0.1-0.1,0.2-0.1,0.3-0.1c0.1,0,0.2,0.1,0.3,0.1c0.1,0.1,0.1,0.2,0.1,0.3c0,0.1,0,0.2-0.1,0.3c-0.5,0.4-1,0.9-1.6,1.3
				C357.4,144.9,357.3,144.9,357.2,144.9z M310.9,144.8c-0.1,0-0.2,0-0.2-0.1c-0.5-0.4-1-0.9-1.5-1.3c-0.1-0.1-0.1-0.2-0.1-0.3
				c0-0.1,0-0.2,0.1-0.3c0.1-0.1,0.2-0.1,0.3-0.1c0.1,0,0.2,0,0.3,0.1c0.5,0.4,1,0.9,1.5,1.3c0.1,0.1,0.1,0.1,0.1,0.2
				c0,0.1,0,0.2,0,0.2c0,0.1-0.1,0.1-0.1,0.2S311,144.8,310.9,144.8L310.9,144.8z M308,142.2c-0.1,0-0.1,0-0.2,0
				c0,0-0.1-0.1-0.1-0.1c-0.5-0.5-0.9-1-1.4-1.5c-0.1-0.1-0.1-0.2-0.1-0.3c0-0.1,0.1-0.2,0.1-0.3c0.1-0.1,0.2-0.1,0.3-0.1
				c0.1,0,0.2,0.1,0.3,0.1c0.4,0.5,0.9,1,1.4,1.4c0.1,0.1,0.1,0.1,0.1,0.2c0,0.1,0,0.2,0,0.2c0,0.1-0.1,0.1-0.1,0.2
				C308.1,142.2,308,142.2,308,142.2L308,142.2z M305.3,139.2c-0.1,0-0.1,0-0.2,0c-0.1,0-0.1-0.1-0.1-0.1c-0.4-0.5-0.8-1.1-1.2-1.6
				c-0.1-0.1-0.1-0.2-0.1-0.3c0-0.1,0.1-0.2,0.2-0.3c0.1-0.1,0.2-0.1,0.3-0.1c0.1,0,0.2,0.1,0.3,0.2c0.4,0.5,0.8,1.1,1.2,1.6
				c0,0.1,0.1,0.1,0.1,0.2c0,0.1,0,0.2,0,0.2c0,0.1-0.1,0.1-0.1,0.2C305.4,139.2,305.4,139.2,305.3,139.2L305.3,139.2z M302.9,136
				c-0.1,0-0.1,0-0.2,0c-0.1,0-0.1-0.1-0.1-0.1c-0.4-0.6-0.7-1.1-1.1-1.7c-0.1-0.1-0.1-0.2,0-0.3c0-0.1,0.1-0.2,0.2-0.2
				c0.1-0.1,0.2-0.1,0.3,0c0.1,0,0.2,0.1,0.2,0.2c0.3,0.6,0.7,1.1,1,1.7c0,0.1,0.1,0.1,0.1,0.2c0,0.1,0,0.1,0,0.2
				c0,0.1-0.1,0.1-0.1,0.2C303.1,136,303,136,302.9,136L302.9,136z M300.9,132.6c-0.1,0-0.1,0-0.2-0.1c-0.1,0-0.1-0.1-0.1-0.2
				c-0.1-0.3-0.3-0.6-0.4-0.9c-0.2-0.3-0.3-0.6-0.4-1c0-0.1,0-0.2,0-0.3s0.1-0.2,0.2-0.2c0.1,0,0.2,0,0.3,0c0.1,0,0.2,0.1,0.2,0.2
				c0.1,0.3,0.3,0.6,0.4,1c0.1,0.3,0.3,0.6,0.4,0.8c0,0.1,0,0.1,0,0.2c0,0.1,0,0.1-0.1,0.2c0,0.1-0.1,0.1-0.1,0.1
				C301.1,132.5,301,132.6,300.9,132.6L300.9,132.6z M299.3,128.9c-0.1,0-0.2,0-0.2-0.1c-0.1,0-0.1-0.1-0.1-0.2
				c-0.2-0.6-0.5-1.3-0.7-1.9c0-0.1,0-0.1,0-0.2c0-0.1,0-0.1,0-0.2c0,0,0.1-0.1,0.1-0.1c0,0,0.1-0.1,0.1-0.1c0.1,0,0.1,0,0.2,0
				c0.1,0,0.1,0,0.2,0c0,0,0.1,0.1,0.1,0.1c0,0,0.1,0.1,0.1,0.1c0.2,0.6,0.4,1.3,0.7,1.9c0,0,0,0.1,0,0.2c0,0.1,0,0.1,0,0.2
				c0,0-0.1,0.1-0.1,0.1c0,0-0.1,0.1-0.1,0.1C299.4,128.9,299.4,128.9,299.3,128.9L299.3,128.9z M298.1,125.1c-0.1,0-0.2,0-0.2-0.1
				c-0.1-0.1-0.1-0.1-0.1-0.2c-0.2-0.6-0.3-1.3-0.5-2c0-0.1,0-0.1,0-0.2c0-0.1,0-0.1,0.1-0.1c0,0,0.1-0.1,0.1-0.1
				c0,0,0.1-0.1,0.1-0.1c0.1,0,0.1,0,0.2,0c0.1,0,0.1,0,0.1,0.1c0,0,0.1,0.1,0.1,0.1c0,0,0.1,0.1,0.1,0.1c0.1,0.6,0.3,1.3,0.5,1.9
				c0,0.1,0,0.1,0,0.2c0,0.1,0,0.1-0.1,0.1c0,0-0.1,0.1-0.1,0.1c0,0-0.1,0.1-0.1,0.1C298.1,125.1,298.1,125.1,298.1,125.1
				L298.1,125.1z M297.3,121.2c-0.1,0-0.2,0-0.3-0.1c-0.1-0.1-0.1-0.2-0.1-0.2c-0.1-0.7-0.2-1.3-0.3-2c0-0.1,0-0.1,0-0.2
				c0-0.1,0-0.1,0.1-0.1c0,0,0.1-0.1,0.1-0.1c0,0,0.1,0,0.2,0c0.1,0,0.1,0,0.2,0c0.1,0,0.1,0,0.1,0.1c0,0,0.1,0.1,0.1,0.1
				c0,0,0,0.1,0,0.2c0.1,0.7,0.1,1.3,0.2,2c0,0.1,0,0.1,0,0.2c0,0.1,0,0.1-0.1,0.1c0,0-0.1,0.1-0.1,0.1
				C297.4,121.2,297.4,121.2,297.3,121.2C297.3,121.2,297.3,121.2,297.3,121.2L297.3,121.2z M296.9,117.2c-0.1,0-0.2,0-0.3-0.1
				c-0.1-0.1-0.1-0.2-0.1-0.3c0-0.5,0-1.1,0-1.6v-0.4c0-0.1,0-0.2,0.1-0.3c0.1-0.1,0.2-0.1,0.3-0.1c0.1,0,0.1,0,0.2,0
				c0,0,0.1,0.1,0.1,0.1c0,0,0.1,0.1,0.1,0.1c0,0,0,0.1,0,0.2v0.4c0,0.5,0,1.1,0,1.6c0,0.1,0,0.2-0.1,0.3
				C297.1,117.2,297,117.2,296.9,117.2L296.9,117.2z"/>
			
				<linearGradient id="SVGID_40_" gradientUnits="userSpaceOnUse" x1="2575.3118" y1="224.6053" x2="2581.8459" y2="224.6053" gradientTransform="matrix(1 0 0 -1 0 336.9)">
				<stop  offset="0" style="stop-color:#4F52FF"/>
				<stop  offset="1" style="stop-color:#4042E2"/>
			</linearGradient>
			<path class="st56" d="M296.9,113.2L296.9,113.2c-0.1,0-0.1,0-0.2,0c0,0-0.1-0.1-0.1-0.1c0,0-0.1-0.1-0.1-0.1c0-0.1,0-0.1,0-0.2
				c0-0.3,0-0.7,0.1-1c0-0.1,0.1-0.2,0.1-0.3c0.1-0.1,0.2-0.1,0.3-0.1c0.1,0,0.2,0.1,0.3,0.1c0.1,0.1,0.1,0.2,0.1,0.3
				c0,0.3-0.1,0.7-0.1,1c0,0.1-0.1,0.2-0.1,0.3C297.1,113.2,297,113.2,296.9,113.2L296.9,113.2z"/>
		</g>
		<g class="st53">
			
				<linearGradient id="SVGID_41_" gradientUnits="userSpaceOnUse" x1="4570.1021" y1="250.2002" x2="4590.96" y2="250.2002" gradientTransform="matrix(1 0 0 -1 0 336.9)">
				<stop  offset="0" style="stop-color:#4F52FF"/>
				<stop  offset="1" style="stop-color:#4042E2"/>
			</linearGradient>
			<path class="st57" d="M309.6,87.4c-0.1,0-0.2,0-0.2-0.1c-0.1,0-0.1-0.1-0.1-0.2c0-0.1,0-0.2,0-0.2c0-0.1,0.1-0.2,0.1-0.2
				c0.3-0.2,0.5-0.4,0.8-0.7c0,0,0.1-0.1,0.1-0.1c0.1,0,0.1,0,0.2,0c0.1,0,0.1,0,0.2,0c0,0,0.1,0.1,0.1,0.1c0,0,0.1,0.1,0.1,0.1
				c0,0.1,0,0.1,0,0.2c0,0.1,0,0.1-0.1,0.2c0,0-0.1,0.1-0.1,0.1c-0.3,0.2-0.5,0.4-0.8,0.6C309.8,87.4,309.7,87.4,309.6,87.4
				L309.6,87.4z"/>
			
				<linearGradient id="SVGID_42_" gradientUnits="userSpaceOnUse" x1="162973.5469" y1="239.3635" x2="193202.1406" y2="239.3635" gradientTransform="matrix(1 0 0 -1 0 336.9)">
				<stop  offset="0" style="stop-color:#4F52FF"/>
				<stop  offset="1" style="stop-color:#4042E2"/>
			</linearGradient>
			<path class="st58" d="M371.3,117.6L371.3,117.6c-0.1,0-0.1,0-0.2,0c0,0-0.1-0.1-0.1-0.1c0,0-0.1-0.1-0.1-0.1c0-0.1,0-0.1,0-0.2
				c0-0.7,0.1-1.4,0.1-2c0-0.1,0-0.1,0-0.2c0-0.1,0-0.1,0.1-0.1c0,0,0.1-0.1,0.1-0.1c0.1,0,0.1,0,0.2,0c0.1,0,0.1,0,0.2,0
				c0.1,0,0.1,0.1,0.1,0.1c0,0,0.1,0.1,0.1,0.1c0,0.1,0,0.1,0,0.2c0,0.7,0,1.4-0.1,2.1c0,0.1,0,0.2-0.1,0.3
				C371.5,117.6,371.4,117.6,371.3,117.6z M371.3,113.5c-0.1,0-0.2,0-0.3-0.1c-0.1-0.1-0.1-0.2-0.1-0.3c0-0.7-0.1-1.4-0.2-2
				c0-0.1,0-0.2,0.1-0.3c0.1-0.1,0.2-0.1,0.3-0.1c0.1,0,0.2,0,0.3,0.1c0.1,0.1,0.1,0.2,0.2,0.3c0.1,0.7,0.1,1.4,0.2,2.1
				c0,0.1,0,0.1,0,0.2c0,0.1,0,0.1-0.1,0.1c0,0-0.1,0.1-0.1,0.1C371.5,113.5,371.4,113.5,371.3,113.5L371.3,113.5z M370.9,109.4
				c-0.1,0-0.2,0-0.3-0.1c-0.1-0.1-0.1-0.1-0.1-0.2c-0.1-0.7-0.2-1.3-0.4-2c0-0.1,0-0.1,0-0.2c0-0.1,0-0.1,0.1-0.2
				c0,0,0.1-0.1,0.1-0.1c0,0,0.1-0.1,0.1-0.1c0.1,0,0.1,0,0.2,0c0.1,0,0.1,0,0.1,0.1c0,0,0.1,0.1,0.1,0.1c0,0,0.1,0.1,0.1,0.2
				c0.2,0.7,0.3,1.4,0.4,2c0,0.1,0,0.1,0,0.2c0,0.1,0,0.1-0.1,0.1c0,0-0.1,0.1-0.1,0.1C371.1,109.4,371,109.4,370.9,109.4
				C370.9,109.4,370.9,109.4,370.9,109.4L370.9,109.4z M370,105.4c-0.1,0-0.2,0-0.2-0.1c-0.1-0.1-0.1-0.1-0.1-0.2
				c-0.2-0.7-0.4-1.3-0.6-1.9c0-0.1,0-0.2,0-0.3c0-0.1,0.1-0.2,0.2-0.2c0.1,0,0.2,0,0.3,0c0.1,0,0.2,0.1,0.2,0.2
				c0.2,0.7,0.4,1.3,0.6,2c0,0.1,0,0.1,0,0.2c0,0.1,0,0.1,0,0.1c0,0-0.1,0.1-0.1,0.1c0,0-0.1,0.1-0.1,0.1
				C370.1,105.4,370,105.4,370,105.4L370,105.4z M368.6,101.5c-0.1,0-0.2,0-0.2-0.1c-0.1,0-0.1-0.1-0.1-0.2
				c-0.3-0.6-0.5-1.3-0.8-1.9c0-0.1,0-0.2,0-0.3c0-0.1,0.1-0.2,0.2-0.2c0.1,0,0.2-0.1,0.3,0c0.1,0,0.2,0.1,0.2,0.2
				c0.3,0.6,0.6,1.3,0.8,1.9c0,0.1,0,0.1,0,0.2c0,0.1,0,0.1-0.1,0.2c0,0.1-0.1,0.1-0.1,0.1C368.8,101.5,368.7,101.5,368.6,101.5
				L368.6,101.5z M366.9,97.8c-0.1,0-0.1,0-0.2-0.1c-0.1,0-0.1-0.1-0.2-0.2c-0.3-0.6-0.7-1.2-1-1.8c0,0-0.1-0.1-0.1-0.1
				c0-0.1,0-0.1,0-0.2c0-0.1,0-0.1,0.1-0.1c0,0,0.1-0.1,0.1-0.1c0,0,0.1,0,0.2-0.1c0.1,0,0.1,0,0.2,0c0.1,0,0.1,0,0.1,0.1
				c0,0,0.1,0.1,0.1,0.1c0.4,0.6,0.7,1.2,1,1.8c0,0.1,0.1,0.1,0.1,0.2c0,0.1,0,0.1-0.1,0.2c0,0.1-0.1,0.1-0.2,0.1
				C367,97.8,366.9,97.8,366.9,97.8L366.9,97.8z M364.7,94.3c-0.1,0-0.1,0-0.2,0c-0.1,0-0.1-0.1-0.1-0.1c-0.4-0.6-0.8-1.1-1.2-1.6
				c0,0-0.1-0.1-0.1-0.1c0-0.1,0-0.1,0-0.2s0-0.1,0-0.2c0,0,0.1-0.1,0.1-0.1c0,0,0.1-0.1,0.1-0.1c0.1,0,0.1,0,0.2,0
				c0.1,0,0.1,0,0.2,0.1c0,0,0.1,0.1,0.1,0.1c0.4,0.5,0.8,1.1,1.2,1.7c0,0.1,0.1,0.1,0.1,0.2c0,0.1,0,0.1,0,0.2
				c0,0.1-0.1,0.1-0.1,0.2C364.9,94.3,364.8,94.3,364.7,94.3L364.7,94.3z M362.2,91.1c-0.1,0-0.1,0-0.2,0c-0.1,0-0.1-0.1-0.1-0.1
				c-0.4-0.5-0.9-1-1.4-1.5c-0.1-0.1-0.1-0.2-0.1-0.3c0-0.1,0-0.2,0.1-0.3c0.1-0.1,0.2-0.1,0.3-0.1c0.1,0,0.2,0,0.3,0.1
				c0.5,0.5,1,1,1.4,1.5c0.1,0.1,0.1,0.1,0.1,0.2c0,0.1,0,0.2,0,0.2c0,0.1-0.1,0.1-0.1,0.2C362.4,91,362.3,91.1,362.2,91.1
				L362.2,91.1z M359.4,88.1c-0.1,0-0.2,0-0.3-0.1c-0.5-0.5-1-0.9-1.5-1.3c-0.1-0.1-0.1-0.2-0.1-0.3c0-0.1,0-0.2,0.1-0.3
				c0.1-0.1,0.2-0.1,0.3-0.1c0.1,0,0.2,0,0.3,0.1c0.5,0.4,1.1,0.9,1.6,1.4c0.1,0.1,0.1,0.1,0.1,0.2c0,0.1,0,0.2,0,0.2
				c0,0.1-0.1,0.1-0.1,0.2C359.5,88.1,359.4,88.1,359.4,88.1L359.4,88.1z M312,85.5c-0.1,0-0.2,0-0.2-0.1c-0.1,0-0.1-0.1-0.1-0.2
				c0-0.1,0-0.2,0-0.2c0-0.1,0.1-0.2,0.1-0.2c0.6-0.4,1.1-0.8,1.7-1.2c0,0,0.1,0,0.1-0.1c0.1,0,0.1,0,0.2,0c0.1,0,0.1,0,0.1,0.1
				c0,0,0.1,0.1,0.1,0.1c0,0,0,0.1,0.1,0.1c0,0.1,0,0.1,0,0.2c0,0.1,0,0.1-0.1,0.1c0,0-0.1,0.1-0.1,0.1c-0.6,0.4-1.1,0.8-1.7,1.2
				C312.2,85.5,312.1,85.5,312,85.5L312,85.5z M356.2,85.5c-0.1,0-0.2,0-0.2-0.1c-0.5-0.4-1.1-0.8-1.7-1.2c-0.1-0.1-0.2-0.2-0.2-0.3
				c0-0.1,0-0.2,0.1-0.3c0.1-0.1,0.1-0.2,0.3-0.2s0.2,0,0.3,0.1c0.6,0.4,1.2,0.8,1.7,1.2c0.1,0,0.1,0.1,0.1,0.2c0,0.1,0,0.2,0,0.2
				c0,0.1-0.1,0.2-0.1,0.2C356.3,85.5,356.3,85.5,356.2,85.5L356.2,85.5z M315.5,83.3c-0.1,0-0.2,0-0.2-0.1
				c-0.1-0.1-0.1-0.1-0.1-0.2c0-0.1,0-0.2,0-0.3c0-0.1,0.1-0.2,0.2-0.2c0.6-0.3,1.2-0.7,1.8-1c0.1,0,0.2,0,0.3,0
				c0.1,0,0.2,0.1,0.2,0.2c0,0.1,0.1,0.2,0,0.3c0,0.1-0.1,0.2-0.2,0.2c-0.6,0.3-1.2,0.6-1.8,1C315.6,83.3,315.5,83.3,315.5,83.3
				L315.5,83.3z M352.7,83.3c-0.1,0-0.1,0-0.2-0.1c-0.6-0.3-1.2-0.7-1.8-1c-0.1,0-0.1-0.1-0.1-0.1c0,0-0.1-0.1-0.1-0.1
				c0-0.1,0-0.1,0-0.2c0-0.1,0-0.1,0-0.2c0,0,0.1-0.1,0.1-0.1c0,0,0.1-0.1,0.1-0.1c0.1,0,0.1,0,0.2,0c0.1,0,0.1,0,0.2,0.1
				c0.6,0.3,1.2,0.6,1.8,1c0.1,0,0.1,0.1,0.2,0.2c0,0.1,0,0.2,0,0.3c0,0.1-0.1,0.2-0.1,0.2C352.9,83.2,352.8,83.3,352.7,83.3
				L352.7,83.3z M319.1,81.4c-0.1,0-0.2,0-0.3-0.1c-0.1-0.1-0.1-0.1-0.1-0.2c0-0.1,0-0.2,0-0.3c0-0.1,0.1-0.1,0.2-0.2
				c0.6-0.3,1.3-0.5,1.9-0.8c0.1,0,0.2,0,0.3,0c0.1,0,0.2,0.1,0.2,0.2c0,0.1,0,0.2,0,0.3c0,0.1-0.1,0.2-0.2,0.2
				c-0.6,0.2-1.3,0.5-1.9,0.8C319.2,81.4,319.2,81.4,319.1,81.4L319.1,81.4z M349.1,81.4c-0.1,0-0.1,0-0.2,0
				c-0.6-0.3-1.2-0.5-1.9-0.8c-0.1,0-0.2-0.1-0.2-0.2c0-0.1,0-0.2,0-0.3c0-0.1,0.1-0.2,0.2-0.2c0.1,0,0.2,0,0.3,0
				c0.6,0.2,1.3,0.5,1.9,0.8c0.1,0,0.2,0.1,0.2,0.2c0,0.1,0.1,0.2,0,0.3c0,0.1-0.1,0.2-0.1,0.2C349.3,81.4,349.2,81.4,349.1,81.4z
				 M323,80c-0.1,0-0.2,0-0.3-0.1c-0.1-0.1-0.1-0.1-0.1-0.2c0-0.1,0-0.2,0.1-0.3c0.1-0.1,0.1-0.1,0.2-0.2c0.7-0.2,1.3-0.4,2-0.6
				c0.1,0,0.2,0,0.3,0c0.1,0.1,0.2,0.1,0.2,0.2c0,0.1,0,0.2,0,0.3c-0.1,0.1-0.1,0.2-0.2,0.2c-0.7,0.2-1.3,0.4-2,0.6
				C323.1,80,323,80,323,80L323,80z M345.2,80c0,0-0.1,0-0.1,0c-0.6-0.2-1.3-0.4-2-0.6c-0.1,0-0.1,0-0.1-0.1c0,0-0.1-0.1-0.1-0.1
				c0,0,0-0.1-0.1-0.1s0-0.1,0-0.2c0-0.1,0-0.1,0.1-0.1c0,0,0.1-0.1,0.1-0.1s0.1,0,0.1-0.1c0.1,0,0.1,0,0.2,0c0.7,0.2,1.3,0.4,2,0.6
				c0.1,0,0.2,0.1,0.2,0.2c0.1,0.1,0.1,0.2,0.1,0.3c0,0.1-0.1,0.2-0.1,0.2C345.4,79.9,345.3,80,345.2,80L345.2,80z M327,78.9
				c-0.1,0-0.2,0-0.3-0.1c-0.1-0.1-0.1-0.2-0.1-0.3c0-0.1,0-0.2,0.1-0.3c0.1-0.1,0.1-0.1,0.2-0.2c0.7-0.1,1.4-0.2,2-0.3
				c0.1,0,0.1,0,0.2,0c0.1,0,0.1,0,0.1,0.1c0,0,0.1,0.1,0.1,0.1c0,0,0,0.1,0.1,0.1c0,0.1,0,0.1,0,0.2c0,0.1,0,0.1-0.1,0.1
				c0,0-0.1,0.1-0.1,0.1c0,0-0.1,0-0.1,0.1C328.4,78.7,327.7,78.8,327,78.9C327,78.9,327,78.9,327,78.9L327,78.9z M341.2,78.9
				C341.2,78.9,341.2,78.9,341.2,78.9c-0.7-0.1-1.4-0.2-2.1-0.3c-0.1,0-0.2-0.1-0.3-0.2c-0.1-0.1-0.1-0.2-0.1-0.3
				c0-0.1,0.1-0.2,0.1-0.3c0.1-0.1,0.2-0.1,0.3-0.1c0.7,0.1,1.4,0.2,2,0.3c0.1,0,0.2,0.1,0.2,0.2c0.1,0.1,0.1,0.2,0.1,0.3
				c0,0.1-0.1,0.2-0.1,0.3C341.4,78.9,341.3,78.9,341.2,78.9L341.2,78.9z M337.2,78.4L337.2,78.4c-0.7-0.1-1.4-0.1-2.1-0.1
				c-0.1,0-0.1,0-0.2,0c0,0-0.1-0.1-0.1-0.1c0,0-0.1-0.1-0.1-0.1c0,0,0-0.1,0-0.2c0-0.1,0.1-0.2,0.1-0.3c0.1-0.1,0.2-0.1,0.3-0.1
				c0.7,0,1.4,0.1,2.1,0.1c0.1,0,0.2,0.1,0.3,0.1c0.1,0.1,0.1,0.2,0.1,0.3c0,0.1,0,0.2-0.1,0.3C337.4,78.3,337.3,78.4,337.2,78.4
				L337.2,78.4z M331,78.4c-0.1,0-0.2,0-0.3-0.1c-0.1-0.1-0.1-0.2-0.1-0.3s0-0.2,0.1-0.3c0.1-0.1,0.2-0.1,0.3-0.1
				c0.7-0.1,1.4-0.1,2.1-0.1c0.1,0,0.2,0,0.3,0.1c0.1,0.1,0.1,0.2,0.1,0.3c0,0.1,0,0.2-0.1,0.3c-0.1,0.1-0.2,0.1-0.3,0.1
				C332.4,78.3,331.7,78.3,331,78.4L331,78.4z"/>
			
				<linearGradient id="SVGID_43_" gradientUnits="userSpaceOnUse" x1="3328.8315" y1="217.0975" x2="3336.0374" y2="217.0975" gradientTransform="matrix(1 0 0 -1 0 336.9)">
				<stop  offset="0" style="stop-color:#4F52FF"/>
				<stop  offset="1" style="stop-color:#4042E2"/>
			</linearGradient>
			<path class="st59" d="M371,120.7L371,120.7c-0.2,0-0.3-0.1-0.3-0.2c-0.1-0.1-0.1-0.2-0.1-0.3c0-0.3,0.1-0.7,0.1-1
				c0-0.1,0.1-0.2,0.2-0.3c0.1-0.1,0.2-0.1,0.3-0.1c0.1,0,0.2,0.1,0.3,0.1c0.1,0.1,0.1,0.2,0.1,0.3c0,0.3-0.1,0.7-0.1,1
				c0,0.1-0.1,0.2-0.1,0.2C371.2,120.7,371.1,120.7,371,120.7L371,120.7z"/>
		</g>
		
			<linearGradient id="SVGID_44_" gradientUnits="userSpaceOnUse" x1="333.8061" y1="254.0052" x2="333.8061" y2="189.1387" gradientTransform="matrix(1 0 0 -1 0 336.9)">
			<stop  offset="0" style="stop-color:#5A08A8"/>
			<stop  offset="1" style="stop-color:#1D4AD5"/>
		</linearGradient>
		<path class="st60" d="M366.2,123.8c0-0.1,0-0.2,0-0.3c0-0.1-0.1-0.2-0.2-0.3l-4.8-4.1c0.4-3,0.4-6-0.2-8.9l4.6-4.3
			c0.1-0.1,0.1-0.2,0.2-0.3c0-0.1,0-0.2,0-0.3l-3.1-6.9c0-0.1-0.1-0.2-0.2-0.2c-0.1-0.1-0.2-0.1-0.3-0.1l-6.3,0.5
			c-1.8-2.4-4-4.5-6.4-6.2l0.2-6.3c0-0.1,0-0.2-0.1-0.3c-0.1-0.1-0.1-0.2-0.2-0.2l-7.1-2.7c-0.1,0-0.2,0-0.3,0
			c-0.1,0-0.2,0.1-0.3,0.2l-4.1,4.8c-3-0.4-6-0.4-8.9,0.2l-4.3-4.6c-0.1-0.1-0.2-0.1-0.3-0.2c-0.1,0-0.2,0-0.3,0l-6.9,3.1
			c-0.1,0-0.2,0.1-0.2,0.2c-0.1,0.1-0.1,0.2-0.1,0.3l0.5,6.3c-2.4,1.8-4.5,4-6.2,6.4l-6.3-0.2c-0.1,0-0.2,0-0.3,0.1
			c-0.1,0.1-0.2,0.1-0.2,0.2l-2.7,7.1c0,0.1,0,0.2,0,0.3s0.1,0.2,0.2,0.3l4.8,4.1c-0.4,3-0.4,6,0.2,8.9l-4.6,4.3
			c-0.1,0.1-0.1,0.2-0.2,0.3c0,0.1,0,0.2,0,0.3l3.1,6.9c0,0.1,0.1,0.2,0.2,0.2c0.1,0.1,0.2,0.1,0.3,0.1l6.3-0.5
			c1.8,2.4,4,4.5,6.4,6.2l-0.2,6.3c0,0.1,0,0.2,0.1,0.3c0.1,0.1,0.1,0.2,0.2,0.2l7.1,2.7c0.1,0,0.2,0,0.3,0c0.1,0,0.2-0.1,0.3-0.2
			l4.1-4.8c3,0.4,6,0.4,8.9-0.2l4.3,4.6c0.1,0.1,0.2,0.1,0.3,0.2c0.1,0,0.2,0,0.3,0l6.9-3.1c0.1,0,0.2-0.1,0.2-0.2
			c0.1-0.1,0.1-0.2,0.1-0.3l-0.5-6.3c2.4-1.8,4.5-4,6.2-6.4l6.3,0.2c0.1,0,0.2,0,0.3-0.1c0.1-0.1,0.2-0.1,0.2-0.2L366.2,123.8z"/>
		<path class="st2" d="M333.8,122.5c-1.2,0-2.4-0.3-3.5-0.9c-1.1-0.6-1.9-1.4-2.6-2.5c-0.6-1-1-2.2-1.1-3.4
			c-0.1-1.2,0.2-2.4,0.7-3.5c0.5-1.1,1.3-2,2.3-2.7c1-0.7,2.1-1.1,3.3-1.2c1.2-0.1,2.4,0.1,3.5,0.5c1.1,0.5,2.1,1.2,2.8,2.2l0,0
			c0.8,1.1,1.3,2.3,1.5,3.6c0.1,1.3-0.1,2.7-0.7,3.9c-0.6,1.2-1.5,2.2-2.6,2.9C336.5,122.1,335.1,122.5,333.8,122.5L333.8,122.5z
			 M333.8,109c-1.4,0-2.8,0.5-3.9,1.4c-1.1,0.9-1.9,2.1-2.2,3.5s-0.2,2.9,0.5,4.1c0.6,1.3,1.6,2.3,2.9,3c1.3,0.6,2.7,0.8,4.1,0.5
			c1.4-0.3,2.6-1.1,3.5-2.2c0.9-1.1,1.4-2.5,1.4-3.9c0-1.4-0.5-2.8-1.3-4l0,0c-0.5-0.7-1.1-1.2-1.9-1.6c-0.7-0.4-1.5-0.7-2.3-0.8
			C334.3,109,334.1,109,333.8,109L333.8,109z"/>
		<path class="st2" d="M333.7,134c-3.5,0-7-1-10-2.9c-3-1.9-5.4-4.6-6.9-7.8c-1.5-3.2-2.1-6.7-1.7-10.3c0.4-3.5,1.8-6.8,4.1-9.6
			c2.2-2.7,5.2-4.8,8.5-5.9c3.3-1.1,6.9-1.3,10.4-0.4c3.4,0.8,6.5,2.6,9,5.2c2.4,2.5,4.1,5.7,4.8,9.2c0,0,0,0.1,0,0.1
			c0,0.1,0,0.2-0.1,0.3c-0.1,0.1-0.2,0.1-0.3,0.1c-0.1,0-0.2,0-0.3-0.1c-0.1-0.1-0.1-0.1-0.2-0.2c-0.3-1.2-0.6-2.5-1.2-3.6
			c-0.1-0.3-0.2-0.5-0.4-0.8c0,0,0,0,0,0c0,0,0,0,0,0v0c-2.1-4.2-5.7-7.4-10.1-8.9c-4.4-1.5-9.2-1.3-13.4,0.7
			c-4.2,2-7.5,5.5-9.1,9.9c-1.6,4.4-1.5,9.2,0.4,13.5c4,9,14.5,13.1,23.5,9.2c3-1.3,5.5-3.4,7.4-6c0.1-0.1,0.2-0.1,0.3-0.2
			c0.1,0,0.2,0,0.3,0.1c0.1,0.1,0.1,0.2,0.2,0.3c0,0.1,0,0.2-0.1,0.3c-1.7,2.4-4,4.4-6.6,5.8C339.6,133.3,336.7,134,333.7,134
			L333.7,134z"/>
		<g class="st53">
			
				<linearGradient id="SVGID_45_" gradientUnits="userSpaceOnUse" x1="4336.6675" y1="242.0935" x2="4355.9175" y2="242.0935" gradientTransform="matrix(1 0 0 -1 0 336.9)">
				<stop  offset="0" style="stop-color:#4F52FF"/>
				<stop  offset="1" style="stop-color:#4042E2"/>
			</linearGradient>
			<path class="st61" d="M306.2,95.6c-0.1,0-0.2,0-0.2-0.1c-0.1,0-0.1-0.1-0.1-0.2c0-0.1,0-0.2,0-0.2c0-0.1,0.1-0.2,0.1-0.2
				c0.2-0.2,0.5-0.5,0.7-0.7c0,0,0.1-0.1,0.1-0.1c0,0,0.1,0,0.2,0c0.1,0,0.1,0,0.2,0c0,0,0.1,0,0.1,0.1c0,0,0.1,0.1,0.1,0.1
				c0,0,0,0.1,0,0.2c0,0.1,0,0.1,0,0.2c0,0,0,0.1-0.1,0.1c-0.2,0.2-0.5,0.5-0.7,0.7C306.4,95.5,306.3,95.6,306.2,95.6z"/>
			
				<linearGradient id="SVGID_46_" gradientUnits="userSpaceOnUse" x1="111399.2969" y1="248.1185" x2="132081.1406" y2="248.1185" gradientTransform="matrix(1 0 0 -1 0 336.9)">
				<stop  offset="0" style="stop-color:#4F52FF"/>
				<stop  offset="1" style="stop-color:#4042E2"/>
			</linearGradient>
			<path class="st62" d="M285.5,103.9c-0.5,0-1.1,0-1.6,0c-0.1,0-0.2-0.1-0.3-0.1c-0.1-0.1-0.1-0.2-0.1-0.3c0-0.1,0.1-0.2,0.1-0.3
				c0.1-0.1,0.2-0.1,0.3-0.1c0.7,0,1.3,0,2,0c0.1,0,0.2,0,0.3,0.1c0.1,0.1,0.1,0.2,0.1,0.3c0,0.1,0,0.2-0.1,0.3
				c-0.1,0.1-0.2,0.1-0.3,0.1C285.8,103.9,285.7,103.9,285.5,103.9z M288,103.8c-0.1,0-0.2,0-0.3-0.1c-0.1-0.1-0.1-0.2-0.1-0.3
				c0-0.1,0-0.2,0.1-0.3s0.2-0.1,0.3-0.1c0.7-0.1,1.3-0.1,2-0.2c0.1,0,0.1,0,0.2,0c0.1,0,0.1,0,0.1,0.1c0,0,0.1,0.1,0.1,0.1
				c0,0,0,0.1,0.1,0.1c0,0.1,0,0.1,0,0.2c0,0.1,0,0.1-0.1,0.1c0,0-0.1,0.1-0.1,0.1c0,0-0.1,0-0.1,0.1
				C289.4,103.7,288.7,103.8,288,103.8L288,103.8z M281.9,103.7L281.9,103.7c-0.7-0.1-1.4-0.2-2.1-0.3c-0.1,0-0.1,0-0.2-0.1
				c0,0-0.1-0.1-0.1-0.1c0,0-0.1-0.1-0.1-0.1c0-0.1,0-0.1,0-0.2c0-0.1,0-0.1,0.1-0.2c0,0,0.1-0.1,0.1-0.1c0,0,0.1,0,0.2-0.1
				c0.1,0,0.1,0,0.2,0c0.7,0.1,1.3,0.2,2,0.3c0.1,0,0.2,0.1,0.3,0.1c0.1,0.1,0.1,0.2,0.1,0.3c0,0.1-0.1,0.2-0.1,0.3
				C282.1,103.7,282,103.7,281.9,103.7L281.9,103.7z M292,103.2c-0.1,0-0.2,0-0.3-0.1c-0.1-0.1-0.1-0.2-0.1-0.3c0-0.1,0-0.2,0.1-0.3
				c0.1-0.1,0.1-0.1,0.2-0.2c0.7-0.1,1.3-0.3,1.9-0.5c0.1,0,0.2,0,0.3,0c0.1,0.1,0.2,0.1,0.2,0.2c0,0.1,0,0.2,0,0.3
				c-0.1,0.1-0.1,0.2-0.2,0.2C293.4,102.9,292.8,103.1,292,103.2C292.1,103.2,292,103.2,292,103.2L292,103.2z M277.9,102.9
				c0,0-0.1,0-0.1,0c-0.7-0.2-1.3-0.4-2-0.6c-0.1,0-0.1,0-0.1-0.1c0,0-0.1-0.1-0.1-0.1c0,0,0-0.1,0-0.2c0-0.1,0-0.1,0-0.2
				c0-0.1,0-0.1,0.1-0.1c0,0,0.1-0.1,0.1-0.1c0,0,0.1,0,0.2,0c0.1,0,0.1,0,0.2,0c0.6,0.2,1.3,0.4,1.9,0.6c0.1,0,0.2,0.1,0.2,0.2
				c0.1,0.1,0.1,0.2,0.1,0.3c0,0.1-0.1,0.2-0.1,0.3C278.1,102.9,278,102.9,277.9,102.9L277.9,102.9z M295.9,102.1
				c-0.1,0-0.2,0-0.3-0.1c-0.1-0.1-0.1-0.1-0.1-0.2c0-0.1,0-0.2,0-0.3c0-0.1,0.1-0.1,0.2-0.2c0.6-0.2,1.2-0.5,1.9-0.8
				c0,0,0.1,0,0.2,0c0.1,0,0.1,0,0.2,0c0,0,0.1,0,0.1,0.1s0.1,0.1,0.1,0.1c0,0,0,0.1,0,0.2c0,0.1,0,0.1,0,0.2c0,0,0,0.1-0.1,0.1
				c0,0-0.1,0.1-0.1,0.1c-0.6,0.3-1.3,0.6-1.9,0.8C296,102,296,102,295.9,102.1L295.9,102.1z M274,101.6c-0.1,0-0.1,0-0.2,0
				c-0.6-0.3-1.3-0.6-1.9-0.9c-0.1-0.1-0.1-0.1-0.2-0.2s0-0.2,0-0.3c0-0.1,0.1-0.2,0.2-0.2c0.1,0,0.2,0,0.3,0
				c0.6,0.3,1.2,0.6,1.8,0.8c0.1,0,0.2,0.1,0.2,0.2c0,0.1,0.1,0.2,0,0.3c0,0.1-0.1,0.2-0.1,0.2C274.2,101.6,274.1,101.6,274,101.6
				L274,101.6z M299.6,100.4c-0.1,0-0.2,0-0.2-0.1c-0.1-0.1-0.1-0.1-0.1-0.2c0-0.1,0-0.2,0-0.3c0-0.1,0.1-0.2,0.2-0.2
				c0.6-0.3,1.2-0.7,1.7-1c0,0,0.1-0.1,0.1-0.1c0.1,0,0.1,0,0.2,0c0.1,0,0.1,0,0.1,0.1s0.1,0.1,0.1,0.1c0,0,0,0.1,0.1,0.2
				c0,0.1,0,0.1,0,0.2c0,0.1,0,0.1-0.1,0.1c0,0-0.1,0.1-0.1,0.1c-0.6,0.4-1.2,0.7-1.8,1C299.8,100.3,299.7,100.4,299.6,100.4
				L299.6,100.4z M270.4,99.8c-0.1,0-0.1,0-0.2-0.1c-0.6-0.3-1.2-0.7-1.7-1.1c0,0-0.1-0.1-0.1-0.1c0,0-0.1-0.1-0.1-0.1
				c0-0.1,0-0.1,0-0.2c0-0.1,0-0.1,0.1-0.1s0.1-0.1,0.1-0.1c0,0,0.1,0,0.2-0.1c0.1,0,0.1,0,0.2,0c0.1,0,0.1,0,0.1,0.1
				c0.5,0.4,1.1,0.7,1.7,1.1c0.1,0,0.1,0.1,0.2,0.2c0,0.1,0,0.2,0,0.3c0,0.1-0.1,0.2-0.1,0.2C270.5,99.8,270.5,99.8,270.4,99.8
				L270.4,99.8z M303.1,98.2c-0.1,0-0.2,0-0.2-0.1c-0.1-0.1-0.1-0.1-0.1-0.2c0-0.1,0-0.2,0-0.3c0-0.1,0.1-0.2,0.1-0.2
				c0.5-0.4,1.1-0.8,1.6-1.2c0.1-0.1,0.2-0.1,0.3-0.1c0.1,0,0.2,0.1,0.3,0.1c0.1,0.1,0.1,0.2,0.1,0.3c0,0.1-0.1,0.2-0.1,0.3
				c-0.5,0.4-1.1,0.9-1.6,1.3C303.2,98.2,303.2,98.2,303.1,98.2L303.1,98.2z M267,97.5c-0.1,0-0.2,0-0.2-0.1
				c-0.5-0.4-1.1-0.9-1.6-1.3c-0.1-0.1-0.1-0.2-0.1-0.3c0-0.1,0-0.2,0.1-0.3c0.1-0.1,0.2-0.1,0.3-0.1s0.2,0,0.3,0.1
				c0.5,0.4,1,0.9,1.5,1.3c0.1,0.1,0.1,0.1,0.1,0.2c0,0.1,0,0.2,0,0.2c0,0.1-0.1,0.1-0.1,0.2C267.2,97.5,267.1,97.5,267,97.5
				L267,97.5z M264,94.7c-0.1,0-0.1,0-0.2,0c0,0-0.1-0.1-0.1-0.1c-0.5-0.5-0.9-1-1.4-1.5c-0.1-0.1-0.1-0.2-0.1-0.3
				c0-0.1,0.1-0.2,0.1-0.3c0.1-0.1,0.2-0.1,0.3-0.1c0.1,0,0.2,0.1,0.3,0.1c0.4,0.5,0.9,1,1.3,1.5c0.1,0.1,0.1,0.1,0.1,0.2
				c0,0.1,0,0.2,0,0.2s-0.1,0.1-0.1,0.2C264.1,94.7,264.1,94.7,264,94.7L264,94.7z M261.4,91.6c-0.1,0-0.1,0-0.2,0
				c-0.1,0-0.1-0.1-0.1-0.1c-0.4-0.6-0.8-1.1-1.2-1.7c-0.1-0.1-0.1-0.2,0-0.3c0-0.1,0.1-0.2,0.2-0.2c0.1-0.1,0.2-0.1,0.3-0.1
				c0.1,0,0.2,0.1,0.3,0.2c0.4,0.6,0.7,1.1,1.1,1.7c0,0.1,0.1,0.1,0.1,0.2c0,0.1,0,0.1,0,0.2c0,0.1-0.1,0.1-0.1,0.2
				C261.5,91.6,261.5,91.6,261.4,91.6L261.4,91.6z M259.2,88.1c-0.1,0-0.1,0-0.2-0.1c-0.1,0-0.1-0.1-0.1-0.2
				c-0.2-0.4-0.4-0.8-0.6-1.2c-0.1-0.2-0.2-0.4-0.3-0.7c0,0,0-0.1,0-0.2c0-0.1,0-0.1,0-0.2c0,0,0-0.1,0.1-0.1c0,0,0.1-0.1,0.1-0.1
				c0,0,0.1,0,0.2,0c0.1,0,0.1,0,0.2,0c0,0,0.1,0,0.1,0.1c0,0,0.1,0.1,0.1,0.1c0.1,0.2,0.2,0.4,0.3,0.7c0.2,0.4,0.4,0.8,0.6,1.2
				c0,0.1,0.1,0.1,0,0.2c0,0.1,0,0.1-0.1,0.2c0,0.1-0.1,0.1-0.2,0.1C259.4,88.1,259.3,88.2,259.2,88.1L259.2,88.1z M257.6,84.4
				c-0.1,0-0.2,0-0.2-0.1c-0.1,0-0.1-0.1-0.1-0.2c-0.2-0.6-0.5-1.3-0.7-2c0-0.1,0-0.1,0-0.2c0-0.1,0-0.1,0-0.2c0,0,0.1-0.1,0.1-0.1
				c0,0,0.1-0.1,0.1-0.1c0.1,0,0.1,0,0.2,0c0.1,0,0.1,0,0.2,0c0,0,0.1,0.1,0.1,0.1c0,0,0.1,0.1,0.1,0.1c0.2,0.6,0.4,1.3,0.6,1.9
				c0,0.1,0,0.1,0,0.2s0,0.1-0.1,0.2c0,0.1-0.1,0.1-0.1,0.1C257.7,84.4,257.6,84.4,257.6,84.4z M256.4,80.5c-0.1,0-0.2,0-0.3-0.1
				c-0.1-0.1-0.1-0.1-0.1-0.2c-0.1-0.7-0.3-1.4-0.4-2c0-0.1,0-0.1,0-0.2c0-0.1,0-0.1,0.1-0.1c0,0,0.1-0.1,0.1-0.1c0,0,0.1,0,0.2-0.1
				c0.1,0,0.1,0,0.2,0c0.1,0,0.1,0,0.1,0.1c0,0,0.1,0.1,0.1,0.1c0,0,0,0.1,0,0.2c0.1,0.7,0.2,1.3,0.4,2c0,0.1,0,0.2-0.1,0.3
				C256.7,80.4,256.6,80.5,256.4,80.5C256.5,80.5,256.4,80.5,256.4,80.5L256.4,80.5z M255.8,76.5c-0.1,0-0.2,0-0.3-0.1
				c-0.1-0.1-0.1-0.2-0.1-0.3c-0.1-0.7-0.1-1.4-0.1-2.1c0-0.1,0-0.1,0-0.2c0,0,0-0.1,0.1-0.1c0,0,0.1-0.1,0.1-0.1c0,0,0.1,0,0.2,0
				c0.1,0,0.2,0,0.3,0.1c0.1,0.1,0.1,0.2,0.1,0.3c0,0.7,0,1.3,0.1,2c0,0.1,0,0.1,0,0.2c0,0.1,0,0.1-0.1,0.1c0,0-0.1,0.1-0.1,0.1
				C255.9,76.5,255.9,76.5,255.8,76.5L255.8,76.5z"/>
			
				<linearGradient id="SVGID_47_" gradientUnits="userSpaceOnUse" x1="2224.4243" y1="265.4247" x2="2230.9102" y2="265.4247" gradientTransform="matrix(1 0 0 -1 0 336.9)">
				<stop  offset="0" style="stop-color:#4F52FF"/>
				<stop  offset="1" style="stop-color:#4042E2"/>
			</linearGradient>
			<path class="st63" d="M255.8,72.4L255.8,72.4c-0.1,0-0.1,0-0.2,0c0,0-0.1-0.1-0.1-0.1c0,0-0.1-0.1-0.1-0.1c0-0.1,0-0.1,0-0.2
				c0-0.3,0-0.7,0.1-1c0-0.1,0.1-0.2,0.1-0.3c0.1-0.1,0.2-0.1,0.3-0.1c0.1,0,0.2,0.1,0.3,0.1c0.1,0.1,0.1,0.2,0.1,0.3
				c0,0.3-0.1,0.7-0.1,1c0,0.1-0.1,0.2-0.1,0.3C256,72.3,255.9,72.4,255.8,72.4z"/>
		</g>
		<g class="st53">
			
				<linearGradient id="SVGID_48_" gradientUnits="userSpaceOnUse" x1="3934.4033" y1="286.046" x2="3955.2451" y2="286.046" gradientTransform="matrix(1 0 0 -1 0 336.9)">
				<stop  offset="0" style="stop-color:#4F52FF"/>
				<stop  offset="1" style="stop-color:#4042E2"/>
			</linearGradient>
			<path class="st64" d="M265.9,51.6c-0.1,0-0.1,0-0.2,0c-0.1,0-0.1-0.1-0.1-0.1c-0.1-0.1-0.1-0.2-0.1-0.3c0-0.1,0.1-0.2,0.1-0.3
				c0.3-0.2,0.5-0.4,0.8-0.7c0,0,0.1-0.1,0.1-0.1c0.1,0,0.1,0,0.2,0c0.1,0,0.1,0,0.2,0s0.1,0.1,0.1,0.1c0,0,0.1,0.1,0.1,0.1
				c0,0.1,0,0.1,0,0.2c0,0.1,0,0.1,0,0.2c0,0-0.1,0.1-0.1,0.1c-0.3,0.2-0.5,0.4-0.8,0.6C266.1,51.5,266,51.6,265.9,51.6z"/>
			
				<linearGradient id="SVGID_49_" gradientUnits="userSpaceOnUse" x1="112052.7031" y1="277.6034" x2="131132.625" y2="277.6034" gradientTransform="matrix(1 0 0 -1 0 336.9)">
				<stop  offset="0" style="stop-color:#4F52FF"/>
				<stop  offset="1" style="stop-color:#4042E2"/>
			</linearGradient>
			<path class="st65" d="M315.3,75.2L315.3,75.2c-0.1,0-0.1,0-0.2,0c0,0-0.1-0.1-0.1-0.1s-0.1-0.1-0.1-0.1c0,0,0-0.1,0-0.2
				c0-0.4,0-0.7,0-1.1c0-0.3,0-0.6,0-0.9c0-0.1,0-0.2,0.1-0.3c0.1-0.1,0.2-0.1,0.3-0.1c0.1,0,0.2,0,0.3,0.1c0.1,0.1,0.1,0.2,0.1,0.3
				c0,0.3,0,0.6,0,0.9c0,0.4,0,0.7,0,1.1c0,0.1,0,0.2-0.1,0.3C315.5,75.1,315.4,75.2,315.3,75.2L315.3,75.2z M315.2,71.1
				c-0.1,0-0.2,0-0.3-0.1c-0.1-0.1-0.1-0.2-0.1-0.3c-0.1-0.7-0.2-1.3-0.3-2c0-0.1,0-0.2,0.1-0.3c0.1-0.1,0.2-0.1,0.3-0.2
				c0.1,0,0.2,0,0.3,0.1c0.1,0.1,0.1,0.1,0.2,0.3c0.1,0.7,0.2,1.3,0.3,2c0,0.1,0,0.2-0.1,0.3C315.4,71.1,315.3,71.1,315.2,71.1
				L315.2,71.1z M314.5,67.2c-0.1,0-0.2,0-0.2-0.1c-0.1-0.1-0.1-0.1-0.1-0.2c-0.2-0.6-0.3-1.3-0.5-1.9c0-0.1,0-0.2,0-0.3
				c0.1-0.1,0.1-0.2,0.2-0.2c0.1,0,0.2,0,0.3,0c0.1,0,0.2,0.1,0.2,0.2c0.2,0.6,0.4,1.3,0.5,2c0,0.1,0,0.2,0,0.3
				C314.8,67.1,314.7,67.1,314.5,67.2C314.6,67.2,314.5,67.2,314.5,67.2L314.5,67.2z M313.3,63.3c-0.1,0-0.2,0-0.2-0.1
				c-0.1,0-0.1-0.1-0.1-0.2c-0.2-0.6-0.5-1.2-0.8-1.8c0-0.1,0-0.2,0-0.3c0-0.1,0.1-0.2,0.2-0.2c0.1,0,0.2,0,0.3,0
				c0.1,0,0.2,0.1,0.2,0.2c0.3,0.6,0.6,1.2,0.8,1.9c0,0,0,0.1,0,0.2c0,0.1,0,0.1,0,0.2c0,0-0.1,0.1-0.1,0.1s-0.1,0.1-0.1,0.1
				C313.4,63.3,313.3,63.3,313.3,63.3L313.3,63.3z M311.6,59.7c-0.1,0-0.1,0-0.2-0.1c-0.1,0-0.1-0.1-0.1-0.2c-0.3-0.6-0.7-1.2-1-1.7
				c0,0-0.1-0.1-0.1-0.1c0-0.1,0-0.1,0-0.2c0-0.1,0-0.1,0.1-0.1c0,0,0.1-0.1,0.1-0.1c0,0,0.1,0,0.2-0.1c0.1,0,0.1,0,0.2,0
				c0.1,0,0.1,0,0.1,0.1c0,0,0.1,0.1,0.1,0.1c0.4,0.6,0.7,1.2,1,1.8c0.1,0.1,0.1,0.2,0,0.3c0,0.1-0.1,0.2-0.2,0.2
				C311.7,59.7,311.7,59.7,311.6,59.7L311.6,59.7z M309.5,56.3c-0.1,0-0.1,0-0.2,0c-0.1,0-0.1-0.1-0.1-0.1c-0.4-0.5-0.8-1.1-1.2-1.6
				c0,0-0.1-0.1-0.1-0.1c0-0.1,0-0.1,0-0.2c0-0.1,0-0.1,0-0.2c0,0,0.1-0.1,0.1-0.1c0,0,0.1-0.1,0.1-0.1c0.1,0,0.1,0,0.2,0
				c0.1,0,0.1,0,0.2,0c0,0,0.1,0.1,0.1,0.1c0.4,0.5,0.9,1,1.3,1.6c0,0.1,0.1,0.1,0.1,0.2c0,0.1,0,0.1,0,0.2c0,0.1-0.1,0.1-0.1,0.2
				C309.6,56.3,309.5,56.3,309.5,56.3L309.5,56.3z M306.8,53.3c-0.1,0-0.1,0-0.2,0c0,0-0.1-0.1-0.1-0.1c-0.5-0.5-0.9-0.9-1.4-1.4
				c0,0-0.1-0.1-0.1-0.1s0-0.1,0-0.2c0-0.1,0-0.1,0-0.2c0,0,0-0.1,0.1-0.1c0,0,0.1-0.1,0.1-0.1c0,0,0.1,0,0.2,0c0.1,0,0.1,0,0.2,0
				c0.1,0,0.1,0,0.1,0.1c0.5,0.5,1,0.9,1.5,1.4c0.1,0.1,0.1,0.1,0.1,0.2c0,0.1,0,0.2,0,0.2c0,0.1-0.1,0.1-0.1,0.2
				C307,53.2,306.9,53.3,306.8,53.3L306.8,53.3z M303.9,50.6c-0.1,0-0.2,0-0.2-0.1c-0.5-0.4-1.1-0.8-1.6-1.2c0,0-0.1-0.1-0.1-0.1
				c0,0,0-0.1-0.1-0.1c0-0.1,0-0.1,0-0.2c0-0.1,0-0.1,0.1-0.1c0,0,0.1-0.1,0.1-0.1c0,0,0.1,0,0.1-0.1c0.1,0,0.1,0,0.2,0
				c0.1,0,0.1,0,0.1,0.1c0.6,0.4,1.1,0.8,1.6,1.2c0.1,0.1,0.1,0.1,0.1,0.2c0,0.1,0,0.2,0,0.2c0,0.1-0.1,0.1-0.1,0.2
				C304,50.6,303.9,50.6,303.9,50.6L303.9,50.6z M268.3,49.7c-0.1,0-0.2,0-0.2-0.1c-0.1-0.1-0.1-0.1-0.1-0.2c0-0.1,0-0.2,0-0.3
				s0.1-0.2,0.1-0.2c0.5-0.4,1.1-0.8,1.7-1.1c0.1,0,0.2-0.1,0.3,0s0.2,0.1,0.2,0.2c0.1,0.1,0.1,0.2,0,0.3c0,0.1-0.1,0.2-0.2,0.2
				c-0.6,0.3-1.1,0.7-1.7,1.1C268.5,49.7,268.4,49.7,268.3,49.7L268.3,49.7z M300.5,48.3c-0.1,0-0.1,0-0.2-0.1
				c-0.6-0.3-1.2-0.6-1.7-0.9c-0.1-0.1-0.1-0.1-0.2-0.2c0-0.1,0-0.2,0-0.3c0-0.1,0.1-0.2,0.2-0.2c0.1,0,0.2,0,0.3,0
				c0.6,0.3,1.2,0.6,1.8,1c0.1,0,0.1,0.1,0.2,0.2c0,0.1,0,0.2,0,0.3c0,0.1-0.1,0.2-0.1,0.2C300.7,48.3,300.6,48.3,300.5,48.3
				L300.5,48.3z M271.7,47.6c-0.1,0-0.2,0-0.2-0.1c-0.1-0.1-0.1-0.1-0.1-0.2c0-0.1,0-0.2,0-0.3c0-0.1,0.1-0.1,0.2-0.2
				c0.3-0.2,0.6-0.3,0.9-0.5c0.3-0.1,0.6-0.3,0.9-0.4c0,0,0.1,0,0.2,0c0.1,0,0.1,0,0.2,0c0,0,0.1,0,0.1,0.1c0,0,0.1,0.1,0.1,0.1
				c0,0,0,0.1,0,0.2c0,0.1,0,0.1,0,0.2c0,0,0,0.1-0.1,0.1c0,0-0.1,0.1-0.1,0.1c-0.3,0.1-0.6,0.3-0.9,0.4c-0.3,0.1-0.6,0.3-0.9,0.4
				C271.9,47.6,271.8,47.6,271.7,47.6L271.7,47.6z M297,46.5c-0.1,0-0.1,0-0.2,0c-0.6-0.3-1.2-0.5-1.9-0.7c-0.1,0-0.2-0.1-0.2-0.2
				c0-0.1-0.1-0.2,0-0.3c0-0.1,0.1-0.2,0.2-0.2c0.1,0,0.2-0.1,0.3,0c0.6,0.2,1.3,0.5,1.9,0.7c0.1,0,0.2,0.1,0.2,0.2
				c0,0.1,0.1,0.2,0,0.3c0,0.1-0.1,0.2-0.1,0.2C297.1,46.5,297,46.5,297,46.5L297,46.5z M275.4,46c-0.1,0-0.2,0-0.3-0.1
				c-0.1-0.1-0.1-0.1-0.1-0.2c0-0.1,0-0.2,0-0.3c0-0.1,0.1-0.1,0.2-0.2c0.6-0.2,1.3-0.4,1.9-0.6c0.1,0,0.2,0,0.3,0
				c0.1,0.1,0.2,0.1,0.2,0.2c0,0.1,0,0.2,0,0.3c0,0.1-0.1,0.2-0.2,0.2c-0.6,0.2-1.3,0.4-1.9,0.6C275.5,46,275.4,46,275.4,46
				L275.4,46z M293.2,45.3c0,0-0.1,0-0.1,0c-0.6-0.2-1.3-0.3-1.9-0.4c-0.1,0-0.2-0.1-0.2-0.2c-0.1-0.1-0.1-0.2-0.1-0.3
				c0-0.1,0.1-0.2,0.2-0.3c0.1-0.1,0.2-0.1,0.3-0.1c0.7,0.1,1.3,0.3,2,0.5c0.1,0,0.2,0.1,0.2,0.2c0.1,0.1,0.1,0.2,0.1,0.3
				c0,0.1-0.1,0.2-0.1,0.3C293.4,45.2,293.3,45.3,293.2,45.3L293.2,45.3z M279.3,44.9c-0.1,0-0.2,0-0.3-0.1
				c-0.1-0.1-0.1-0.2-0.1-0.3c0-0.1,0-0.2,0.1-0.3c0.1-0.1,0.1-0.1,0.2-0.2c0.7-0.1,1.3-0.3,2-0.4c0.1,0,0.1,0,0.2,0
				c0.1,0,0.1,0,0.1,0.1c0,0,0.1,0.1,0.1,0.1c0,0,0,0.1,0.1,0.1c0,0.1,0,0.1,0,0.2c0,0.1,0,0.1-0.1,0.1c0,0-0.1,0.1-0.1,0.1
				c0,0-0.1,0-0.1,0.1C280.6,44.6,280,44.8,279.3,44.9C279.3,44.9,279.3,44.9,279.3,44.9L279.3,44.9z M289.2,44.5L289.2,44.5
				c-0.7-0.1-1.4-0.1-2-0.2c-0.1,0-0.1,0-0.2,0c0,0-0.1-0.1-0.1-0.1c0,0-0.1-0.1-0.1-0.1c0,0,0-0.1,0-0.2c0-0.1,0-0.1,0-0.2
				c0,0,0.1-0.1,0.1-0.1c0,0,0.1-0.1,0.1-0.1c0,0,0.1,0,0.2,0c0.7,0,1.4,0.1,2,0.2c0.1,0,0.2,0.1,0.3,0.1c0.1,0.1,0.1,0.2,0.1,0.3
				c0,0.1-0.1,0.2-0.1,0.3C289.4,44.4,289.3,44.5,289.2,44.5L289.2,44.5z M283.2,44.3c-0.1,0-0.2,0-0.3-0.1
				c-0.1-0.1-0.1-0.2-0.1-0.3c0-0.1,0-0.2,0.1-0.3c0.1-0.1,0.2-0.1,0.3-0.1c0.7-0.1,1.4-0.1,2-0.1c0.1,0,0.2,0.1,0.3,0.1
				c0.1,0.1,0.1,0.2,0.1,0.3s0,0.2-0.1,0.3c-0.1,0.1-0.2,0.1-0.3,0.1C284.6,44.3,283.9,44.3,283.2,44.3L283.2,44.3z"/>
			
				<linearGradient id="SVGID_50_" gradientUnits="userSpaceOnUse" x1="2843.512" y1="259.6312" x2="2850.6938" y2="259.6312" gradientTransform="matrix(1 0 0 -1 0 336.9)">
				<stop  offset="0" style="stop-color:#4F52FF"/>
				<stop  offset="1" style="stop-color:#4042E2"/>
			</linearGradient>
			<path class="st66" d="M315,78.2C315,78.2,315,78.2,315,78.2c-0.2,0-0.3-0.1-0.3-0.2c-0.1-0.1-0.1-0.2-0.1-0.3
				c0-0.3,0.1-0.7,0.1-1c0-0.1,0-0.1,0-0.2c0,0,0.1-0.1,0.1-0.1c0,0,0.1-0.1,0.1-0.1c0.1,0,0.1,0,0.2,0c0.1,0,0.2,0.1,0.3,0.1
				c0.1,0.1,0.1,0.2,0.1,0.3c0,0.3-0.1,0.7-0.1,1c0,0.1-0.1,0.2-0.1,0.2C315.2,78.1,315.1,78.2,315,78.2z"/>
		</g>
		
			<linearGradient id="SVGID_51_" gradientUnits="userSpaceOnUse" x1="285.2533" y1="289.0321" x2="285.2525" y2="237.1671" gradientTransform="matrix(1 0 0 -1 0 336.9)">
			<stop  offset="0" style="stop-color:#1D4AD5"/>
			<stop  offset="1" style="stop-color:#5A08A8"/>
		</linearGradient>
		<path class="st67" d="M311.1,80.6c0-0.1,0-0.2,0-0.3c0-0.1-0.1-0.2-0.1-0.2l-3.8-3.3c0.3-2.4,0.3-4.8-0.2-7.1l3.7-3.4
			c0.1-0.1,0.1-0.1,0.1-0.2c0-0.1,0-0.2,0-0.3l-2.4-5.5c0-0.1-0.1-0.1-0.2-0.2c-0.1,0-0.2-0.1-0.2-0.1l-5,0.4
			c-1.4-1.9-3.2-3.6-5.2-4.9l0.2-5c0-0.1,0-0.2-0.1-0.2c0-0.1-0.1-0.1-0.2-0.2l-5.6-2.2c-0.1,0-0.2,0-0.3,0c-0.1,0-0.2,0.1-0.2,0.1
			l-3.2,3.9c-2.4-0.3-4.8-0.3-7.1,0.2l-3.4-3.7c-0.1-0.1-0.1-0.1-0.2-0.1c-0.1,0-0.2,0-0.3,0l-5.5,2.4c-0.1,0-0.1,0.1-0.2,0.2
			s-0.1,0.2-0.1,0.2l0.4,5c-1.9,1.4-3.6,3.2-4.9,5.2l-5-0.2c-0.1,0-0.2,0-0.2,0.1c-0.1,0-0.1,0.1-0.2,0.2l-2.2,5.6
			c0,0.1,0,0.2,0,0.3c0,0.1,0.1,0.2,0.1,0.2l3.9,3.3c-0.3,2.4-0.3,4.8,0.2,7.1l-3.7,3.4c-0.1,0.1-0.1,0.1-0.1,0.2c0,0.1,0,0.2,0,0.3
			l2.4,5.5c0,0.1,0.1,0.1,0.2,0.2c0.1,0,0.2,0.1,0.2,0.1l5-0.4c1.4,1.9,3.2,3.6,5.2,4.9l-0.2,5c0,0.1,0,0.2,0.1,0.2
			c0,0.1,0.1,0.1,0.2,0.2l5.6,2.2c0.1,0,0.2,0,0.3,0c0.1,0,0.2-0.1,0.2-0.1l3.3-3.9c2.4,0.3,4.8,0.3,7.1-0.2l3.4,3.7
			c0.1,0.1,0.1,0.1,0.2,0.1c0.1,0,0.2,0,0.3,0l5.5-2.4c0.1,0,0.1-0.1,0.2-0.2c0-0.1,0.1-0.2,0.1-0.2l-0.4-5c1.9-1.4,3.6-3.2,4.9-5.2
			l5,0.2c0.1,0,0.2,0,0.2-0.1c0.1,0,0.1-0.1,0.2-0.2L311.1,80.6z"/>
		<path class="st2" d="M285.3,79.6c-0.2,0-0.5,0-0.7,0c-0.9-0.1-1.8-0.5-2.6-1c-0.8-0.5-1.4-1.3-1.8-2.1c-0.4-0.8-0.6-1.8-0.6-2.7
			c0-1,0.3-1.9,0.8-2.7s1.1-1.5,1.9-2c0.8-0.5,1.7-0.8,2.7-0.9c0.9-0.1,1.9,0.1,2.8,0.5c0.9,0.4,1.6,1,2.2,1.7l0,0
			c0.7,0.9,1.1,1.9,1.2,3c0.1,1.1-0.1,2.2-0.6,3.1c-0.5,1-1.2,1.8-2.1,2.4C287.4,79.3,286.4,79.6,285.3,79.6L285.3,79.6z
			 M285.2,68.8c-1.1,0-2.2,0.4-3.1,1.1c-0.9,0.7-1.5,1.7-1.7,2.8s-0.1,2.2,0.4,3.3c0.5,1,1.3,1.8,2.3,2.3c1,0.5,2.2,0.6,3.3,0.4
			c1.1-0.2,2.1-0.9,2.8-1.7c0.7-0.9,1.1-2,1.1-3.1c0-1.1-0.4-2.2-1-3.1c-0.5-0.6-1.1-1.1-1.7-1.4C286.7,69,286,68.8,285.2,68.8
			L285.2,68.8z"/>
		<path class="st2" d="M285.2,88.8c-2.7,0-5.4-0.7-7.7-2.1c-2.3-1.4-4.2-3.4-5.5-5.7c-1.3-2.4-1.9-5.1-1.8-7.8
			c0.1-2.7,0.9-5.3,2.4-7.6c1.5-2.3,3.5-4.1,6-5.3c2.4-1.2,5.1-1.7,7.8-1.5c2.7,0.2,5.3,1.2,7.5,2.7c2.2,1.6,3.9,3.7,5,6.2l0,0
			c0.4,0.9,0.7,1.8,0.9,2.8c0,0.1,0,0.2,0,0.2c0,0,0,0.1,0,0.1c0,0.1,0,0.2-0.1,0.3c-0.1,0.1-0.2,0.1-0.3,0.1c-0.1,0-0.2,0-0.3-0.1
			c-0.1-0.1-0.1-0.1-0.2-0.2c-0.2-1-0.5-2-0.9-2.9l0,0c-1.4-3.3-4-5.9-7.3-7.3c-0.2-0.1-0.4-0.2-0.6-0.2c-2.5-1-5.2-1.2-7.8-0.7
			c-2.6,0.5-5,1.7-7,3.5c-2,1.8-3.4,4.1-4.1,6.7c-0.7,2.6-0.7,5.3,0.1,7.8c0.8,2.6,2.2,4.8,4.2,6.6c2,1.8,4.4,2.9,7.1,3.3
			c2.6,0.4,5.3,0.1,7.8-0.9c2.5-1,4.6-2.7,6.1-4.9c0.1-0.1,0.2-0.1,0.3-0.2c0.1,0,0.2,0,0.3,0.1s0.1,0.2,0.2,0.3
			c0,0.1,0,0.2-0.1,0.3c-1.4,2-3.2,3.5-5.3,4.7C289.9,88.2,287.6,88.8,285.2,88.8L285.2,88.8z"/>
	</g>
</g>
</svg>
